999
"DXF R12 Output" (www.mydxf.blogspot.com)
 0 
SECTION
 2 
HEADER
 9 
$ACADVER
 1 
AC1009
 9 
$EXTMIN
 10 
 0 
 20 
 0 
 9 
$EXTMAX
 10 
 8.5 
 20 
 11 
 0 
ENDSEC
 0 
SECTION
 2 
ENTITIES
0
LINE
8
Layer 1
10
0.846666
20
84.666700
11
-0.846666
21
82.973300
0
LINE
8
Layer 1
10
0.000000
20
85.231100
11
0.000000
21
82.408900
0
LINE
8
Layer 1
10
2.257780
20
82.691100
11
1.128890
21
81.562210
0
LINE
8
Layer 1
10
1.693330
20
83.255600
11
0.564440
21
82.126710
0
LINE
8
Layer 1
10
1.128890
20
83.820000
11
0.000000
21
82.691110
0
LINE
8
Layer 1
10
0.846666
20
84.666700
11
-0.846666
21
82.973300
0
LINE
8
Layer 1
10
0.000000
20
85.231100
11
0.000000
21
82.408900
0
LINE
8
Layer 1
10
2.257780
20
82.691100
11
1.128890
21
81.562210
0
LINE
8
Layer 1
10
1.693330
20
83.255600
11
0.564440
21
82.126710
0
LINE
8
Layer 1
10
1.128890
20
83.820000
11
0.000000
21
82.691110
0
LINE
8
Layer 1
10
0.846666
20
84.666700
11
-0.846666
21
82.973300
0
LINE
8
Layer 1
10
0.000000
20
85.231100
11
0.000000
21
82.408900
0
LINE
8
Layer 1
10
2.257780
20
82.691100
11
1.128890
21
81.562210
0
LINE
8
Layer 1
10
1.693330
20
83.255600
11
0.564440
21
82.126710
0
LINE
8
Layer 1
10
1.128890
20
83.820000
11
0.000000
21
82.691110
0
LINE
8
Layer 1
10
0.846666
20
84.666700
11
-0.846666
21
82.973300
0
LINE
8
Layer 1
10
0.000000
20
85.231100
11
0.000000
21
82.408900
0
LINE
8
Layer 1
10
2.257780
20
82.691100
11
1.128890
21
81.562210
0
LINE
8
Layer 1
10
1.693330
20
83.255600
11
0.564440
21
82.126710
0
LINE
8
Layer 1
10
1.128890
20
83.820000
11
0.000000
21
82.691110
0
LINE
8
Layer 1
10
9.773530
20
62.832300
11
9.674337
21
62.592827
0
LINE
8
Layer 1
10
9.674337
20
62.592827
11
9.434864
21
62.493634
0
LINE
8
Layer 1
10
9.434864
20
62.493634
11
9.195391
21
62.592827
0
LINE
8
Layer 1
10
9.195391
20
62.592827
11
9.096198
21
62.832300
0
LINE
8
Layer 1
10
9.096198
20
62.832300
11
9.195391
21
63.071773
0
LINE
8
Layer 1
10
9.195391
20
63.071773
11
9.434864
21
63.170966
0
LINE
8
Layer 1
10
9.434864
20
63.170966
11
9.674337
21
63.071773
0
LINE
8
Layer 1
10
9.674337
20
63.071773
11
9.773530
21
62.832300
0
LINE
8
Layer 1
10
9.773530
20
62.832300
11
9.773530
21
62.832300
0
LINE
8
Layer 1
10
6.189310
20
62.832300
11
6.090117
21
62.592827
0
LINE
8
Layer 1
10
6.090117
20
62.592827
11
5.850644
21
62.493634
0
LINE
8
Layer 1
10
5.850644
20
62.493634
11
5.611171
21
62.592827
0
LINE
8
Layer 1
10
5.611171
20
62.592827
11
5.511978
21
62.832300
0
LINE
8
Layer 1
10
5.511978
20
62.832300
11
5.611171
21
63.071773
0
LINE
8
Layer 1
10
5.611171
20
63.071773
11
5.850644
21
63.170966
0
LINE
8
Layer 1
10
5.850644
20
63.170966
11
6.090117
21
63.071773
0
LINE
8
Layer 1
10
6.090117
20
63.071773
11
6.189310
21
62.832300
0
LINE
8
Layer 1
10
6.189310
20
62.832300
11
6.189310
21
62.832300
0
LINE
8
Layer 1
10
14.074600
20
62.832300
11
13.975407
21
62.592827
0
LINE
8
Layer 1
10
13.975407
20
62.592827
11
13.735934
21
62.493634
0
LINE
8
Layer 1
10
13.735934
20
62.493634
11
13.496461
21
62.592827
0
LINE
8
Layer 1
10
13.496461
20
62.592827
11
13.397268
21
62.832300
0
LINE
8
Layer 1
10
13.397268
20
62.832300
11
13.496461
21
63.071773
0
LINE
8
Layer 1
10
13.496461
20
63.071773
11
13.735934
21
63.170966
0
LINE
8
Layer 1
10
13.735934
20
63.170966
11
13.975407
21
63.071773
0
LINE
8
Layer 1
10
13.975407
20
63.071773
11
14.074600
21
62.832300
0
LINE
8
Layer 1
10
14.074600
20
62.832300
11
14.074600
21
62.832300
0
LINE
8
Layer 1
10
11.924100
20
62.832300
11
11.824907
21
62.592827
0
LINE
8
Layer 1
10
11.824907
20
62.592827
11
11.585434
21
62.493634
0
LINE
8
Layer 1
10
11.585434
20
62.493634
11
11.345961
21
62.592827
0
LINE
8
Layer 1
10
11.345961
20
62.592827
11
11.246768
21
62.832300
0
LINE
8
Layer 1
10
11.246768
20
62.832300
11
11.345961
21
63.071773
0
LINE
8
Layer 1
10
11.345961
20
63.071773
11
11.585434
21
63.170966
0
LINE
8
Layer 1
10
11.585434
20
63.170966
11
11.824907
21
63.071773
0
LINE
8
Layer 1
10
11.824907
20
63.071773
11
11.924100
21
62.832300
0
LINE
8
Layer 1
10
11.924100
20
62.832300
11
11.924100
21
62.832300
0
LINE
8
Layer 1
10
11.207200
20
62.832300
11
11.108007
21
62.592827
0
LINE
8
Layer 1
10
11.108007
20
62.592827
11
10.868534
21
62.493634
0
LINE
8
Layer 1
10
10.868534
20
62.493634
11
10.629061
21
62.592827
0
LINE
8
Layer 1
10
10.629061
20
62.592827
11
10.529868
21
62.832300
0
LINE
8
Layer 1
10
10.529868
20
62.832300
11
10.629061
21
63.071773
0
LINE
8
Layer 1
10
10.629061
20
63.071773
11
10.868534
21
63.170966
0
LINE
8
Layer 1
10
10.868534
20
63.170966
11
11.108007
21
63.071773
0
LINE
8
Layer 1
10
11.108007
20
63.071773
11
11.207200
21
62.832300
0
LINE
8
Layer 1
10
11.207200
20
62.832300
11
11.207200
21
62.832300
0
LINE
8
Layer 1
10
10.490400
20
62.832300
11
10.391207
21
62.592827
0
LINE
8
Layer 1
10
10.391207
20
62.592827
11
10.151734
21
62.493634
0
LINE
8
Layer 1
10
10.151734
20
62.493634
11
9.912261
21
62.592827
0
LINE
8
Layer 1
10
9.912261
20
62.592827
11
9.813068
21
62.832300
0
LINE
8
Layer 1
10
9.813068
20
62.832300
11
9.912261
21
63.071773
0
LINE
8
Layer 1
10
9.912261
20
63.071773
11
10.151734
21
63.170966
0
LINE
8
Layer 1
10
10.151734
20
63.170966
11
10.391207
21
63.071773
0
LINE
8
Layer 1
10
10.391207
20
63.071773
11
10.490400
21
62.832300
0
LINE
8
Layer 1
10
10.490400
20
62.832300
11
10.490400
21
62.832300
0
LINE
8
Layer 1
10
8.339840
20
62.832300
11
8.240647
21
62.592827
0
LINE
8
Layer 1
10
8.240647
20
62.592827
11
8.001174
21
62.493634
0
LINE
8
Layer 1
10
8.001174
20
62.493634
11
7.761701
21
62.592827
0
LINE
8
Layer 1
10
7.761701
20
62.592827
11
7.662508
21
62.832300
0
LINE
8
Layer 1
10
7.662508
20
62.832300
11
7.761701
21
63.071773
0
LINE
8
Layer 1
10
7.761701
20
63.071773
11
8.001174
21
63.170966
0
LINE
8
Layer 1
10
8.001174
20
63.170966
11
8.240647
21
63.071773
0
LINE
8
Layer 1
10
8.240647
20
63.071773
11
8.339840
21
62.832300
0
LINE
8
Layer 1
10
8.339840
20
62.832300
11
8.339840
21
62.832300
0
LINE
8
Layer 1
10
16.225100
20
62.832300
11
16.125907
21
62.592827
0
LINE
8
Layer 1
10
16.125907
20
62.592827
11
15.886434
21
62.493634
0
LINE
8
Layer 1
10
15.886434
20
62.493634
11
15.646961
21
62.592827
0
LINE
8
Layer 1
10
15.646961
20
62.592827
11
15.547768
21
62.832300
0
LINE
8
Layer 1
10
15.547768
20
62.832300
11
15.646961
21
63.071773
0
LINE
8
Layer 1
10
15.646961
20
63.071773
11
15.886434
21
63.170966
0
LINE
8
Layer 1
10
15.886434
20
63.170966
11
16.125907
21
63.071773
0
LINE
8
Layer 1
10
16.125907
20
63.071773
11
16.225100
21
62.832300
0
LINE
8
Layer 1
10
16.225100
20
62.832300
11
16.225100
21
62.832300
0
LINE
8
Layer 1
10
14.791400
20
62.832300
11
14.692207
21
62.592827
0
LINE
8
Layer 1
10
14.692207
20
62.592827
11
14.452734
21
62.493634
0
LINE
8
Layer 1
10
14.452734
20
62.493634
11
14.213261
21
62.592827
0
LINE
8
Layer 1
10
14.213261
20
62.592827
11
14.114068
21
62.832300
0
LINE
8
Layer 1
10
14.114068
20
62.832300
11
14.213261
21
63.071773
0
LINE
8
Layer 1
10
14.213261
20
63.071773
11
14.452734
21
63.170966
0
LINE
8
Layer 1
10
14.452734
20
63.170966
11
14.692207
21
63.071773
0
LINE
8
Layer 1
10
14.692207
20
63.071773
11
14.791400
21
62.832300
0
LINE
8
Layer 1
10
14.791400
20
62.832300
11
14.791400
21
62.832300
0
LINE
8
Layer 1
10
7.622990
20
62.832300
11
7.523797
21
62.592827
0
LINE
8
Layer 1
10
7.523797
20
62.592827
11
7.284324
21
62.493634
0
LINE
8
Layer 1
10
7.284324
20
62.493634
11
7.044851
21
62.592827
0
LINE
8
Layer 1
10
7.044851
20
62.592827
11
6.945658
21
62.832300
0
LINE
8
Layer 1
10
6.945658
20
62.832300
11
7.044851
21
63.071773
0
LINE
8
Layer 1
10
7.044851
20
63.071773
11
7.284324
21
63.170966
0
LINE
8
Layer 1
10
7.284324
20
63.170966
11
7.523797
21
63.071773
0
LINE
8
Layer 1
10
7.523797
20
63.071773
11
7.622990
21
62.832300
0
LINE
8
Layer 1
10
7.622990
20
62.832300
11
7.622990
21
62.832300
0
LINE
8
Layer 1
10
6.906150
20
62.832300
11
6.806957
21
62.592827
0
LINE
8
Layer 1
10
6.806957
20
62.592827
11
6.567484
21
62.493634
0
LINE
8
Layer 1
10
6.567484
20
62.493634
11
6.328011
21
62.592827
0
LINE
8
Layer 1
10
6.328011
20
62.592827
11
6.228818
21
62.832300
0
LINE
8
Layer 1
10
6.228818
20
62.832300
11
6.328011
21
63.071773
0
LINE
8
Layer 1
10
6.328011
20
63.071773
11
6.567484
21
63.170966
0
LINE
8
Layer 1
10
6.567484
20
63.170966
11
6.806957
21
63.071773
0
LINE
8
Layer 1
10
6.806957
20
63.071773
11
6.906150
21
62.832300
0
LINE
8
Layer 1
10
6.906150
20
62.832300
11
6.906150
21
62.832300
0
LINE
8
Layer 1
10
13.357700
20
62.832300
11
13.258507
21
62.592827
0
LINE
8
Layer 1
10
13.258507
20
62.592827
11
13.019034
21
62.493634
0
LINE
8
Layer 1
10
13.019034
20
62.493634
11
12.779561
21
62.592827
0
LINE
8
Layer 1
10
12.779561
20
62.592827
11
12.680368
21
62.832300
0
LINE
8
Layer 1
10
12.680368
20
62.832300
11
12.779561
21
63.071773
0
LINE
8
Layer 1
10
12.779561
20
63.071773
11
13.019034
21
63.170966
0
LINE
8
Layer 1
10
13.019034
20
63.170966
11
13.258507
21
63.071773
0
LINE
8
Layer 1
10
13.258507
20
63.071773
11
13.357700
21
62.832300
0
LINE
8
Layer 1
10
13.357700
20
62.832300
11
13.357700
21
62.832300
0
LINE
8
Layer 1
10
9.056680
20
62.832300
11
8.957487
21
62.592827
0
LINE
8
Layer 1
10
8.957487
20
62.592827
11
8.718014
21
62.493634
0
LINE
8
Layer 1
10
8.718014
20
62.493634
11
8.478541
21
62.592827
0
LINE
8
Layer 1
10
8.478541
20
62.592827
11
8.379348
21
62.832300
0
LINE
8
Layer 1
10
8.379348
20
62.832300
11
8.478541
21
63.071773
0
LINE
8
Layer 1
10
8.478541
20
63.071773
11
8.718014
21
63.170966
0
LINE
8
Layer 1
10
8.718014
20
63.170966
11
8.957487
21
63.071773
0
LINE
8
Layer 1
10
8.957487
20
63.071773
11
9.056680
21
62.832300
0
LINE
8
Layer 1
10
9.056680
20
62.832300
11
9.056680
21
62.832300
0
LINE
8
Layer 1
10
15.508300
20
62.832300
11
15.409107
21
62.592827
0
LINE
8
Layer 1
10
15.409107
20
62.592827
11
15.169634
21
62.493634
0
LINE
8
Layer 1
10
15.169634
20
62.493634
11
14.930161
21
62.592827
0
LINE
8
Layer 1
10
14.930161
20
62.592827
11
14.830968
21
62.832300
0
LINE
8
Layer 1
10
14.830968
20
62.832300
11
14.930161
21
63.071773
0
LINE
8
Layer 1
10
14.930161
20
63.071773
11
15.169634
21
63.170966
0
LINE
8
Layer 1
10
15.169634
20
63.170966
11
15.409107
21
63.071773
0
LINE
8
Layer 1
10
15.409107
20
63.071773
11
15.508300
21
62.832300
0
LINE
8
Layer 1
10
15.508300
20
62.832300
11
15.508300
21
62.832300
0
LINE
8
Layer 1
10
12.640900
20
62.832300
11
12.541707
21
62.592827
0
LINE
8
Layer 1
10
12.541707
20
62.592827
11
12.302234
21
62.493634
0
LINE
8
Layer 1
10
12.302234
20
62.493634
11
12.062761
21
62.592827
0
LINE
8
Layer 1
10
12.062761
20
62.592827
11
11.963568
21
62.832300
0
LINE
8
Layer 1
10
11.963568
20
62.832300
11
12.062761
21
63.071773
0
LINE
8
Layer 1
10
12.062761
20
63.071773
11
12.302234
21
63.170966
0
LINE
8
Layer 1
10
12.302234
20
63.170966
11
12.541707
21
63.071773
0
LINE
8
Layer 1
10
12.541707
20
63.071773
11
12.640900
21
62.832300
0
LINE
8
Layer 1
10
12.640900
20
62.832300
11
12.640900
21
62.832300
0
LINE
8
Botom
10
38.697400
20
67.133400
11
38.796593
21
66.893927
0
LINE
8
Botom
10
38.796593
20
66.893927
11
39.036066
21
66.794734
0
LINE
8
Botom
10
39.036066
20
66.794734
11
39.275539
21
66.893927
0
LINE
8
Botom
10
39.275539
20
66.893927
11
39.374732
21
67.133400
0
LINE
8
Botom
10
39.374732
20
67.133400
11
39.275539
21
67.372873
0
LINE
8
Botom
10
39.275539
20
67.372873
11
39.036066
21
67.472066
0
LINE
8
Botom
10
39.036066
20
67.472066
11
38.796593
21
67.372873
0
LINE
8
Botom
10
38.796593
20
67.372873
11
38.697400
21
67.133400
0
LINE
8
Botom
10
38.697400
20
67.133400
11
38.697400
21
67.133400
0
LINE
8
Botom
10
42.281600
20
67.133400
11
42.380793
21
66.893927
0
LINE
8
Botom
10
42.380793
20
66.893927
11
42.620266
21
66.794734
0
LINE
8
Botom
10
42.620266
20
66.794734
11
42.859739
21
66.893927
0
LINE
8
Botom
10
42.859739
20
66.893927
11
42.958932
21
67.133400
0
LINE
8
Botom
10
42.958932
20
67.133400
11
42.859739
21
67.372873
0
LINE
8
Botom
10
42.859739
20
67.372873
11
42.620266
21
67.472066
0
LINE
8
Botom
10
42.620266
20
67.472066
11
42.380793
21
67.372873
0
LINE
8
Botom
10
42.380793
20
67.372873
11
42.281600
21
67.133400
0
LINE
8
Botom
10
42.281600
20
67.133400
11
42.281600
21
67.133400
0
LINE
8
Botom
10
34.396300
20
67.133400
11
34.495493
21
66.893927
0
LINE
8
Botom
10
34.495493
20
66.893927
11
34.734966
21
66.794734
0
LINE
8
Botom
10
34.734966
20
66.794734
11
34.974439
21
66.893927
0
LINE
8
Botom
10
34.974439
20
66.893927
11
35.073632
21
67.133400
0
LINE
8
Botom
10
35.073632
20
67.133400
11
34.974439
21
67.372873
0
LINE
8
Botom
10
34.974439
20
67.372873
11
34.734966
21
67.472066
0
LINE
8
Botom
10
34.734966
20
67.472066
11
34.495493
21
67.372873
0
LINE
8
Botom
10
34.495493
20
67.372873
11
34.396300
21
67.133400
0
LINE
8
Botom
10
34.396300
20
67.133400
11
34.396300
21
67.133400
0
LINE
8
Botom
10
36.546900
20
67.133400
11
36.646093
21
66.893927
0
LINE
8
Botom
10
36.646093
20
66.893927
11
36.885566
21
66.794734
0
LINE
8
Botom
10
36.885566
20
66.794734
11
37.125039
21
66.893927
0
LINE
8
Botom
10
37.125039
20
66.893927
11
37.224232
21
67.133400
0
LINE
8
Botom
10
37.224232
20
67.133400
11
37.125039
21
67.372873
0
LINE
8
Botom
10
37.125039
20
67.372873
11
36.885566
21
67.472066
0
LINE
8
Botom
10
36.885566
20
67.472066
11
36.646093
21
67.372873
0
LINE
8
Botom
10
36.646093
20
67.372873
11
36.546900
21
67.133400
0
LINE
8
Botom
10
36.546900
20
67.133400
11
36.546900
21
67.133400
0
LINE
8
Botom
10
37.263700
20
67.133400
11
37.362893
21
66.893927
0
LINE
8
Botom
10
37.362893
20
66.893927
11
37.602366
21
66.794734
0
LINE
8
Botom
10
37.602366
20
66.794734
11
37.841839
21
66.893927
0
LINE
8
Botom
10
37.841839
20
66.893927
11
37.941032
21
67.133400
0
LINE
8
Botom
10
37.941032
20
67.133400
11
37.841839
21
67.372873
0
LINE
8
Botom
10
37.841839
20
67.372873
11
37.602366
21
67.472066
0
LINE
8
Botom
10
37.602366
20
67.472066
11
37.362893
21
67.372873
0
LINE
8
Botom
10
37.362893
20
67.372873
11
37.263700
21
67.133400
0
LINE
8
Botom
10
37.263700
20
67.133400
11
37.263700
21
67.133400
0
LINE
8
Botom
10
37.980600
20
67.133400
11
38.079793
21
66.893927
0
LINE
8
Botom
10
38.079793
20
66.893927
11
38.319266
21
66.794734
0
LINE
8
Botom
10
38.319266
20
66.794734
11
38.558739
21
66.893927
0
LINE
8
Botom
10
38.558739
20
66.893927
11
38.657932
21
67.133400
0
LINE
8
Botom
10
38.657932
20
67.133400
11
38.558739
21
67.372873
0
LINE
8
Botom
10
38.558739
20
67.372873
11
38.319266
21
67.472066
0
LINE
8
Botom
10
38.319266
20
67.472066
11
38.079793
21
67.372873
0
LINE
8
Botom
10
38.079793
20
67.372873
11
37.980600
21
67.133400
0
LINE
8
Botom
10
37.980600
20
67.133400
11
37.980600
21
67.133400
0
LINE
8
Botom
10
40.131100
20
67.133400
11
40.230293
21
66.893927
0
LINE
8
Botom
10
40.230293
20
66.893927
11
40.469766
21
66.794734
0
LINE
8
Botom
10
40.469766
20
66.794734
11
40.709239
21
66.893927
0
LINE
8
Botom
10
40.709239
20
66.893927
11
40.808432
21
67.133400
0
LINE
8
Botom
10
40.808432
20
67.133400
11
40.709239
21
67.372873
0
LINE
8
Botom
10
40.709239
20
67.372873
11
40.469766
21
67.472066
0
LINE
8
Botom
10
40.469766
20
67.472066
11
40.230293
21
67.372873
0
LINE
8
Botom
10
40.230293
20
67.372873
11
40.131100
21
67.133400
0
LINE
8
Botom
10
40.131100
20
67.133400
11
40.131100
21
67.133400
0
LINE
8
Botom
10
32.245800
20
67.133400
11
32.344993
21
66.893927
0
LINE
8
Botom
10
32.344993
20
66.893927
11
32.584466
21
66.794734
0
LINE
8
Botom
10
32.584466
20
66.794734
11
32.823939
21
66.893927
0
LINE
8
Botom
10
32.823939
20
66.893927
11
32.923132
21
67.133400
0
LINE
8
Botom
10
32.923132
20
67.133400
11
32.823939
21
67.372873
0
LINE
8
Botom
10
32.823939
20
67.372873
11
32.584466
21
67.472066
0
LINE
8
Botom
10
32.584466
20
67.472066
11
32.344993
21
67.372873
0
LINE
8
Botom
10
32.344993
20
67.372873
11
32.245800
21
67.133400
0
LINE
8
Botom
10
32.245800
20
67.133400
11
32.245800
21
67.133400
0
LINE
8
Botom
10
33.679500
20
67.133400
11
33.778693
21
66.893927
0
LINE
8
Botom
10
33.778693
20
66.893927
11
34.018166
21
66.794734
0
LINE
8
Botom
10
34.018166
20
66.794734
11
34.257639
21
66.893927
0
LINE
8
Botom
10
34.257639
20
66.893927
11
34.356832
21
67.133400
0
LINE
8
Botom
10
34.356832
20
67.133400
11
34.257639
21
67.372873
0
LINE
8
Botom
10
34.257639
20
67.372873
11
34.018166
21
67.472066
0
LINE
8
Botom
10
34.018166
20
67.472066
11
33.778693
21
67.372873
0
LINE
8
Botom
10
33.778693
20
67.372873
11
33.679500
21
67.133400
0
LINE
8
Botom
10
33.679500
20
67.133400
11
33.679500
21
67.133400
0
LINE
8
Botom
10
40.847900
20
67.133400
11
40.947093
21
66.893927
0
LINE
8
Botom
10
40.947093
20
66.893927
11
41.186566
21
66.794734
0
LINE
8
Botom
10
41.186566
20
66.794734
11
41.426039
21
66.893927
0
LINE
8
Botom
10
41.426039
20
66.893927
11
41.525232
21
67.133400
0
LINE
8
Botom
10
41.525232
20
67.133400
11
41.426039
21
67.372873
0
LINE
8
Botom
10
41.426039
20
67.372873
11
41.186566
21
67.472066
0
LINE
8
Botom
10
41.186566
20
67.472066
11
40.947093
21
67.372873
0
LINE
8
Botom
10
40.947093
20
67.372873
11
40.847900
21
67.133400
0
LINE
8
Botom
10
40.847900
20
67.133400
11
40.847900
21
67.133400
0
LINE
8
Botom
10
41.564800
20
67.133400
11
41.663993
21
66.893927
0
LINE
8
Botom
10
41.663993
20
66.893927
11
41.903466
21
66.794734
0
LINE
8
Botom
10
41.903466
20
66.794734
11
42.142939
21
66.893927
0
LINE
8
Botom
10
42.142939
20
66.893927
11
42.242132
21
67.133400
0
LINE
8
Botom
10
42.242132
20
67.133400
11
42.142939
21
67.372873
0
LINE
8
Botom
10
42.142939
20
67.372873
11
41.903466
21
67.472066
0
LINE
8
Botom
10
41.903466
20
67.472066
11
41.663993
21
67.372873
0
LINE
8
Botom
10
41.663993
20
67.372873
11
41.564800
21
67.133400
0
LINE
8
Botom
10
41.564800
20
67.133400
11
41.564800
21
67.133400
0
LINE
8
Botom
10
35.113200
20
67.133400
11
35.212393
21
66.893927
0
LINE
8
Botom
10
35.212393
20
66.893927
11
35.451866
21
66.794734
0
LINE
8
Botom
10
35.451866
20
66.794734
11
35.691339
21
66.893927
0
LINE
8
Botom
10
35.691339
20
66.893927
11
35.790532
21
67.133400
0
LINE
8
Botom
10
35.790532
20
67.133400
11
35.691339
21
67.372873
0
LINE
8
Botom
10
35.691339
20
67.372873
11
35.451866
21
67.472066
0
LINE
8
Botom
10
35.451866
20
67.472066
11
35.212393
21
67.372873
0
LINE
8
Botom
10
35.212393
20
67.372873
11
35.113200
21
67.133400
0
LINE
8
Botom
10
35.113200
20
67.133400
11
35.113200
21
67.133400
0
LINE
8
Botom
10
39.414200
20
67.133400
11
39.513393
21
66.893927
0
LINE
8
Botom
10
39.513393
20
66.893927
11
39.752866
21
66.794734
0
LINE
8
Botom
10
39.752866
20
66.794734
11
39.992339
21
66.893927
0
LINE
8
Botom
10
39.992339
20
66.893927
11
40.091532
21
67.133400
0
LINE
8
Botom
10
40.091532
20
67.133400
11
39.992339
21
67.372873
0
LINE
8
Botom
10
39.992339
20
67.372873
11
39.752866
21
67.472066
0
LINE
8
Botom
10
39.752866
20
67.472066
11
39.513393
21
67.372873
0
LINE
8
Botom
10
39.513393
20
67.372873
11
39.414200
21
67.133400
0
LINE
8
Botom
10
39.414200
20
67.133400
11
39.414200
21
67.133400
0
LINE
8
Botom
10
32.962700
20
67.133400
11
33.061893
21
66.893927
0
LINE
8
Botom
10
33.061893
20
66.893927
11
33.301366
21
66.794734
0
LINE
8
Botom
10
33.301366
20
66.794734
11
33.540839
21
66.893927
0
LINE
8
Botom
10
33.540839
20
66.893927
11
33.640032
21
67.133400
0
LINE
8
Botom
10
33.640032
20
67.133400
11
33.540839
21
67.372873
0
LINE
8
Botom
10
33.540839
20
67.372873
11
33.301366
21
67.472066
0
LINE
8
Botom
10
33.301366
20
67.472066
11
33.061893
21
67.372873
0
LINE
8
Botom
10
33.061893
20
67.372873
11
32.962700
21
67.133400
0
LINE
8
Botom
10
32.962700
20
67.133400
11
32.962700
21
67.133400
0
LINE
8
Botom
10
35.830000
20
67.133400
11
35.929193
21
66.893927
0
LINE
8
Botom
10
35.929193
20
66.893927
11
36.168666
21
66.794734
0
LINE
8
Botom
10
36.168666
20
66.794734
11
36.408139
21
66.893927
0
LINE
8
Botom
10
36.408139
20
66.893927
11
36.507332
21
67.133400
0
LINE
8
Botom
10
36.507332
20
67.133400
11
36.408139
21
67.372873
0
LINE
8
Botom
10
36.408139
20
67.372873
11
36.168666
21
67.472066
0
LINE
8
Botom
10
36.168666
20
67.472066
11
35.929193
21
67.372873
0
LINE
8
Botom
10
35.929193
20
67.372873
11
35.830000
21
67.133400
0
LINE
8
Botom
10
35.830000
20
67.133400
11
35.830000
21
67.133400
0
LINE
8
Layer 1
10
11.461200
20
72.417000
11
11.362007
21
72.177527
0
LINE
8
Layer 1
10
11.362007
20
72.177527
11
11.122534
21
72.078334
0
LINE
8
Layer 1
10
11.122534
20
72.078334
11
10.883061
21
72.177527
0
LINE
8
Layer 1
10
10.883061
20
72.177527
11
10.783868
21
72.417000
0
LINE
8
Layer 1
10
10.783868
20
72.417000
11
10.883061
21
72.656473
0
LINE
8
Layer 1
10
10.883061
20
72.656473
11
11.122534
21
72.755666
0
LINE
8
Layer 1
10
11.122534
20
72.755666
11
11.362007
21
72.656473
0
LINE
8
Layer 1
10
11.362007
20
72.656473
11
11.461200
21
72.417000
0
LINE
8
Layer 1
10
11.461200
20
72.417000
11
11.461200
21
72.417000
0
LINE
8
Layer 1
10
9.310660
20
72.417000
11
9.211467
21
72.177527
0
LINE
8
Layer 1
10
9.211467
20
72.177527
11
8.971993
21
72.078334
0
LINE
8
Layer 1
10
8.971993
20
72.078334
11
8.732520
21
72.177527
0
LINE
8
Layer 1
10
8.732520
20
72.177527
11
8.633327
21
72.417000
0
LINE
8
Layer 1
10
8.633327
20
72.417000
11
8.732520
21
72.656473
0
LINE
8
Layer 1
10
8.732520
20
72.656473
11
8.971993
21
72.755666
0
LINE
8
Layer 1
10
8.971993
20
72.755666
11
9.211467
21
72.656473
0
LINE
8
Layer 1
10
9.211467
20
72.656473
11
9.310660
21
72.417000
0
LINE
8
Layer 1
10
9.310660
20
72.417000
11
9.310660
21
72.417000
0
LINE
8
Layer 1
10
14.328600
20
72.417000
11
14.229407
21
72.177527
0
LINE
8
Layer 1
10
14.229407
20
72.177527
11
13.989934
21
72.078334
0
LINE
8
Layer 1
10
13.989934
20
72.078334
11
13.750461
21
72.177527
0
LINE
8
Layer 1
10
13.750461
20
72.177527
11
13.651268
21
72.417000
0
LINE
8
Layer 1
10
13.651268
20
72.417000
11
13.750461
21
72.656473
0
LINE
8
Layer 1
10
13.750461
20
72.656473
11
13.989934
21
72.755666
0
LINE
8
Layer 1
10
13.989934
20
72.755666
11
14.229407
21
72.656473
0
LINE
8
Layer 1
10
14.229407
20
72.656473
11
14.328600
21
72.417000
0
LINE
8
Layer 1
10
14.328600
20
72.417000
11
14.328600
21
72.417000
0
LINE
8
Layer 1
10
13.611700
20
72.417000
11
13.512507
21
72.177527
0
LINE
8
Layer 1
10
13.512507
20
72.177527
11
13.273034
21
72.078334
0
LINE
8
Layer 1
10
13.273034
20
72.078334
11
13.033561
21
72.177527
0
LINE
8
Layer 1
10
13.033561
20
72.177527
11
12.934368
21
72.417000
0
LINE
8
Layer 1
10
12.934368
20
72.417000
11
13.033561
21
72.656473
0
LINE
8
Layer 1
10
13.033561
20
72.656473
11
13.273034
21
72.755666
0
LINE
8
Layer 1
10
13.273034
20
72.755666
11
13.512507
21
72.656473
0
LINE
8
Layer 1
10
13.512507
20
72.656473
11
13.611700
21
72.417000
0
LINE
8
Layer 1
10
13.611700
20
72.417000
11
13.611700
21
72.417000
0
LINE
8
Layer 1
10
12.178000
20
72.417000
11
12.078807
21
72.177527
0
LINE
8
Layer 1
10
12.078807
20
72.177527
11
11.839334
21
72.078334
0
LINE
8
Layer 1
10
11.839334
20
72.078334
11
11.599861
21
72.177527
0
LINE
8
Layer 1
10
11.599861
20
72.177527
11
11.500668
21
72.417000
0
LINE
8
Layer 1
10
11.500668
20
72.417000
11
11.599861
21
72.656473
0
LINE
8
Layer 1
10
11.599861
20
72.656473
11
11.839334
21
72.755666
0
LINE
8
Layer 1
10
11.839334
20
72.755666
11
12.078807
21
72.656473
0
LINE
8
Layer 1
10
12.078807
20
72.656473
11
12.178000
21
72.417000
0
LINE
8
Layer 1
10
12.178000
20
72.417000
11
12.178000
21
72.417000
0
LINE
8
Layer 1
10
10.744400
20
72.417000
11
10.645207
21
72.177527
0
LINE
8
Layer 1
10
10.645207
20
72.177527
11
10.405734
21
72.078334
0
LINE
8
Layer 1
10
10.405734
20
72.078334
11
10.166261
21
72.177527
0
LINE
8
Layer 1
10
10.166261
20
72.177527
11
10.067068
21
72.417000
0
LINE
8
Layer 1
10
10.067068
20
72.417000
11
10.166261
21
72.656473
0
LINE
8
Layer 1
10
10.166261
20
72.656473
11
10.405734
21
72.755666
0
LINE
8
Layer 1
10
10.405734
20
72.755666
11
10.645207
21
72.656473
0
LINE
8
Layer 1
10
10.645207
20
72.656473
11
10.744400
21
72.417000
0
LINE
8
Layer 1
10
10.744400
20
72.417000
11
10.744400
21
72.417000
0
LINE
8
Layer 1
10
12.894900
20
72.417000
11
12.795707
21
72.177527
0
LINE
8
Layer 1
10
12.795707
20
72.177527
11
12.556234
21
72.078334
0
LINE
8
Layer 1
10
12.556234
20
72.078334
11
12.316761
21
72.177527
0
LINE
8
Layer 1
10
12.316761
20
72.177527
11
12.217568
21
72.417000
0
LINE
8
Layer 1
10
12.217568
20
72.417000
11
12.316761
21
72.656473
0
LINE
8
Layer 1
10
12.316761
20
72.656473
11
12.556234
21
72.755666
0
LINE
8
Layer 1
10
12.556234
20
72.755666
11
12.795707
21
72.656473
0
LINE
8
Layer 1
10
12.795707
20
72.656473
11
12.894900
21
72.417000
0
LINE
8
Layer 1
10
12.894900
20
72.417000
11
12.894900
21
72.417000
0
LINE
8
Layer 1
10
10.027500
20
72.417000
11
9.928307
21
72.177527
0
LINE
8
Layer 1
10
9.928307
20
72.177527
11
9.688834
21
72.078334
0
LINE
8
Layer 1
10
9.688834
20
72.078334
11
9.449361
21
72.177527
0
LINE
8
Layer 1
10
9.449361
20
72.177527
11
9.350168
21
72.417000
0
LINE
8
Layer 1
10
9.350168
20
72.417000
11
9.449361
21
72.656473
0
LINE
8
Layer 1
10
9.449361
20
72.656473
11
9.688834
21
72.755666
0
LINE
8
Layer 1
10
9.688834
20
72.755666
11
9.928307
21
72.656473
0
LINE
8
Layer 1
10
9.928307
20
72.656473
11
10.027500
21
72.417000
0
LINE
8
Layer 1
10
10.027500
20
72.417000
11
10.027500
21
72.417000
0
LINE
8
Layer 1
10
12.738300
20
76.037700
11
12.639107
21
75.798226
0
LINE
8
Layer 1
10
12.639107
20
75.798226
11
12.399634
21
75.699033
0
LINE
8
Layer 1
10
12.399634
20
75.699033
11
12.160161
21
75.798226
0
LINE
8
Layer 1
10
12.160161
20
75.798226
11
12.060968
21
76.037700
0
LINE
8
Layer 1
10
12.060968
20
76.037700
11
12.160161
21
76.277173
0
LINE
8
Layer 1
10
12.160161
20
76.277173
11
12.399634
21
76.376366
0
LINE
8
Layer 1
10
12.399634
20
76.376366
11
12.639107
21
76.277173
0
LINE
8
Layer 1
10
12.639107
20
76.277173
11
12.738300
21
76.037700
0
LINE
8
Layer 1
10
12.738300
20
76.037700
11
12.738300
21
76.037700
0
LINE
8
Layer 1
10
12.021500
20
76.037700
11
11.922307
21
75.798226
0
LINE
8
Layer 1
10
11.922307
20
75.798226
11
11.682834
21
75.699033
0
LINE
8
Layer 1
10
11.682834
20
75.699033
11
11.443361
21
75.798226
0
LINE
8
Layer 1
10
11.443361
20
75.798226
11
11.344168
21
76.037700
0
LINE
8
Layer 1
10
11.344168
20
76.037700
11
11.443361
21
76.277173
0
LINE
8
Layer 1
10
11.443361
20
76.277173
11
11.682834
21
76.376366
0
LINE
8
Layer 1
10
11.682834
20
76.376366
11
11.922307
21
76.277173
0
LINE
8
Layer 1
10
11.922307
20
76.277173
11
12.021500
21
76.037700
0
LINE
8
Layer 1
10
12.021500
20
76.037700
11
12.021500
21
76.037700
0
LINE
8
Layer 1
10
10.587800
20
76.037700
11
10.488607
21
75.798226
0
LINE
8
Layer 1
10
10.488607
20
75.798226
11
10.249134
21
75.699033
0
LINE
8
Layer 1
10
10.249134
20
75.699033
11
10.009661
21
75.798226
0
LINE
8
Layer 1
10
10.009661
20
75.798226
11
9.910468
21
76.037700
0
LINE
8
Layer 1
10
9.910468
20
76.037700
11
10.009661
21
76.277173
0
LINE
8
Layer 1
10
10.009661
20
76.277173
11
10.249134
21
76.376366
0
LINE
8
Layer 1
10
10.249134
20
76.376366
11
10.488607
21
76.277173
0
LINE
8
Layer 1
10
10.488607
20
76.277173
11
10.587800
21
76.037700
0
LINE
8
Layer 1
10
10.587800
20
76.037700
11
10.587800
21
76.037700
0
LINE
8
Layer 1
10
11.304600
20
76.037700
11
11.205407
21
75.798226
0
LINE
8
Layer 1
10
11.205407
20
75.798226
11
10.965934
21
75.699033
0
LINE
8
Layer 1
10
10.965934
20
75.699033
11
10.726461
21
75.798226
0
LINE
8
Layer 1
10
10.726461
20
75.798226
11
10.627268
21
76.037700
0
LINE
8
Layer 1
10
10.627268
20
76.037700
11
10.726461
21
76.277173
0
LINE
8
Layer 1
10
10.726461
20
76.277173
11
10.965934
21
76.376366
0
LINE
8
Layer 1
10
10.965934
20
76.376366
11
11.205407
21
76.277173
0
LINE
8
Layer 1
10
11.205407
20
76.277173
11
11.304600
21
76.037700
0
LINE
8
Layer 1
10
11.304600
20
76.037700
11
11.304600
21
76.037700
0
LINE
8
Layer 1
10
11.461200
20
72.417000
11
11.362007
21
72.177527
0
LINE
8
Layer 1
10
11.362007
20
72.177527
11
11.122534
21
72.078334
0
LINE
8
Layer 1
10
11.122534
20
72.078334
11
10.883061
21
72.177527
0
LINE
8
Layer 1
10
10.883061
20
72.177527
11
10.783868
21
72.417000
0
LINE
8
Layer 1
10
10.783868
20
72.417000
11
10.883061
21
72.656473
0
LINE
8
Layer 1
10
10.883061
20
72.656473
11
11.122534
21
72.755666
0
LINE
8
Layer 1
10
11.122534
20
72.755666
11
11.362007
21
72.656473
0
LINE
8
Layer 1
10
11.362007
20
72.656473
11
11.461200
21
72.417000
0
LINE
8
Layer 1
10
11.461200
20
72.417000
11
11.461200
21
72.417000
0
LINE
8
Layer 1
10
9.310660
20
72.417000
11
9.211467
21
72.177527
0
LINE
8
Layer 1
10
9.211467
20
72.177527
11
8.971993
21
72.078334
0
LINE
8
Layer 1
10
8.971993
20
72.078334
11
8.732520
21
72.177527
0
LINE
8
Layer 1
10
8.732520
20
72.177527
11
8.633327
21
72.417000
0
LINE
8
Layer 1
10
8.633327
20
72.417000
11
8.732520
21
72.656473
0
LINE
8
Layer 1
10
8.732520
20
72.656473
11
8.971993
21
72.755666
0
LINE
8
Layer 1
10
8.971993
20
72.755666
11
9.211467
21
72.656473
0
LINE
8
Layer 1
10
9.211467
20
72.656473
11
9.310660
21
72.417000
0
LINE
8
Layer 1
10
9.310660
20
72.417000
11
9.310660
21
72.417000
0
LINE
8
Layer 1
10
14.328600
20
72.417000
11
14.229407
21
72.177527
0
LINE
8
Layer 1
10
14.229407
20
72.177527
11
13.989934
21
72.078334
0
LINE
8
Layer 1
10
13.989934
20
72.078334
11
13.750461
21
72.177527
0
LINE
8
Layer 1
10
13.750461
20
72.177527
11
13.651268
21
72.417000
0
LINE
8
Layer 1
10
13.651268
20
72.417000
11
13.750461
21
72.656473
0
LINE
8
Layer 1
10
13.750461
20
72.656473
11
13.989934
21
72.755666
0
LINE
8
Layer 1
10
13.989934
20
72.755666
11
14.229407
21
72.656473
0
LINE
8
Layer 1
10
14.229407
20
72.656473
11
14.328600
21
72.417000
0
LINE
8
Layer 1
10
14.328600
20
72.417000
11
14.328600
21
72.417000
0
LINE
8
Layer 1
10
13.611700
20
72.417000
11
13.512507
21
72.177527
0
LINE
8
Layer 1
10
13.512507
20
72.177527
11
13.273034
21
72.078334
0
LINE
8
Layer 1
10
13.273034
20
72.078334
11
13.033561
21
72.177527
0
LINE
8
Layer 1
10
13.033561
20
72.177527
11
12.934368
21
72.417000
0
LINE
8
Layer 1
10
12.934368
20
72.417000
11
13.033561
21
72.656473
0
LINE
8
Layer 1
10
13.033561
20
72.656473
11
13.273034
21
72.755666
0
LINE
8
Layer 1
10
13.273034
20
72.755666
11
13.512507
21
72.656473
0
LINE
8
Layer 1
10
13.512507
20
72.656473
11
13.611700
21
72.417000
0
LINE
8
Layer 1
10
13.611700
20
72.417000
11
13.611700
21
72.417000
0
LINE
8
Layer 1
10
12.178000
20
72.417000
11
12.078807
21
72.177527
0
LINE
8
Layer 1
10
12.078807
20
72.177527
11
11.839334
21
72.078334
0
LINE
8
Layer 1
10
11.839334
20
72.078334
11
11.599861
21
72.177527
0
LINE
8
Layer 1
10
11.599861
20
72.177527
11
11.500668
21
72.417000
0
LINE
8
Layer 1
10
11.500668
20
72.417000
11
11.599861
21
72.656473
0
LINE
8
Layer 1
10
11.599861
20
72.656473
11
11.839334
21
72.755666
0
LINE
8
Layer 1
10
11.839334
20
72.755666
11
12.078807
21
72.656473
0
LINE
8
Layer 1
10
12.078807
20
72.656473
11
12.178000
21
72.417000
0
LINE
8
Layer 1
10
12.178000
20
72.417000
11
12.178000
21
72.417000
0
LINE
8
Layer 1
10
10.744400
20
72.417000
11
10.645207
21
72.177527
0
LINE
8
Layer 1
10
10.645207
20
72.177527
11
10.405734
21
72.078334
0
LINE
8
Layer 1
10
10.405734
20
72.078334
11
10.166261
21
72.177527
0
LINE
8
Layer 1
10
10.166261
20
72.177527
11
10.067068
21
72.417000
0
LINE
8
Layer 1
10
10.067068
20
72.417000
11
10.166261
21
72.656473
0
LINE
8
Layer 1
10
10.166261
20
72.656473
11
10.405734
21
72.755666
0
LINE
8
Layer 1
10
10.405734
20
72.755666
11
10.645207
21
72.656473
0
LINE
8
Layer 1
10
10.645207
20
72.656473
11
10.744400
21
72.417000
0
LINE
8
Layer 1
10
10.744400
20
72.417000
11
10.744400
21
72.417000
0
LINE
8
Layer 1
10
12.894900
20
72.417000
11
12.795707
21
72.177527
0
LINE
8
Layer 1
10
12.795707
20
72.177527
11
12.556234
21
72.078334
0
LINE
8
Layer 1
10
12.556234
20
72.078334
11
12.316761
21
72.177527
0
LINE
8
Layer 1
10
12.316761
20
72.177527
11
12.217568
21
72.417000
0
LINE
8
Layer 1
10
12.217568
20
72.417000
11
12.316761
21
72.656473
0
LINE
8
Layer 1
10
12.316761
20
72.656473
11
12.556234
21
72.755666
0
LINE
8
Layer 1
10
12.556234
20
72.755666
11
12.795707
21
72.656473
0
LINE
8
Layer 1
10
12.795707
20
72.656473
11
12.894900
21
72.417000
0
LINE
8
Layer 1
10
12.894900
20
72.417000
11
12.894900
21
72.417000
0
LINE
8
Layer 1
10
10.027500
20
72.417000
11
9.928307
21
72.177527
0
LINE
8
Layer 1
10
9.928307
20
72.177527
11
9.688834
21
72.078334
0
LINE
8
Layer 1
10
9.688834
20
72.078334
11
9.449361
21
72.177527
0
LINE
8
Layer 1
10
9.449361
20
72.177527
11
9.350168
21
72.417000
0
LINE
8
Layer 1
10
9.350168
20
72.417000
11
9.449361
21
72.656473
0
LINE
8
Layer 1
10
9.449361
20
72.656473
11
9.688834
21
72.755666
0
LINE
8
Layer 1
10
9.688834
20
72.755666
11
9.928307
21
72.656473
0
LINE
8
Layer 1
10
9.928307
20
72.656473
11
10.027500
21
72.417000
0
LINE
8
Layer 1
10
10.027500
20
72.417000
11
10.027500
21
72.417000
0
LINE
8
Layer 1
10
215.012000
20
-91.971200
11
214.523073
21
-92.150346
0
LINE
8
Layer 1
10
214.523073
20
-92.150346
11
214.294868
21
-92.687779
0
LINE
8
Layer 1
10
214.294868
20
-92.687779
11
214.523073
21
-93.224664
0
LINE
8
Layer 1
10
214.523073
20
-93.224664
11
215.012000
21
-93.404360
0
LINE
8
Layer 1
10
215.012000
20
-93.404360
11
215.500377
21
-93.224664
0
LINE
8
Layer 1
10
215.500377
20
-93.224664
11
215.728579
21
-92.687779
0
LINE
8
Layer 1
10
215.728579
20
-92.687779
11
215.500377
21
-92.150346
0
LINE
8
Layer 1
10
215.500377
20
-92.150346
11
215.012000
21
-91.971200
0
LINE
8
Layer 1
10
215.012000
20
-91.971200
11
215.012000
21
-91.971200
0
LINE
8
Layer 1
10
215.012000
20
-92.337758
11
215.256740
21
-92.424849
0
LINE
8
Layer 1
10
215.256740
20
-92.424849
11
215.361470
21
-92.687778
0
LINE
8
Layer 1
10
215.361470
20
-92.687778
11
215.256740
21
-92.950710
0
LINE
8
Layer 1
10
215.256740
20
-92.950710
11
215.012000
21
-93.037801
0
LINE
8
Layer 1
10
215.012000
20
-93.037801
11
214.767260
21
-92.950710
0
LINE
8
Layer 1
10
214.767260
20
-92.950710
11
214.661977
21
-92.687778
0
LINE
8
Layer 1
10
214.661977
20
-92.687778
11
214.767260
21
-92.424849
0
LINE
8
Layer 1
10
214.767260
20
-92.424849
11
215.012000
21
-92.337758
0
LINE
8
Layer 1
10
215.012000
20
-92.337758
11
215.012000
21
-92.337758
0
LINE
8
Layer 1
10
215.012000
20
-89.261500
11
214.523073
21
-89.441196
0
LINE
8
Layer 1
10
214.523073
20
-89.441196
11
214.294868
21
-89.978631
0
LINE
8
Layer 1
10
214.294868
20
-89.978631
11
214.523073
21
-90.515513
0
LINE
8
Layer 1
10
214.523073
20
-90.515513
11
215.012000
21
-90.695209
0
LINE
8
Layer 1
10
215.012000
20
-90.695209
11
215.500377
21
-90.515513
0
LINE
8
Layer 1
10
215.500377
20
-90.515513
11
215.728579
21
-89.978631
0
LINE
8
Layer 1
10
215.728579
20
-89.978631
11
215.500377
21
-89.441196
0
LINE
8
Layer 1
10
215.500377
20
-89.441196
11
215.012000
21
-89.261500
0
LINE
8
Layer 1
10
215.012000
20
-89.261500
11
215.012000
21
-89.261500
0
LINE
8
Layer 1
10
215.012000
20
-89.628609
11
215.256740
21
-89.715700
0
LINE
8
Layer 1
10
215.256740
20
-89.715700
11
215.361470
21
-89.978632
0
LINE
8
Layer 1
10
215.361470
20
-89.978632
11
215.256740
21
-90.241561
0
LINE
8
Layer 1
10
215.256740
20
-90.241561
11
215.012000
21
-90.328102
0
LINE
8
Layer 1
10
215.012000
20
-90.328102
11
214.767260
21
-90.241561
0
LINE
8
Layer 1
10
214.767260
20
-90.241561
11
214.661977
21
-89.978632
0
LINE
8
Layer 1
10
214.661977
20
-89.978632
11
214.767260
21
-89.715700
0
LINE
8
Layer 1
10
214.767260
20
-89.715700
11
215.012000
21
-89.628609
0
LINE
8
Layer 1
10
215.012000
20
-89.628609
11
215.012000
21
-89.628609
0
LINE
8
Layer 1
10
215.012000
20
-94.680500
11
214.523073
21
-94.860196
0
LINE
8
Layer 1
10
214.523073
20
-94.860196
11
214.294868
21
-95.397078
0
LINE
8
Layer 1
10
214.294868
20
-95.397078
11
214.523073
21
-95.933963
0
LINE
8
Layer 1
10
214.523073
20
-95.933963
11
215.012000
21
-96.113659
0
LINE
8
Layer 1
10
215.012000
20
-96.113659
11
215.500377
21
-95.933963
0
LINE
8
Layer 1
10
215.500377
20
-95.933963
11
215.728579
21
-95.397078
0
LINE
8
Layer 1
10
215.728579
20
-95.397078
11
215.500377
21
-94.860196
0
LINE
8
Layer 1
10
215.500377
20
-94.860196
11
215.012000
21
-94.680500
0
LINE
8
Layer 1
10
215.012000
20
-94.680500
11
215.012000
21
-94.680500
0
LINE
8
Layer 1
10
215.012000
20
-95.047058
11
215.256740
21
-95.134149
0
LINE
8
Layer 1
10
215.256740
20
-95.134149
11
215.361470
21
-95.397078
0
LINE
8
Layer 1
10
215.361470
20
-95.397078
11
215.256740
21
-95.660007
0
LINE
8
Layer 1
10
215.256740
20
-95.660007
11
215.012000
21
-95.747101
0
LINE
8
Layer 1
10
215.012000
20
-95.747101
11
214.767260
21
-95.660007
0
LINE
8
Layer 1
10
214.767260
20
-95.660007
11
214.661977
21
-95.397078
0
LINE
8
Layer 1
10
214.661977
20
-95.397078
11
214.767260
21
-95.134149
0
LINE
8
Layer 1
10
214.767260
20
-95.134149
11
215.012000
21
-95.047058
0
LINE
8
Layer 1
10
215.012000
20
-95.047058
11
215.012000
21
-95.047058
0
LINE
8
Layer 1
10
215.012000
20
-97.389700
11
214.523073
21
-97.569396
0
LINE
8
Layer 1
10
214.523073
20
-97.569396
11
214.294868
21
-98.106278
0
LINE
8
Layer 1
10
214.294868
20
-98.106278
11
214.523073
21
-98.643713
0
LINE
8
Layer 1
10
214.523073
20
-98.643713
11
215.012000
21
-98.823409
0
LINE
8
Layer 1
10
215.012000
20
-98.823409
11
215.500377
21
-98.643713
0
LINE
8
Layer 1
10
215.500377
20
-98.643713
11
215.728579
21
-98.106278
0
LINE
8
Layer 1
10
215.728579
20
-98.106278
11
215.500377
21
-97.569396
0
LINE
8
Layer 1
10
215.500377
20
-97.569396
11
215.012000
21
-97.389700
0
LINE
8
Layer 1
10
215.012000
20
-97.389700
11
215.012000
21
-97.389700
0
LINE
8
Layer 1
10
215.012000
20
-97.756809
11
215.256740
21
-97.843350
0
LINE
8
Layer 1
10
215.256740
20
-97.843350
11
215.361470
21
-98.106279
0
LINE
8
Layer 1
10
215.361470
20
-98.106279
11
215.256740
21
-98.369208
0
LINE
8
Layer 1
10
215.256740
20
-98.369208
11
215.012000
21
-98.456301
0
LINE
8
Layer 1
10
215.012000
20
-98.456301
11
214.767260
21
-98.369208
0
LINE
8
Layer 1
10
214.767260
20
-98.369208
11
214.661977
21
-98.106279
0
LINE
8
Layer 1
10
214.661977
20
-98.106279
11
214.767260
21
-97.843350
0
LINE
8
Layer 1
10
214.767260
20
-97.843350
11
215.012000
21
-97.756809
0
LINE
8
Layer 1
10
215.012000
20
-97.756809
11
215.012000
21
-97.756809
0
LINE
8
Layer 1
10
215.012000
20
-86.552200
11
214.523073
21
-86.731896
0
LINE
8
Layer 1
10
214.523073
20
-86.731896
11
214.294868
21
-87.268778
0
LINE
8
Layer 1
10
214.294868
20
-87.268778
11
214.523073
21
-87.806213
0
LINE
8
Layer 1
10
214.523073
20
-87.806213
11
215.012000
21
-87.985909
0
LINE
8
Layer 1
10
215.012000
20
-87.985909
11
215.500377
21
-87.806213
0
LINE
8
Layer 1
10
215.500377
20
-87.806213
11
215.728579
21
-87.268778
0
LINE
8
Layer 1
10
215.728579
20
-87.268778
11
215.500377
21
-86.731896
0
LINE
8
Layer 1
10
215.500377
20
-86.731896
11
215.012000
21
-86.552200
0
LINE
8
Layer 1
10
215.012000
20
-86.552200
11
215.012000
21
-86.552200
0
LINE
8
Layer 1
10
215.012000
20
-86.919309
11
215.256740
21
-87.006403
0
LINE
8
Layer 1
10
215.256740
20
-87.006403
11
215.361470
21
-87.268779
0
LINE
8
Layer 1
10
215.361470
20
-87.268779
11
215.256740
21
-87.531708
0
LINE
8
Layer 1
10
215.256740
20
-87.531708
11
215.012000
21
-87.618801
0
LINE
8
Layer 1
10
215.012000
20
-87.618801
11
214.767260
21
-87.531708
0
LINE
8
Layer 1
10
214.767260
20
-87.531708
11
214.661977
21
-87.268779
0
LINE
8
Layer 1
10
214.661977
20
-87.268779
11
214.767260
21
-87.006403
0
LINE
8
Layer 1
10
214.767260
20
-87.006403
11
215.012000
21
-86.919309
0
LINE
8
Layer 1
10
215.012000
20
-86.919309
11
215.012000
21
-86.919309
0
LINE
8
Layer 1
10
205.064000
20
-111.388000
11
204.575623
21
-111.567696
0
LINE
8
Layer 1
10
204.575623
20
-111.567696
11
204.347421
21
-112.104581
0
LINE
8
Layer 1
10
204.347421
20
-112.104581
11
204.575623
21
-112.642014
0
LINE
8
Layer 1
10
204.575623
20
-112.642014
11
205.064000
21
-112.821710
0
LINE
8
Layer 1
10
205.064000
20
-112.821710
11
205.552377
21
-112.642014
0
LINE
8
Layer 1
10
205.552377
20
-112.642014
11
205.780579
21
-112.104581
0
LINE
8
Layer 1
10
205.780579
20
-112.104581
11
205.552377
21
-111.567696
0
LINE
8
Layer 1
10
205.552377
20
-111.567696
11
205.064000
21
-111.388000
0
LINE
8
Layer 1
10
205.064000
20
-111.388000
11
205.064000
21
-111.388000
0
LINE
8
Layer 1
10
205.064000
20
-111.755109
11
205.308740
21
-111.841652
0
LINE
8
Layer 1
10
205.308740
20
-111.841652
11
205.414020
21
-112.104581
0
LINE
8
Layer 1
10
205.414020
20
-112.104581
11
205.308740
21
-112.367510
0
LINE
8
Layer 1
10
205.308740
20
-112.367510
11
205.064000
21
-112.454601
0
LINE
8
Layer 1
10
205.064000
20
-112.454601
11
204.819260
21
-112.367510
0
LINE
8
Layer 1
10
204.819260
20
-112.367510
11
204.713977
21
-112.104581
0
LINE
8
Layer 1
10
204.713977
20
-112.104581
11
204.819260
21
-111.841652
0
LINE
8
Layer 1
10
204.819260
20
-111.841652
11
205.064000
21
-111.755109
0
LINE
8
Layer 1
10
205.064000
20
-111.755109
11
205.064000
21
-111.755109
0
LINE
8
Layer 1
10
207.773000
20
-111.387000
11
207.284073
21
-111.567247
0
LINE
8
Layer 1
10
207.284073
20
-111.567247
11
207.056421
21
-112.105233
0
LINE
8
Layer 1
10
207.056421
20
-112.105233
11
207.284073
21
-112.642668
0
LINE
8
Layer 1
10
207.284073
20
-112.642668
11
207.773000
21
-112.822915
0
LINE
8
Layer 1
10
207.773000
20
-112.822915
11
208.262477
21
-112.642668
0
LINE
8
Layer 1
10
208.262477
20
-112.642668
11
208.490129
21
-112.104682
0
LINE
8
Layer 1
10
208.490129
20
-112.104682
11
208.262477
21
-111.567247
0
LINE
8
Layer 1
10
208.262477
20
-111.567247
11
207.773000
21
-111.387000
0
LINE
8
Layer 1
10
207.773000
20
-111.387000
11
207.773000
21
-111.387000
0
LINE
8
Layer 1
10
207.773000
20
-111.754109
11
208.018290
21
-111.841200
0
LINE
8
Layer 1
10
208.018290
20
-111.841200
11
208.123020
21
-112.104682
0
LINE
8
Layer 1
10
208.123020
20
-112.104682
11
208.123000
21
-112.105000
0
LINE
8
Layer 1
10
208.123000
20
-112.105000
11
208.018270
21
-112.368480
0
LINE
8
Layer 1
10
208.018270
20
-112.368480
11
207.772980
21
-112.455574
0
LINE
8
Layer 1
10
207.772980
20
-112.455574
11
207.528240
21
-112.368480
0
LINE
8
Layer 1
10
207.528240
20
-112.368480
11
207.423510
21
-112.105000
0
LINE
8
Layer 1
10
207.423510
20
-112.105000
11
207.424000
21
-112.105000
0
LINE
8
Layer 1
10
207.424000
20
-112.105000
11
207.528730
21
-111.841518
0
LINE
8
Layer 1
10
207.528730
20
-111.841518
11
207.773470
21
-111.754427
0
LINE
8
Layer 1
10
207.773470
20
-111.754427
11
207.773000
21
-111.754109
0
LINE
8
Layer 1
10
213.192000
20
-111.388000
11
212.703073
21
-111.567696
0
LINE
8
Layer 1
10
212.703073
20
-111.567696
11
212.474868
21
-112.104581
0
LINE
8
Layer 1
10
212.474868
20
-112.104581
11
212.703073
21
-112.642014
0
LINE
8
Layer 1
10
212.703073
20
-112.642014
11
213.192000
21
-112.821710
0
LINE
8
Layer 1
10
213.192000
20
-112.821710
11
213.680377
21
-112.642014
0
LINE
8
Layer 1
10
213.680377
20
-112.642014
11
213.908579
21
-112.104581
0
LINE
8
Layer 1
10
213.908579
20
-112.104581
11
213.680377
21
-111.567696
0
LINE
8
Layer 1
10
213.680377
20
-111.567696
11
213.192000
21
-111.388000
0
LINE
8
Layer 1
10
213.192000
20
-111.388000
11
213.192000
21
-111.388000
0
LINE
8
Layer 1
10
213.192000
20
-111.755109
11
213.436740
21
-111.841652
0
LINE
8
Layer 1
10
213.436740
20
-111.841652
11
213.541470
21
-112.104581
0
LINE
8
Layer 1
10
213.541470
20
-112.104581
11
213.436740
21
-112.367510
0
LINE
8
Layer 1
10
213.436740
20
-112.367510
11
213.192000
21
-112.454601
0
LINE
8
Layer 1
10
213.192000
20
-112.454601
11
212.947260
21
-112.367510
0
LINE
8
Layer 1
10
212.947260
20
-112.367510
11
212.841980
21
-112.104581
0
LINE
8
Layer 1
10
212.841980
20
-112.104581
11
212.947260
21
-111.841652
0
LINE
8
Layer 1
10
212.947260
20
-111.841652
11
213.192000
21
-111.755109
0
LINE
8
Layer 1
10
213.192000
20
-111.755109
11
213.192000
21
-111.755109
0
LINE
8
Layer 1
10
210.482000
20
-111.388000
11
209.993623
21
-111.567696
0
LINE
8
Layer 1
10
209.993623
20
-111.567696
11
209.765418
21
-112.104581
0
LINE
8
Layer 1
10
209.765418
20
-112.104581
11
209.993623
21
-112.642014
0
LINE
8
Layer 1
10
209.993623
20
-112.642014
11
210.482000
21
-112.821710
0
LINE
8
Layer 1
10
210.482000
20
-112.821710
11
210.970927
21
-112.642014
0
LINE
8
Layer 1
10
210.970927
20
-112.642014
11
211.199129
21
-112.104581
0
LINE
8
Layer 1
10
211.199129
20
-112.104581
11
210.970927
21
-111.567696
0
LINE
8
Layer 1
10
210.970927
20
-111.567696
11
210.482000
21
-111.388000
0
LINE
8
Layer 1
10
210.482000
20
-111.388000
11
210.482000
21
-111.388000
0
LINE
8
Layer 1
10
210.482000
20
-111.755109
11
210.727290
21
-111.841652
0
LINE
8
Layer 1
10
210.727290
20
-111.841652
11
210.832020
21
-112.104581
0
LINE
8
Layer 1
10
210.832020
20
-112.104581
11
210.727290
21
-112.367510
0
LINE
8
Layer 1
10
210.727290
20
-112.367510
11
210.482000
21
-112.454601
0
LINE
8
Layer 1
10
210.482000
20
-112.454601
11
210.237260
21
-112.367510
0
LINE
8
Layer 1
10
210.237260
20
-112.367510
11
210.132530
21
-112.104581
0
LINE
8
Layer 1
10
210.132530
20
-112.104581
11
210.237260
21
-111.841652
0
LINE
8
Layer 1
10
210.237260
20
-111.841652
11
210.482000
21
-111.755109
0
LINE
8
Layer 1
10
210.482000
20
-111.755109
11
210.482000
21
-111.755109
0
LINE
8
Layer 1
10
224.029000
20
-111.387000
11
223.540073
21
-111.567247
0
LINE
8
Layer 1
10
223.540073
20
-111.567247
11
223.312419
21
-112.105233
0
LINE
8
Layer 1
10
223.312419
20
-112.105233
11
223.540073
21
-112.642668
0
LINE
8
Layer 1
10
223.540073
20
-112.642668
11
224.029000
21
-112.822915
0
LINE
8
Layer 1
10
224.029000
20
-112.822915
11
224.518477
21
-112.642668
0
LINE
8
Layer 1
10
224.518477
20
-112.642668
11
224.746129
21
-112.104682
0
LINE
8
Layer 1
10
224.746129
20
-112.104682
11
224.518477
21
-111.567247
0
LINE
8
Layer 1
10
224.518477
20
-111.567247
11
224.029000
21
-111.387000
0
LINE
8
Layer 1
10
224.029000
20
-111.387000
11
224.029000
21
-111.387000
0
LINE
8
Layer 1
10
224.029000
20
-111.754109
11
224.274290
21
-111.841200
0
LINE
8
Layer 1
10
224.274290
20
-111.841200
11
224.379020
21
-112.104682
0
LINE
8
Layer 1
10
224.379020
20
-112.104682
11
224.379000
21
-112.105000
0
LINE
8
Layer 1
10
224.379000
20
-112.105000
11
224.274270
21
-112.368480
0
LINE
8
Layer 1
10
224.274270
20
-112.368480
11
224.028980
21
-112.455574
0
LINE
8
Layer 1
10
224.028980
20
-112.455574
11
223.784240
21
-112.368480
0
LINE
8
Layer 1
10
223.784240
20
-112.368480
11
223.679510
21
-112.105000
0
LINE
8
Layer 1
10
223.679510
20
-112.105000
11
223.680000
21
-112.105000
0
LINE
8
Layer 1
10
223.680000
20
-112.105000
11
223.784730
21
-111.841518
0
LINE
8
Layer 1
10
223.784730
20
-111.841518
11
224.029470
21
-111.754427
0
LINE
8
Layer 1
10
224.029470
20
-111.754427
11
224.029000
21
-111.754109
0
LINE
8
Layer 1
10
221.320000
20
-111.388000
11
220.831623
21
-111.567696
0
LINE
8
Layer 1
10
220.831623
20
-111.567696
11
220.603421
21
-112.104581
0
LINE
8
Layer 1
10
220.603421
20
-112.104581
11
220.831623
21
-112.642014
0
LINE
8
Layer 1
10
220.831623
20
-112.642014
11
221.320000
21
-112.821710
0
LINE
8
Layer 1
10
221.320000
20
-112.821710
11
221.808927
21
-112.642014
0
LINE
8
Layer 1
10
221.808927
20
-112.642014
11
222.037129
21
-112.104581
0
LINE
8
Layer 1
10
222.037129
20
-112.104581
11
221.808927
21
-111.567696
0
LINE
8
Layer 1
10
221.808927
20
-111.567696
11
221.320000
21
-111.388000
0
LINE
8
Layer 1
10
221.320000
20
-111.388000
11
221.320000
21
-111.388000
0
LINE
8
Layer 1
10
221.320000
20
-111.755109
11
221.564740
21
-111.841652
0
LINE
8
Layer 1
10
221.564740
20
-111.841652
11
221.670020
21
-112.104581
0
LINE
8
Layer 1
10
221.670020
20
-112.104581
11
221.564740
21
-112.367510
0
LINE
8
Layer 1
10
221.564740
20
-112.367510
11
221.320000
21
-112.454601
0
LINE
8
Layer 1
10
221.320000
20
-112.454601
11
221.075260
21
-112.367510
0
LINE
8
Layer 1
10
221.075260
20
-112.367510
11
220.970530
21
-112.104581
0
LINE
8
Layer 1
10
220.970530
20
-112.104581
11
221.075260
21
-111.841652
0
LINE
8
Layer 1
10
221.075260
20
-111.841652
11
221.320000
21
-111.755109
0
LINE
8
Layer 1
10
221.320000
20
-111.755109
11
221.320000
21
-111.755109
0
LINE
8
Layer 1
10
218.611000
20
-111.388000
11
218.122623
21
-111.567696
0
LINE
8
Layer 1
10
218.122623
20
-111.567696
11
217.894421
21
-112.104581
0
LINE
8
Layer 1
10
217.894421
20
-112.104581
11
218.122623
21
-112.642014
0
LINE
8
Layer 1
10
218.122623
20
-112.642014
11
218.611000
21
-112.821710
0
LINE
8
Layer 1
10
218.611000
20
-112.821710
11
219.099377
21
-112.642014
0
LINE
8
Layer 1
10
219.099377
20
-112.642014
11
219.327579
21
-112.104581
0
LINE
8
Layer 1
10
219.327579
20
-112.104581
11
219.099377
21
-111.567696
0
LINE
8
Layer 1
10
219.099377
20
-111.567696
11
218.611000
21
-111.388000
0
LINE
8
Layer 1
10
218.611000
20
-111.388000
11
218.611000
21
-111.388000
0
LINE
8
Layer 1
10
218.611000
20
-111.755109
11
218.855740
21
-111.841652
0
LINE
8
Layer 1
10
218.855740
20
-111.841652
11
218.961020
21
-112.104581
0
LINE
8
Layer 1
10
218.961020
20
-112.104581
11
218.855740
21
-112.367510
0
LINE
8
Layer 1
10
218.855740
20
-112.367510
11
218.611000
21
-112.454601
0
LINE
8
Layer 1
10
218.611000
20
-112.454601
11
218.366260
21
-112.367510
0
LINE
8
Layer 1
10
218.366260
20
-112.367510
11
218.260977
21
-112.104581
0
LINE
8
Layer 1
10
218.260977
20
-112.104581
11
218.366260
21
-111.841652
0
LINE
8
Layer 1
10
218.366260
20
-111.841652
11
218.611000
21
-111.755109
0
LINE
8
Layer 1
10
218.611000
20
-111.755109
11
218.611000
21
-111.755109
0
LINE
8
Layer 1
10
215.901000
20
-111.387000
11
215.412073
21
-111.567247
0
LINE
8
Layer 1
10
215.412073
20
-111.567247
11
215.184421
21
-112.105233
0
LINE
8
Layer 1
10
215.184421
20
-112.105233
11
215.412073
21
-112.642668
0
LINE
8
Layer 1
10
215.412073
20
-112.642668
11
215.901000
21
-112.822915
0
LINE
8
Layer 1
10
215.901000
20
-112.822915
11
216.389927
21
-112.642668
0
LINE
8
Layer 1
10
216.389927
20
-112.642668
11
216.617579
21
-112.104682
0
LINE
8
Layer 1
10
216.617579
20
-112.104682
11
216.389927
21
-111.567247
0
LINE
8
Layer 1
10
216.389927
20
-111.567247
11
215.901000
21
-111.387000
0
LINE
8
Layer 1
10
215.901000
20
-111.387000
11
215.901000
21
-111.387000
0
LINE
8
Layer 1
10
215.901000
20
-111.754109
11
216.146290
21
-111.841200
0
LINE
8
Layer 1
10
216.146290
20
-111.841200
11
216.251020
21
-112.104682
0
LINE
8
Layer 1
10
216.251020
20
-112.104682
11
216.252000
21
-112.105000
0
LINE
8
Layer 1
10
216.252000
20
-112.105000
11
216.147270
21
-112.368480
0
LINE
8
Layer 1
10
216.147270
20
-112.368480
11
215.901980
21
-112.455574
0
LINE
8
Layer 1
10
215.901980
20
-112.455574
11
215.656690
21
-112.368480
0
LINE
8
Layer 1
10
215.656690
20
-112.368480
11
215.551957
21
-112.105000
0
LINE
8
Layer 1
10
215.551957
20
-112.105000
11
215.551000
21
-112.105000
0
LINE
8
Layer 1
10
215.551000
20
-112.105000
11
215.655733
21
-111.841518
0
LINE
8
Layer 1
10
215.655733
20
-111.841518
11
215.901023
21
-111.754427
0
LINE
8
Layer 1
10
215.901023
20
-111.754427
11
215.901000
21
-111.754109
0
LINE
8
Layer 1
10
-295.870000
20
172.812000
11
-295.380165
21
172.714566
0
LINE
8
Layer 1
10
-295.380165
20
172.714566
11
-294.964903
21
172.437097
0
LINE
8
Layer 1
10
-294.964903
20
172.437097
11
-294.687434
21
172.021835
0
LINE
8
Layer 1
10
-294.687434
20
172.021835
11
-294.590000
21
171.532000
0
LINE
8
Layer 1
10
-294.590000
20
171.532000
11
-294.687434
21
171.042165
0
LINE
8
Layer 1
10
-294.687434
20
171.042165
11
-294.964903
21
170.626903
0
LINE
8
Layer 1
10
-294.964903
20
170.626903
11
-295.380165
21
170.349434
0
LINE
8
Layer 1
10
-295.380165
20
170.349434
11
-295.870000
21
170.252000
0
LINE
8
Layer 1
10
-295.870000
20
170.252000
11
-296.359835
21
170.349434
0
LINE
8
Layer 1
10
-296.359835
20
170.349434
11
-296.775097
21
170.626903
0
LINE
8
Layer 1
10
-296.775097
20
170.626903
11
-297.052566
21
171.042165
0
LINE
8
Layer 1
10
-297.052566
20
171.042165
11
-297.150000
21
171.532000
0
LINE
8
Layer 1
10
-297.150000
20
171.532000
11
-297.052566
21
172.021835
0
LINE
8
Layer 1
10
-297.052566
20
172.021835
11
-296.775097
21
172.437097
0
LINE
8
Layer 1
10
-296.775097
20
172.437097
11
-296.359835
21
172.714566
0
LINE
8
Layer 1
10
-296.359835
20
172.714566
11
-295.870000
21
172.812000
0
LINE
8
Layer 1
10
-295.870000
20
172.812000
11
-295.870000
21
172.812000
0
LINE
8
Layer 1
10
-295.870000
20
183.649000
11
-295.380165
21
183.551566
0
LINE
8
Layer 1
10
-295.380165
20
183.551566
11
-294.964903
21
183.274097
0
LINE
8
Layer 1
10
-294.964903
20
183.274097
11
-294.687434
21
182.858835
0
LINE
8
Layer 1
10
-294.687434
20
182.858835
11
-294.590000
21
182.369000
0
LINE
8
Layer 1
10
-294.590000
20
182.369000
11
-294.687434
21
181.879165
0
LINE
8
Layer 1
10
-294.687434
20
181.879165
11
-294.964903
21
181.463903
0
LINE
8
Layer 1
10
-294.964903
20
181.463903
11
-295.380165
21
181.186434
0
LINE
8
Layer 1
10
-295.380165
20
181.186434
11
-295.870000
21
181.089000
0
LINE
8
Layer 1
10
-295.870000
20
181.089000
11
-296.359835
21
181.186434
0
LINE
8
Layer 1
10
-296.359835
20
181.186434
11
-296.775097
21
181.463903
0
LINE
8
Layer 1
10
-296.775097
20
181.463903
11
-297.052566
21
181.879165
0
LINE
8
Layer 1
10
-297.052566
20
181.879165
11
-297.150000
21
182.369000
0
LINE
8
Layer 1
10
-297.150000
20
182.369000
11
-297.052566
21
182.858835
0
LINE
8
Layer 1
10
-297.052566
20
182.858835
11
-296.775097
21
183.274097
0
LINE
8
Layer 1
10
-296.775097
20
183.274097
11
-296.359835
21
183.551566
0
LINE
8
Layer 1
10
-296.359835
20
183.551566
11
-295.870000
21
183.649000
0
LINE
8
Layer 1
10
-295.870000
20
183.649000
11
-295.870000
21
183.649000
0
LINE
8
Layer 1
10
-295.870000
20
180.940000
11
-295.380165
21
180.842566
0
LINE
8
Layer 1
10
-295.380165
20
180.842566
11
-294.964903
21
180.565097
0
LINE
8
Layer 1
10
-294.964903
20
180.565097
11
-294.687434
21
180.149835
0
LINE
8
Layer 1
10
-294.687434
20
180.149835
11
-294.590000
21
179.660000
0
LINE
8
Layer 1
10
-294.590000
20
179.660000
11
-294.687434
21
179.170165
0
LINE
8
Layer 1
10
-294.687434
20
179.170165
11
-294.964903
21
178.754903
0
LINE
8
Layer 1
10
-294.964903
20
178.754903
11
-295.380165
21
178.477434
0
LINE
8
Layer 1
10
-295.380165
20
178.477434
11
-295.870000
21
178.380000
0
LINE
8
Layer 1
10
-295.870000
20
178.380000
11
-296.359835
21
178.477434
0
LINE
8
Layer 1
10
-296.359835
20
178.477434
11
-296.775097
21
178.754903
0
LINE
8
Layer 1
10
-296.775097
20
178.754903
11
-297.052566
21
179.170165
0
LINE
8
Layer 1
10
-297.052566
20
179.170165
11
-297.150000
21
179.660000
0
LINE
8
Layer 1
10
-297.150000
20
179.660000
11
-297.052566
21
180.149835
0
LINE
8
Layer 1
10
-297.052566
20
180.149835
11
-296.775097
21
180.565097
0
LINE
8
Layer 1
10
-296.775097
20
180.565097
11
-296.359835
21
180.842566
0
LINE
8
Layer 1
10
-296.359835
20
180.842566
11
-295.870000
21
180.940000
0
LINE
8
Layer 1
10
-295.870000
20
180.940000
11
-295.870000
21
180.940000
0
LINE
8
Layer 1
10
-295.870000
20
175.521000
11
-295.380165
21
175.423566
0
LINE
8
Layer 1
10
-295.380165
20
175.423566
11
-294.964903
21
175.146097
0
LINE
8
Layer 1
10
-294.964903
20
175.146097
11
-294.687434
21
174.730835
0
LINE
8
Layer 1
10
-294.687434
20
174.730835
11
-294.590000
21
174.241000
0
LINE
8
Layer 1
10
-294.590000
20
174.241000
11
-294.687434
21
173.751165
0
LINE
8
Layer 1
10
-294.687434
20
173.751165
11
-294.964903
21
173.335903
0
LINE
8
Layer 1
10
-294.964903
20
173.335903
11
-295.380165
21
173.058434
0
LINE
8
Layer 1
10
-295.380165
20
173.058434
11
-295.870000
21
172.961000
0
LINE
8
Layer 1
10
-295.870000
20
172.961000
11
-296.359835
21
173.058434
0
LINE
8
Layer 1
10
-296.359835
20
173.058434
11
-296.775097
21
173.335903
0
LINE
8
Layer 1
10
-296.775097
20
173.335903
11
-297.052566
21
173.751165
0
LINE
8
Layer 1
10
-297.052566
20
173.751165
11
-297.150000
21
174.241000
0
LINE
8
Layer 1
10
-297.150000
20
174.241000
11
-297.052566
21
174.730835
0
LINE
8
Layer 1
10
-297.052566
20
174.730835
11
-296.775097
21
175.146097
0
LINE
8
Layer 1
10
-296.775097
20
175.146097
11
-296.359835
21
175.423566
0
LINE
8
Layer 1
10
-296.359835
20
175.423566
11
-295.870000
21
175.521000
0
LINE
8
Layer 1
10
-295.870000
20
175.521000
11
-295.870000
21
175.521000
0
LINE
8
Layer 1
10
-295.870000
20
178.231000
11
-295.380165
21
178.133566
0
LINE
8
Layer 1
10
-295.380165
20
178.133566
11
-294.964903
21
177.856097
0
LINE
8
Layer 1
10
-294.964903
20
177.856097
11
-294.687434
21
177.440835
0
LINE
8
Layer 1
10
-294.687434
20
177.440835
11
-294.590000
21
176.951000
0
LINE
8
Layer 1
10
-294.590000
20
176.951000
11
-294.687434
21
176.461165
0
LINE
8
Layer 1
10
-294.687434
20
176.461165
11
-294.964903
21
176.045903
0
LINE
8
Layer 1
10
-294.964903
20
176.045903
11
-295.380165
21
175.768434
0
LINE
8
Layer 1
10
-295.380165
20
175.768434
11
-295.870000
21
175.671000
0
LINE
8
Layer 1
10
-295.870000
20
175.671000
11
-296.359835
21
175.768434
0
LINE
8
Layer 1
10
-296.359835
20
175.768434
11
-296.775097
21
176.045903
0
LINE
8
Layer 1
10
-296.775097
20
176.045903
11
-297.052566
21
176.461165
0
LINE
8
Layer 1
10
-297.052566
20
176.461165
11
-297.150000
21
176.951000
0
LINE
8
Layer 1
10
-297.150000
20
176.951000
11
-297.052566
21
177.440835
0
LINE
8
Layer 1
10
-297.052566
20
177.440835
11
-296.775097
21
177.856097
0
LINE
8
Layer 1
10
-296.775097
20
177.856097
11
-296.359835
21
178.133566
0
LINE
8
Layer 1
10
-296.359835
20
178.133566
11
-295.870000
21
178.231000
0
LINE
8
Layer 1
10
-295.870000
20
178.231000
11
-295.870000
21
178.231000
0
LINE
8
Layer 1
10
11.461200
20
72.417000
11
11.362007
21
72.177527
0
LINE
8
Layer 1
10
11.362007
20
72.177527
11
11.122534
21
72.078334
0
LINE
8
Layer 1
10
11.122534
20
72.078334
11
10.883061
21
72.177527
0
LINE
8
Layer 1
10
10.883061
20
72.177527
11
10.783868
21
72.417000
0
LINE
8
Layer 1
10
10.783868
20
72.417000
11
10.883061
21
72.656473
0
LINE
8
Layer 1
10
10.883061
20
72.656473
11
11.122534
21
72.755666
0
LINE
8
Layer 1
10
11.122534
20
72.755666
11
11.362007
21
72.656473
0
LINE
8
Layer 1
10
11.362007
20
72.656473
11
11.461200
21
72.417000
0
LINE
8
Layer 1
10
11.461200
20
72.417000
11
11.461200
21
72.417000
0
LINE
8
Layer 1
10
9.310660
20
72.417000
11
9.211467
21
72.177527
0
LINE
8
Layer 1
10
9.211467
20
72.177527
11
8.971993
21
72.078334
0
LINE
8
Layer 1
10
8.971993
20
72.078334
11
8.732520
21
72.177527
0
LINE
8
Layer 1
10
8.732520
20
72.177527
11
8.633327
21
72.417000
0
LINE
8
Layer 1
10
8.633327
20
72.417000
11
8.732520
21
72.656473
0
LINE
8
Layer 1
10
8.732520
20
72.656473
11
8.971993
21
72.755666
0
LINE
8
Layer 1
10
8.971993
20
72.755666
11
9.211467
21
72.656473
0
LINE
8
Layer 1
10
9.211467
20
72.656473
11
9.310660
21
72.417000
0
LINE
8
Layer 1
10
9.310660
20
72.417000
11
9.310660
21
72.417000
0
LINE
8
Layer 1
10
14.328600
20
72.417000
11
14.229407
21
72.177527
0
LINE
8
Layer 1
10
14.229407
20
72.177527
11
13.989934
21
72.078334
0
LINE
8
Layer 1
10
13.989934
20
72.078334
11
13.750461
21
72.177527
0
LINE
8
Layer 1
10
13.750461
20
72.177527
11
13.651268
21
72.417000
0
LINE
8
Layer 1
10
13.651268
20
72.417000
11
13.750461
21
72.656473
0
LINE
8
Layer 1
10
13.750461
20
72.656473
11
13.989934
21
72.755666
0
LINE
8
Layer 1
10
13.989934
20
72.755666
11
14.229407
21
72.656473
0
LINE
8
Layer 1
10
14.229407
20
72.656473
11
14.328600
21
72.417000
0
LINE
8
Layer 1
10
14.328600
20
72.417000
11
14.328600
21
72.417000
0
LINE
8
Layer 1
10
13.611700
20
72.417000
11
13.512507
21
72.177527
0
LINE
8
Layer 1
10
13.512507
20
72.177527
11
13.273034
21
72.078334
0
LINE
8
Layer 1
10
13.273034
20
72.078334
11
13.033561
21
72.177527
0
LINE
8
Layer 1
10
13.033561
20
72.177527
11
12.934368
21
72.417000
0
LINE
8
Layer 1
10
12.934368
20
72.417000
11
13.033561
21
72.656473
0
LINE
8
Layer 1
10
13.033561
20
72.656473
11
13.273034
21
72.755666
0
LINE
8
Layer 1
10
13.273034
20
72.755666
11
13.512507
21
72.656473
0
LINE
8
Layer 1
10
13.512507
20
72.656473
11
13.611700
21
72.417000
0
LINE
8
Layer 1
10
13.611700
20
72.417000
11
13.611700
21
72.417000
0
LINE
8
Layer 1
10
12.178000
20
72.417000
11
12.078807
21
72.177527
0
LINE
8
Layer 1
10
12.078807
20
72.177527
11
11.839334
21
72.078334
0
LINE
8
Layer 1
10
11.839334
20
72.078334
11
11.599861
21
72.177527
0
LINE
8
Layer 1
10
11.599861
20
72.177527
11
11.500668
21
72.417000
0
LINE
8
Layer 1
10
11.500668
20
72.417000
11
11.599861
21
72.656473
0
LINE
8
Layer 1
10
11.599861
20
72.656473
11
11.839334
21
72.755666
0
LINE
8
Layer 1
10
11.839334
20
72.755666
11
12.078807
21
72.656473
0
LINE
8
Layer 1
10
12.078807
20
72.656473
11
12.178000
21
72.417000
0
LINE
8
Layer 1
10
12.178000
20
72.417000
11
12.178000
21
72.417000
0
LINE
8
Layer 1
10
10.744400
20
72.417000
11
10.645207
21
72.177527
0
LINE
8
Layer 1
10
10.645207
20
72.177527
11
10.405734
21
72.078334
0
LINE
8
Layer 1
10
10.405734
20
72.078334
11
10.166261
21
72.177527
0
LINE
8
Layer 1
10
10.166261
20
72.177527
11
10.067068
21
72.417000
0
LINE
8
Layer 1
10
10.067068
20
72.417000
11
10.166261
21
72.656473
0
LINE
8
Layer 1
10
10.166261
20
72.656473
11
10.405734
21
72.755666
0
LINE
8
Layer 1
10
10.405734
20
72.755666
11
10.645207
21
72.656473
0
LINE
8
Layer 1
10
10.645207
20
72.656473
11
10.744400
21
72.417000
0
LINE
8
Layer 1
10
10.744400
20
72.417000
11
10.744400
21
72.417000
0
LINE
8
Layer 1
10
12.894900
20
72.417000
11
12.795707
21
72.177527
0
LINE
8
Layer 1
10
12.795707
20
72.177527
11
12.556234
21
72.078334
0
LINE
8
Layer 1
10
12.556234
20
72.078334
11
12.316761
21
72.177527
0
LINE
8
Layer 1
10
12.316761
20
72.177527
11
12.217568
21
72.417000
0
LINE
8
Layer 1
10
12.217568
20
72.417000
11
12.316761
21
72.656473
0
LINE
8
Layer 1
10
12.316761
20
72.656473
11
12.556234
21
72.755666
0
LINE
8
Layer 1
10
12.556234
20
72.755666
11
12.795707
21
72.656473
0
LINE
8
Layer 1
10
12.795707
20
72.656473
11
12.894900
21
72.417000
0
LINE
8
Layer 1
10
12.894900
20
72.417000
11
12.894900
21
72.417000
0
LINE
8
Layer 1
10
10.027500
20
72.417000
11
9.928307
21
72.177527
0
LINE
8
Layer 1
10
9.928307
20
72.177527
11
9.688834
21
72.078334
0
LINE
8
Layer 1
10
9.688834
20
72.078334
11
9.449361
21
72.177527
0
LINE
8
Layer 1
10
9.449361
20
72.177527
11
9.350168
21
72.417000
0
LINE
8
Layer 1
10
9.350168
20
72.417000
11
9.449361
21
72.656473
0
LINE
8
Layer 1
10
9.449361
20
72.656473
11
9.688834
21
72.755666
0
LINE
8
Layer 1
10
9.688834
20
72.755666
11
9.928307
21
72.656473
0
LINE
8
Layer 1
10
9.928307
20
72.656473
11
10.027500
21
72.417000
0
LINE
8
Layer 1
10
10.027500
20
72.417000
11
10.027500
21
72.417000
0
LINE
8
Layer 1
10
194.892000
20
-160.600000
11
194.794566
21
-161.089835
0
LINE
8
Layer 1
10
194.794566
20
-161.089835
11
194.517097
21
-161.505097
0
LINE
8
Layer 1
10
194.517097
20
-161.505097
11
194.101835
21
-161.782566
0
LINE
8
Layer 1
10
194.101835
20
-161.782566
11
193.612000
21
-161.880000
0
LINE
8
Layer 1
10
193.612000
20
-161.880000
11
193.122165
21
-161.782566
0
LINE
8
Layer 1
10
193.122165
20
-161.782566
11
192.706903
21
-161.505097
0
LINE
8
Layer 1
10
192.706903
20
-161.505097
11
192.429434
21
-161.089835
0
LINE
8
Layer 1
10
192.429434
20
-161.089835
11
192.332000
21
-160.600000
0
LINE
8
Layer 1
10
192.332000
20
-160.600000
11
192.429434
21
-160.110165
0
LINE
8
Layer 1
10
192.429434
20
-160.110165
11
192.706903
21
-159.694903
0
LINE
8
Layer 1
10
192.706903
20
-159.694903
11
193.122165
21
-159.417434
0
LINE
8
Layer 1
10
193.122165
20
-159.417434
11
193.612000
21
-159.320000
0
LINE
8
Layer 1
10
193.612000
20
-159.320000
11
194.101835
21
-159.417434
0
LINE
8
Layer 1
10
194.101835
20
-159.417434
11
194.517097
21
-159.694903
0
LINE
8
Layer 1
10
194.517097
20
-159.694903
11
194.794566
21
-160.110165
0
LINE
8
Layer 1
10
194.794566
20
-160.110165
11
194.892000
21
-160.600000
0
LINE
8
Layer 1
10
194.892000
20
-160.600000
11
194.892000
21
-160.600000
0
LINE
8
Layer 1
10
205.729000
20
-160.600000
11
205.631566
21
-161.089835
0
LINE
8
Layer 1
10
205.631566
20
-161.089835
11
205.354097
21
-161.505097
0
LINE
8
Layer 1
10
205.354097
20
-161.505097
11
204.938835
21
-161.782566
0
LINE
8
Layer 1
10
204.938835
20
-161.782566
11
204.449000
21
-161.880000
0
LINE
8
Layer 1
10
204.449000
20
-161.880000
11
203.959165
21
-161.782566
0
LINE
8
Layer 1
10
203.959165
20
-161.782566
11
203.543903
21
-161.505097
0
LINE
8
Layer 1
10
203.543903
20
-161.505097
11
203.266434
21
-161.089835
0
LINE
8
Layer 1
10
203.266434
20
-161.089835
11
203.169000
21
-160.600000
0
LINE
8
Layer 1
10
203.169000
20
-160.600000
11
203.266434
21
-160.110165
0
LINE
8
Layer 1
10
203.266434
20
-160.110165
11
203.543903
21
-159.694903
0
LINE
8
Layer 1
10
203.543903
20
-159.694903
11
203.959165
21
-159.417434
0
LINE
8
Layer 1
10
203.959165
20
-159.417434
11
204.449000
21
-159.320000
0
LINE
8
Layer 1
10
204.449000
20
-159.320000
11
204.938835
21
-159.417434
0
LINE
8
Layer 1
10
204.938835
20
-159.417434
11
205.354097
21
-159.694903
0
LINE
8
Layer 1
10
205.354097
20
-159.694903
11
205.631566
21
-160.110165
0
LINE
8
Layer 1
10
205.631566
20
-160.110165
11
205.729000
21
-160.600000
0
LINE
8
Layer 1
10
205.729000
20
-160.600000
11
205.729000
21
-160.600000
0
LINE
8
Layer 1
10
203.020000
20
-160.600000
11
202.922566
21
-161.089835
0
LINE
8
Layer 1
10
202.922566
20
-161.089835
11
202.645097
21
-161.505097
0
LINE
8
Layer 1
10
202.645097
20
-161.505097
11
202.229835
21
-161.782566
0
LINE
8
Layer 1
10
202.229835
20
-161.782566
11
201.740000
21
-161.880000
0
LINE
8
Layer 1
10
201.740000
20
-161.880000
11
201.250165
21
-161.782566
0
LINE
8
Layer 1
10
201.250165
20
-161.782566
11
200.834903
21
-161.505097
0
LINE
8
Layer 1
10
200.834903
20
-161.505097
11
200.557434
21
-161.089835
0
LINE
8
Layer 1
10
200.557434
20
-161.089835
11
200.460000
21
-160.600000
0
LINE
8
Layer 1
10
200.460000
20
-160.600000
11
200.557434
21
-160.110165
0
LINE
8
Layer 1
10
200.557434
20
-160.110165
11
200.834903
21
-159.694903
0
LINE
8
Layer 1
10
200.834903
20
-159.694903
11
201.250165
21
-159.417434
0
LINE
8
Layer 1
10
201.250165
20
-159.417434
11
201.740000
21
-159.320000
0
LINE
8
Layer 1
10
201.740000
20
-159.320000
11
202.229835
21
-159.417434
0
LINE
8
Layer 1
10
202.229835
20
-159.417434
11
202.645097
21
-159.694903
0
LINE
8
Layer 1
10
202.645097
20
-159.694903
11
202.922566
21
-160.110165
0
LINE
8
Layer 1
10
202.922566
20
-160.110165
11
203.020000
21
-160.600000
0
LINE
8
Layer 1
10
203.020000
20
-160.600000
11
203.020000
21
-160.600000
0
LINE
8
Layer 1
10
197.601000
20
-160.600000
11
197.503566
21
-161.089835
0
LINE
8
Layer 1
10
197.503566
20
-161.089835
11
197.226097
21
-161.505097
0
LINE
8
Layer 1
10
197.226097
20
-161.505097
11
196.810835
21
-161.782566
0
LINE
8
Layer 1
10
196.810835
20
-161.782566
11
196.321000
21
-161.880000
0
LINE
8
Layer 1
10
196.321000
20
-161.880000
11
195.831165
21
-161.782566
0
LINE
8
Layer 1
10
195.831165
20
-161.782566
11
195.415903
21
-161.505097
0
LINE
8
Layer 1
10
195.415903
20
-161.505097
11
195.138434
21
-161.089835
0
LINE
8
Layer 1
10
195.138434
20
-161.089835
11
195.041000
21
-160.600000
0
LINE
8
Layer 1
10
195.041000
20
-160.600000
11
195.138434
21
-160.110165
0
LINE
8
Layer 1
10
195.138434
20
-160.110165
11
195.415903
21
-159.694903
0
LINE
8
Layer 1
10
195.415903
20
-159.694903
11
195.831165
21
-159.417434
0
LINE
8
Layer 1
10
195.831165
20
-159.417434
11
196.321000
21
-159.320000
0
LINE
8
Layer 1
10
196.321000
20
-159.320000
11
196.810835
21
-159.417434
0
LINE
8
Layer 1
10
196.810835
20
-159.417434
11
197.226097
21
-159.694903
0
LINE
8
Layer 1
10
197.226097
20
-159.694903
11
197.503566
21
-160.110165
0
LINE
8
Layer 1
10
197.503566
20
-160.110165
11
197.601000
21
-160.600000
0
LINE
8
Layer 1
10
197.601000
20
-160.600000
11
197.601000
21
-160.600000
0
LINE
8
Layer 1
10
192.182000
20
-160.600000
11
192.084566
21
-161.089835
0
LINE
8
Layer 1
10
192.084566
20
-161.089835
11
191.807097
21
-161.505097
0
LINE
8
Layer 1
10
191.807097
20
-161.505097
11
191.391835
21
-161.782566
0
LINE
8
Layer 1
10
191.391835
20
-161.782566
11
190.902000
21
-161.880000
0
LINE
8
Layer 1
10
190.902000
20
-161.880000
11
190.412165
21
-161.782566
0
LINE
8
Layer 1
10
190.412165
20
-161.782566
11
189.996903
21
-161.505097
0
LINE
8
Layer 1
10
189.996903
20
-161.505097
11
189.719434
21
-161.089835
0
LINE
8
Layer 1
10
189.719434
20
-161.089835
11
189.622000
21
-160.600000
0
LINE
8
Layer 1
10
189.622000
20
-160.600000
11
189.719434
21
-160.110165
0
LINE
8
Layer 1
10
189.719434
20
-160.110165
11
189.996903
21
-159.694903
0
LINE
8
Layer 1
10
189.996903
20
-159.694903
11
190.412165
21
-159.417434
0
LINE
8
Layer 1
10
190.412165
20
-159.417434
11
190.902000
21
-159.320000
0
LINE
8
Layer 1
10
190.902000
20
-159.320000
11
191.391835
21
-159.417434
0
LINE
8
Layer 1
10
191.391835
20
-159.417434
11
191.807097
21
-159.694903
0
LINE
8
Layer 1
10
191.807097
20
-159.694903
11
192.084566
21
-160.110165
0
LINE
8
Layer 1
10
192.084566
20
-160.110165
11
192.182000
21
-160.600000
0
LINE
8
Layer 1
10
192.182000
20
-160.600000
11
192.182000
21
-160.600000
0
LINE
8
Layer 1
10
200.310000
20
-160.600000
11
200.212566
21
-161.089835
0
LINE
8
Layer 1
10
200.212566
20
-161.089835
11
199.935097
21
-161.505097
0
LINE
8
Layer 1
10
199.935097
20
-161.505097
11
199.519835
21
-161.782566
0
LINE
8
Layer 1
10
199.519835
20
-161.782566
11
199.030000
21
-161.880000
0
LINE
8
Layer 1
10
199.030000
20
-161.880000
11
198.540165
21
-161.782566
0
LINE
8
Layer 1
10
198.540165
20
-161.782566
11
198.124903
21
-161.505097
0
LINE
8
Layer 1
10
198.124903
20
-161.505097
11
197.847434
21
-161.089835
0
LINE
8
Layer 1
10
197.847434
20
-161.089835
11
197.750000
21
-160.600000
0
LINE
8
Layer 1
10
197.750000
20
-160.600000
11
197.847434
21
-160.110165
0
LINE
8
Layer 1
10
197.847434
20
-160.110165
11
198.124903
21
-159.694903
0
LINE
8
Layer 1
10
198.124903
20
-159.694903
11
198.540165
21
-159.417434
0
LINE
8
Layer 1
10
198.540165
20
-159.417434
11
199.030000
21
-159.320000
0
LINE
8
Layer 1
10
199.030000
20
-159.320000
11
199.519835
21
-159.417434
0
LINE
8
Layer 1
10
199.519835
20
-159.417434
11
199.935097
21
-159.694903
0
LINE
8
Layer 1
10
199.935097
20
-159.694903
11
200.212566
21
-160.110165
0
LINE
8
Layer 1
10
200.212566
20
-160.110165
11
200.310000
21
-160.600000
0
LINE
8
Layer 1
10
200.310000
20
-160.600000
11
200.310000
21
-160.600000
0
LINE
8
Layer 1
10
194.892000
20
-160.600000
11
194.794566
21
-161.089835
0
LINE
8
Layer 1
10
194.794566
20
-161.089835
11
194.517097
21
-161.505097
0
LINE
8
Layer 1
10
194.517097
20
-161.505097
11
194.101835
21
-161.782566
0
LINE
8
Layer 1
10
194.101835
20
-161.782566
11
193.612000
21
-161.880000
0
LINE
8
Layer 1
10
193.612000
20
-161.880000
11
193.122165
21
-161.782566
0
LINE
8
Layer 1
10
193.122165
20
-161.782566
11
192.706903
21
-161.505097
0
LINE
8
Layer 1
10
192.706903
20
-161.505097
11
192.429434
21
-161.089835
0
LINE
8
Layer 1
10
192.429434
20
-161.089835
11
192.332000
21
-160.600000
0
LINE
8
Layer 1
10
192.332000
20
-160.600000
11
192.429434
21
-160.110165
0
LINE
8
Layer 1
10
192.429434
20
-160.110165
11
192.706903
21
-159.694903
0
LINE
8
Layer 1
10
192.706903
20
-159.694903
11
193.122165
21
-159.417434
0
LINE
8
Layer 1
10
193.122165
20
-159.417434
11
193.612000
21
-159.320000
0
LINE
8
Layer 1
10
193.612000
20
-159.320000
11
194.101835
21
-159.417434
0
LINE
8
Layer 1
10
194.101835
20
-159.417434
11
194.517097
21
-159.694903
0
LINE
8
Layer 1
10
194.517097
20
-159.694903
11
194.794566
21
-160.110165
0
LINE
8
Layer 1
10
194.794566
20
-160.110165
11
194.892000
21
-160.600000
0
LINE
8
Layer 1
10
194.892000
20
-160.600000
11
194.892000
21
-160.600000
0
LINE
8
Layer 1
10
205.729000
20
-160.600000
11
205.631566
21
-161.089835
0
LINE
8
Layer 1
10
205.631566
20
-161.089835
11
205.354097
21
-161.505097
0
LINE
8
Layer 1
10
205.354097
20
-161.505097
11
204.938835
21
-161.782566
0
LINE
8
Layer 1
10
204.938835
20
-161.782566
11
204.449000
21
-161.880000
0
LINE
8
Layer 1
10
204.449000
20
-161.880000
11
203.959165
21
-161.782566
0
LINE
8
Layer 1
10
203.959165
20
-161.782566
11
203.543903
21
-161.505097
0
LINE
8
Layer 1
10
203.543903
20
-161.505097
11
203.266434
21
-161.089835
0
LINE
8
Layer 1
10
203.266434
20
-161.089835
11
203.169000
21
-160.600000
0
LINE
8
Layer 1
10
203.169000
20
-160.600000
11
203.266434
21
-160.110165
0
LINE
8
Layer 1
10
203.266434
20
-160.110165
11
203.543903
21
-159.694903
0
LINE
8
Layer 1
10
203.543903
20
-159.694903
11
203.959165
21
-159.417434
0
LINE
8
Layer 1
10
203.959165
20
-159.417434
11
204.449000
21
-159.320000
0
LINE
8
Layer 1
10
204.449000
20
-159.320000
11
204.938835
21
-159.417434
0
LINE
8
Layer 1
10
204.938835
20
-159.417434
11
205.354097
21
-159.694903
0
LINE
8
Layer 1
10
205.354097
20
-159.694903
11
205.631566
21
-160.110165
0
LINE
8
Layer 1
10
205.631566
20
-160.110165
11
205.729000
21
-160.600000
0
LINE
8
Layer 1
10
205.729000
20
-160.600000
11
205.729000
21
-160.600000
0
LINE
8
Layer 1
10
203.020000
20
-160.600000
11
202.922566
21
-161.089835
0
LINE
8
Layer 1
10
202.922566
20
-161.089835
11
202.645097
21
-161.505097
0
LINE
8
Layer 1
10
202.645097
20
-161.505097
11
202.229835
21
-161.782566
0
LINE
8
Layer 1
10
202.229835
20
-161.782566
11
201.740000
21
-161.880000
0
LINE
8
Layer 1
10
201.740000
20
-161.880000
11
201.250165
21
-161.782566
0
LINE
8
Layer 1
10
201.250165
20
-161.782566
11
200.834903
21
-161.505097
0
LINE
8
Layer 1
10
200.834903
20
-161.505097
11
200.557434
21
-161.089835
0
LINE
8
Layer 1
10
200.557434
20
-161.089835
11
200.460000
21
-160.600000
0
LINE
8
Layer 1
10
200.460000
20
-160.600000
11
200.557434
21
-160.110165
0
LINE
8
Layer 1
10
200.557434
20
-160.110165
11
200.834903
21
-159.694903
0
LINE
8
Layer 1
10
200.834903
20
-159.694903
11
201.250165
21
-159.417434
0
LINE
8
Layer 1
10
201.250165
20
-159.417434
11
201.740000
21
-159.320000
0
LINE
8
Layer 1
10
201.740000
20
-159.320000
11
202.229835
21
-159.417434
0
LINE
8
Layer 1
10
202.229835
20
-159.417434
11
202.645097
21
-159.694903
0
LINE
8
Layer 1
10
202.645097
20
-159.694903
11
202.922566
21
-160.110165
0
LINE
8
Layer 1
10
202.922566
20
-160.110165
11
203.020000
21
-160.600000
0
LINE
8
Layer 1
10
203.020000
20
-160.600000
11
203.020000
21
-160.600000
0
LINE
8
Layer 1
10
197.601000
20
-160.600000
11
197.503566
21
-161.089835
0
LINE
8
Layer 1
10
197.503566
20
-161.089835
11
197.226097
21
-161.505097
0
LINE
8
Layer 1
10
197.226097
20
-161.505097
11
196.810835
21
-161.782566
0
LINE
8
Layer 1
10
196.810835
20
-161.782566
11
196.321000
21
-161.880000
0
LINE
8
Layer 1
10
196.321000
20
-161.880000
11
195.831165
21
-161.782566
0
LINE
8
Layer 1
10
195.831165
20
-161.782566
11
195.415903
21
-161.505097
0
LINE
8
Layer 1
10
195.415903
20
-161.505097
11
195.138434
21
-161.089835
0
LINE
8
Layer 1
10
195.138434
20
-161.089835
11
195.041000
21
-160.600000
0
LINE
8
Layer 1
10
195.041000
20
-160.600000
11
195.138434
21
-160.110165
0
LINE
8
Layer 1
10
195.138434
20
-160.110165
11
195.415903
21
-159.694903
0
LINE
8
Layer 1
10
195.415903
20
-159.694903
11
195.831165
21
-159.417434
0
LINE
8
Layer 1
10
195.831165
20
-159.417434
11
196.321000
21
-159.320000
0
LINE
8
Layer 1
10
196.321000
20
-159.320000
11
196.810835
21
-159.417434
0
LINE
8
Layer 1
10
196.810835
20
-159.417434
11
197.226097
21
-159.694903
0
LINE
8
Layer 1
10
197.226097
20
-159.694903
11
197.503566
21
-160.110165
0
LINE
8
Layer 1
10
197.503566
20
-160.110165
11
197.601000
21
-160.600000
0
LINE
8
Layer 1
10
197.601000
20
-160.600000
11
197.601000
21
-160.600000
0
LINE
8
Layer 1
10
192.182000
20
-160.600000
11
192.084566
21
-161.089835
0
LINE
8
Layer 1
10
192.084566
20
-161.089835
11
191.807097
21
-161.505097
0
LINE
8
Layer 1
10
191.807097
20
-161.505097
11
191.391835
21
-161.782566
0
LINE
8
Layer 1
10
191.391835
20
-161.782566
11
190.902000
21
-161.880000
0
LINE
8
Layer 1
10
190.902000
20
-161.880000
11
190.412165
21
-161.782566
0
LINE
8
Layer 1
10
190.412165
20
-161.782566
11
189.996903
21
-161.505097
0
LINE
8
Layer 1
10
189.996903
20
-161.505097
11
189.719434
21
-161.089835
0
LINE
8
Layer 1
10
189.719434
20
-161.089835
11
189.622000
21
-160.600000
0
LINE
8
Layer 1
10
189.622000
20
-160.600000
11
189.719434
21
-160.110165
0
LINE
8
Layer 1
10
189.719434
20
-160.110165
11
189.996903
21
-159.694903
0
LINE
8
Layer 1
10
189.996903
20
-159.694903
11
190.412165
21
-159.417434
0
LINE
8
Layer 1
10
190.412165
20
-159.417434
11
190.902000
21
-159.320000
0
LINE
8
Layer 1
10
190.902000
20
-159.320000
11
191.391835
21
-159.417434
0
LINE
8
Layer 1
10
191.391835
20
-159.417434
11
191.807097
21
-159.694903
0
LINE
8
Layer 1
10
191.807097
20
-159.694903
11
192.084566
21
-160.110165
0
LINE
8
Layer 1
10
192.084566
20
-160.110165
11
192.182000
21
-160.600000
0
LINE
8
Layer 1
10
192.182000
20
-160.600000
11
192.182000
21
-160.600000
0
LINE
8
Layer 1
10
200.310000
20
-160.600000
11
200.212566
21
-161.089835
0
LINE
8
Layer 1
10
200.212566
20
-161.089835
11
199.935097
21
-161.505097
0
LINE
8
Layer 1
10
199.935097
20
-161.505097
11
199.519835
21
-161.782566
0
LINE
8
Layer 1
10
199.519835
20
-161.782566
11
199.030000
21
-161.880000
0
LINE
8
Layer 1
10
199.030000
20
-161.880000
11
198.540165
21
-161.782566
0
LINE
8
Layer 1
10
198.540165
20
-161.782566
11
198.124903
21
-161.505097
0
LINE
8
Layer 1
10
198.124903
20
-161.505097
11
197.847434
21
-161.089835
0
LINE
8
Layer 1
10
197.847434
20
-161.089835
11
197.750000
21
-160.600000
0
LINE
8
Layer 1
10
197.750000
20
-160.600000
11
197.847434
21
-160.110165
0
LINE
8
Layer 1
10
197.847434
20
-160.110165
11
198.124903
21
-159.694903
0
LINE
8
Layer 1
10
198.124903
20
-159.694903
11
198.540165
21
-159.417434
0
LINE
8
Layer 1
10
198.540165
20
-159.417434
11
199.030000
21
-159.320000
0
LINE
8
Layer 1
10
199.030000
20
-159.320000
11
199.519835
21
-159.417434
0
LINE
8
Layer 1
10
199.519835
20
-159.417434
11
199.935097
21
-159.694903
0
LINE
8
Layer 1
10
199.935097
20
-159.694903
11
200.212566
21
-160.110165
0
LINE
8
Layer 1
10
200.212566
20
-160.110165
11
200.310000
21
-160.600000
0
LINE
8
Layer 1
10
200.310000
20
-160.600000
11
200.310000
21
-160.600000
0
LINE
8
Botom
10
41.767200
20
62.836400
11
41.747896
21
58.442120
0
LINE
8
Botom
10
41.747896
20
58.442120
11
17.790996
21
58.464170
0
LINE
8
Botom
10
17.790996
20
58.464170
11
17.791000
21
58.181900
0
LINE
8
Botom
10
17.791000
20
58.181900
11
42.029000
21
58.159300
0
LINE
8
Botom
10
42.029000
20
58.159300
11
42.049405
21
62.835260
0
LINE
8
Botom
10
42.049405
20
62.835260
11
41.767200
21
62.836400
0
LINE
8
Botom
10
44.185900
20
63.583200
11
34.611300
21
63.558946
0
LINE
8
Botom
10
34.611300
20
63.558946
11
34.605232
21
62.819767
0
LINE
8
Botom
10
34.605232
20
62.819767
11
34.887454
21
62.817565
0
LINE
8
Botom
10
34.887454
20
62.817565
11
34.891321
21
63.277278
0
LINE
8
Botom
10
34.891321
20
63.277278
11
43.903131
21
63.299879
0
LINE
8
Botom
10
43.903131
20
63.299879
11
43.883290
21
57.130129
0
LINE
8
Botom
10
43.883290
20
57.130129
11
16.651600
21
57.130200
0
LINE
8
Botom
10
16.651600
20
57.130200
11
15.896987
21
58.435480
0
LINE
8
Botom
10
15.896987
20
58.435480
11
15.652799
21
58.294369
0
LINE
8
Botom
10
15.652799
20
58.294369
11
16.488992
21
56.847979
0
LINE
8
Botom
10
16.488992
20
56.847979
11
44.164400
21
56.848000
0
LINE
8
Botom
10
44.164400
20
56.848000
11
44.185900
21
63.583200
0
LINE
8
Botom
10
40.317000
20
62.859500
11
40.315307
21
59.488270
0
LINE
8
Botom
10
40.315307
20
59.488270
11
12.144407
21
59.564338
0
LINE
8
Botom
10
12.144407
20
59.564338
11
12.106373
21
58.342298
0
LINE
8
Botom
10
12.106373
20
58.342298
11
12.388595
21
58.333478
0
LINE
8
Botom
10
12.388595
20
58.333478
11
12.417800
21
59.281600
0
LINE
8
Botom
10
12.417800
20
59.281600
11
40.597600
21
59.204981
0
LINE
8
Botom
10
40.597600
20
59.204981
11
40.599293
21
62.859531
0
LINE
8
Botom
10
40.599293
20
62.859531
11
40.317000
21
62.859500
0
LINE
8
Botom
10
39.883700
20
62.833000
11
39.601478
21
62.832436
0
LINE
8
Botom
10
39.601478
20
62.832436
11
39.608646
21
60.028406
0
LINE
8
Botom
10
39.608646
20
60.028406
11
11.438246
21
60.030071
0
LINE
8
Botom
10
11.438246
20
60.030071
11
11.438300
21
58.376500
0
LINE
8
Botom
10
11.438300
20
58.376500
11
11.720500
21
58.376500
0
LINE
8
Botom
10
11.720500
20
58.376500
11
11.720500
21
59.747900
0
LINE
8
Botom
10
11.720500
20
59.747900
11
39.892000
21
59.746235
0
LINE
8
Botom
10
39.892000
20
59.746235
11
39.883700
21
62.833000
0
LINE
8
Botom
10
39.181500
20
62.867800
11
38.899278
21
62.867236
0
LINE
8
Botom
10
38.899278
20
62.867236
11
38.901536
21
60.597336
0
LINE
8
Botom
10
38.901536
20
60.597336
11
10.653900
21
60.644200
0
LINE
8
Botom
10
10.653900
20
60.644200
11
10.653900
21
58.369900
0
LINE
8
Botom
10
10.653900
20
58.369900
11
10.936100
21
58.369900
0
LINE
8
Botom
10
10.936100
20
58.369900
11
10.936100
21
60.361900
0
LINE
8
Botom
10
10.936100
20
60.361900
11
39.184200
21
60.315047
0
LINE
8
Botom
10
39.184200
20
60.315047
11
39.181500
21
62.867800
0
LINE
8
Botom
10
38.461600
20
62.821500
11
38.179378
21
62.819299
0
LINE
8
Botom
10
38.179378
20
62.819299
11
38.195352
21
61.107229
0
LINE
8
Botom
10
38.195352
20
61.107229
11
9.961052
21
61.121010
0
LINE
8
Botom
10
9.961052
20
61.121010
11
9.960990
21
58.355000
0
LINE
8
Botom
10
9.960990
20
58.355000
11
10.243200
21
58.355000
0
LINE
8
Botom
10
10.243200
20
58.355000
11
10.243200
21
60.838200
0
LINE
8
Botom
10
10.243200
20
60.838200
11
38.479700
21
60.824972
0
LINE
8
Botom
10
38.479700
20
60.824972
11
38.461600
21
62.821500
0
LINE
8
Botom
10
37.730100
20
62.840800
11
37.447878
21
62.838599
0
LINE
8
Botom
10
37.447878
20
62.838599
11
37.457812
21
61.623719
0
LINE
8
Botom
10
37.457812
20
61.623719
11
9.217412
21
61.638050
0
LINE
8
Botom
10
9.217412
20
61.638050
11
9.217430
21
58.319200
0
LINE
8
Botom
10
9.217430
20
58.319200
11
9.499650
21
58.319200
0
LINE
8
Botom
10
9.499650
20
58.319200
11
9.499650
21
61.355200
0
LINE
8
Botom
10
9.499650
20
61.355200
11
37.742250
21
61.341419
0
LINE
8
Botom
10
37.742250
20
61.341419
11
37.730100
21
62.840800
0
LINE
8
Botom
10
37.022900
20
62.840200
11
36.740678
21
62.833585
0
LINE
8
Botom
10
36.740678
20
62.833585
11
36.756115
21
62.198034
0
LINE
8
Botom
10
36.756115
20
62.198034
11
8.426416
21
62.202445
0
LINE
8
Botom
10
8.426416
20
62.202445
11
8.449566
21
58.380325
0
LINE
8
Botom
10
8.449566
20
58.380325
11
8.731788
21
58.381990
0
LINE
8
Botom
10
8.731788
20
58.381990
11
8.710842
21
61.920240
0
LINE
8
Botom
10
8.710842
20
61.920240
11
37.044942
21
61.915829
0
LINE
8
Botom
10
37.044942
20
61.915829
11
37.022900
21
62.840200
0
LINE
8
Botom
10
9.359080
20
72.022300
11
9.076858
21
72.017889
0
LINE
8
Botom
10
9.076858
20
72.017889
11
9.100009
21
70.346609
0
LINE
8
Botom
10
9.100009
20
70.346609
11
20.620909
21
67.199169
0
LINE
8
Botom
10
20.620909
20
67.199169
11
32.464309
21
66.996873
0
LINE
8
Botom
10
32.464309
20
66.996873
11
32.469276
21
67.278544
0
LINE
8
Botom
10
32.469276
20
67.278544
11
20.661200
21
67.480900
0
LINE
8
Botom
10
20.661200
20
67.480900
11
9.378920
21
70.562700
0
LINE
8
Botom
10
9.378920
20
70.562700
11
9.359080
21
72.022300
0
LINE
8
Botom
10
8.366890
20
71.979400
11
8.366890
21
69.468600
0
LINE
8
Botom
10
8.366890
20
69.468600
11
20.560290
21
66.347620
0
LINE
8
Botom
10
20.560290
20
66.347620
11
32.657290
21
66.368016
0
LINE
8
Botom
10
32.657290
20
66.368016
11
33.396469
21
67.006874
0
LINE
8
Botom
10
33.396469
20
67.006874
11
33.212364
21
67.220746
0
LINE
8
Botom
10
33.212364
20
67.220746
11
32.552010
21
66.650238
0
LINE
8
Botom
10
32.552010
20
66.650238
11
20.595610
21
66.630395
0
LINE
8
Botom
10
20.595610
20
66.630395
11
8.649110
21
69.687985
0
LINE
8
Botom
10
8.649110
20
69.687985
11
8.649110
21
71.979400
0
LINE
8
Botom
10
8.649110
20
71.979400
11
8.366890
21
71.979400
0
LINE
8
Botom
10
9.785720
20
71.994200
11
9.779658
21
70.890120
0
LINE
8
Botom
10
9.779658
20
70.890120
11
20.751558
21
67.889860
0
LINE
8
Botom
10
20.751558
20
67.889860
11
34.669800
21
67.889900
0
LINE
8
Botom
10
34.669800
20
67.889900
11
35.368189
21
67.038824
0
LINE
8
Botom
10
35.368189
20
67.038824
11
35.586471
21
67.217969
0
LINE
8
Botom
10
35.586471
20
67.217969
11
34.803195
21
68.172122
0
LINE
8
Botom
10
34.803195
20
68.172122
11
20.789600
21
68.172100
0
LINE
8
Botom
10
20.789600
20
68.172100
11
10.063000
21
71.105100
0
LINE
8
Botom
10
10.063000
20
71.105100
11
10.067961
21
71.992556
0
LINE
8
Botom
10
10.067961
20
71.992556
11
9.785720
21
71.994200
0
LINE
8
Botom
10
10.485800
20
71.998600
11
10.485800
21
71.403300
0
LINE
8
Botom
10
10.485800
20
71.403300
11
20.957800
21
68.597070
0
LINE
8
Botom
10
20.957800
20
68.597070
11
35.370900
21
68.597100
0
LINE
8
Botom
10
35.370900
20
68.597100
11
36.038420
21
67.082360
0
LINE
8
Botom
10
36.038420
20
67.082360
11
36.296941
21
67.195910
0
LINE
8
Botom
10
36.296941
20
67.195910
11
35.554454
21
68.879320
0
LINE
8
Botom
10
35.554454
20
68.879320
11
20.995200
21
68.879300
0
LINE
8
Botom
10
20.995200
20
68.879300
11
10.768000
21
71.620000
0
LINE
8
Botom
10
10.768000
20
71.620000
11
10.768000
21
71.998600
0
LINE
8
Botom
10
10.768000
20
71.998600
11
10.485800
21
71.998600
0
LINE
8
Botom
10
6.621190
20
72.718500
11
6.617332
21
65.763820
0
LINE
8
Botom
10
6.617332
20
65.763820
11
36.286432
21
65.775947
0
LINE
8
Botom
10
36.286432
20
65.775947
11
37.026714
21
67.047047
0
LINE
8
Botom
10
37.026714
20
67.047047
11
36.783075
21
67.188709
0
LINE
8
Botom
10
36.783075
20
67.188709
11
36.124374
21
66.058169
0
LINE
8
Botom
10
36.124374
20
66.058169
11
6.899474
21
66.046042
0
LINE
8
Botom
10
6.899474
20
66.046042
11
6.903332
21
72.436272
0
LINE
8
Botom
10
6.903332
20
72.436272
11
11.255800
21
72.436300
0
LINE
8
Botom
10
11.255800
20
72.436300
11
11.255800
21
72.069800
0
LINE
8
Botom
10
11.255800
20
72.069800
11
11.538000
21
72.069800
0
LINE
8
Botom
10
11.538000
20
72.069800
11
11.538000
21
72.718500
0
LINE
8
Botom
10
11.538000
20
72.718500
11
6.621190
21
72.718500
0
LINE
8
Botom
10
5.952020
20
73.457200
11
5.986747
21
65.283790
0
LINE
8
Botom
10
5.986747
20
65.283790
11
37.061447
21
65.285455
0
LINE
8
Botom
10
37.061447
20
65.285455
11
37.740544
21
67.097845
0
LINE
8
Botom
10
37.740544
20
67.097845
11
37.476514
21
67.196513
0
LINE
8
Botom
10
37.476514
20
67.196513
11
36.865766
21
65.567123
0
LINE
8
Botom
10
36.865766
20
65.567123
11
6.267866
21
65.566022
0
LINE
8
Botom
10
6.267866
20
65.566022
11
6.235340
21
73.174900
0
LINE
8
Botom
10
6.235340
20
73.174900
11
11.958600
21
73.174900
0
LINE
8
Botom
10
11.958600
20
73.174900
11
11.958600
21
72.051600
0
LINE
8
Botom
10
11.958600
20
72.051600
11
12.240800
21
72.051600
0
LINE
8
Botom
10
12.240800
20
72.051600
11
12.240800
21
73.457200
0
LINE
8
Botom
10
12.240800
20
73.457200
11
5.952020
21
73.457200
0
LINE
8
Botom
10
5.254180
20
74.144000
11
5.260795
21
64.768940
0
LINE
8
Botom
10
5.260795
20
64.768940
11
37.728495
21
64.736970
0
LINE
8
Botom
10
37.728495
20
64.736970
11
38.452242
21
67.097270
0
LINE
8
Botom
10
38.452242
20
67.097270
11
38.182147
21
67.179952
0
LINE
8
Botom
10
38.182147
20
67.179952
11
37.520136
21
65.019742
0
LINE
8
Botom
10
37.520136
20
65.019742
11
5.543036
21
65.051161
0
LINE
8
Botom
10
5.543036
20
65.051161
11
5.536421
21
73.861781
0
LINE
8
Botom
10
5.536421
20
73.861781
11
12.683500
21
73.861800
0
LINE
8
Botom
10
12.683500
20
73.861800
11
12.683500
21
72.025100
0
LINE
8
Botom
10
12.683500
20
72.025100
11
12.965700
21
72.025100
0
LINE
8
Botom
10
12.965700
20
72.025100
11
12.965700
21
74.144000
0
LINE
8
Botom
10
12.965700
20
74.144000
11
5.254180
21
74.144000
0
LINE
8
Botom
10
4.582800
20
74.670400
11
4.593270
21
64.267300
0
LINE
8
Botom
10
4.593270
20
64.267300
11
38.443400
21
64.276100
0
LINE
8
Botom
10
38.443400
20
64.276100
11
39.179822
21
67.118720
0
LINE
8
Botom
10
39.179822
20
67.118720
11
38.906419
21
67.189275
0
LINE
8
Botom
10
38.906419
20
67.189275
11
38.225100
21
64.558300
0
LINE
8
Botom
10
38.225100
20
64.558300
11
4.875500
21
64.549500
0
LINE
8
Botom
10
4.875500
20
64.549500
11
4.865020
21
74.388200
0
LINE
8
Botom
10
4.865020
20
74.388200
11
13.421000
21
74.388200
0
LINE
8
Botom
10
13.421000
20
74.388200
11
13.421000
21
72.043300
0
LINE
8
Botom
10
13.421000
20
72.043300
11
13.703200
21
72.043300
0
LINE
8
Botom
10
13.703200
20
72.043300
11
13.703200
21
74.670400
0
LINE
8
Botom
10
13.703200
20
74.670400
11
4.582800
21
74.670400
0
LINE
8
Botom
10
35.069900
20
70.507100
11
35.063296
21
69.671458
0
LINE
8
Botom
10
35.063296
20
69.671458
11
35.345518
21
69.669257
0
LINE
8
Botom
10
35.345518
20
69.669257
11
35.349921
21
70.224882
0
LINE
8
Botom
10
35.349921
20
70.224882
11
40.335100
21
70.224800
0
LINE
8
Botom
10
40.335100
20
70.224800
11
40.316925
21
67.122010
0
LINE
8
Botom
10
40.316925
20
67.122010
11
40.599147
21
67.120909
0
LINE
8
Botom
10
40.599147
20
67.120909
11
40.618451
21
70.507019
0
LINE
8
Botom
10
40.618451
20
70.507019
11
35.069900
21
70.507100
0
LINE
8
Botom
10
34.355600
20
71.165200
11
34.356729
21
69.680230
0
LINE
8
Botom
10
34.356729
20
69.680230
11
34.638951
21
69.680794
0
LINE
8
Botom
10
34.638951
20
69.680794
11
34.637822
21
70.882994
0
LINE
8
Botom
10
34.637822
20
70.882994
11
41.051700
21
70.883000
0
LINE
8
Botom
10
41.051700
20
70.883000
11
41.051700
21
67.116500
0
LINE
8
Botom
10
41.051700
20
67.116500
11
41.333900
21
67.116500
0
LINE
8
Botom
10
41.333900
20
67.116500
11
41.333900
21
71.165200
0
LINE
8
Botom
10
41.333900
20
71.165200
11
34.355600
21
71.165200
0
LINE
8
Botom
10
35.913900
20
75.389700
11
35.804759
21
73.261460
0
LINE
8
Botom
10
35.804759
20
73.261460
11
36.086981
21
73.246578
0
LINE
8
Botom
10
36.086981
20
73.246578
11
36.195569
21
75.375368
0
LINE
8
Botom
10
36.195569
20
75.375368
11
35.913900
21
75.389700
0
LINE
8
Botom
10
36.617800
20
75.385300
11
36.505902
21
73.265330
0
LINE
8
Botom
10
36.505902
20
73.265330
11
36.788124
21
73.250448
0
LINE
8
Botom
10
36.788124
20
73.250448
11
36.899469
21
75.370418
0
LINE
8
Botom
10
36.899469
20
75.370418
11
36.617800
21
75.385300
0
LINE
8
Botom
10
37.329400
20
75.367100
11
37.239002
21
73.262010
0
LINE
8
Botom
10
37.239002
20
73.262010
11
37.520674
21
73.249883
0
LINE
8
Botom
10
37.520674
20
73.249883
11
37.611072
21
75.354973
0
LINE
8
Botom
10
37.611072
20
75.354973
11
37.329400
21
75.367100
0
LINE
8
Botom
10
38.055900
20
75.373700
11
37.956129
21
73.252070
0
LINE
8
Botom
10
37.956129
20
73.252070
11
38.237801
21
73.238842
0
LINE
8
Botom
10
38.237801
20
73.238842
11
38.338122
21
75.360472
0
LINE
8
Botom
10
38.338122
20
75.360472
11
38.055900
21
75.373700
0
LINE
8
Botom
10
12.606800
20
76.713700
11
10.718900
21
76.570400
0
LINE
8
Botom
10
10.718900
20
76.570400
11
3.946700
21
76.532900
0
LINE
8
Botom
10
3.946700
20
76.532900
11
3.946700
21
63.668100
0
LINE
8
Botom
10
3.946700
20
63.668100
11
32.526100
21
63.673600
0
LINE
8
Botom
10
32.526100
20
63.673600
11
33.231105
21
62.737637
0
LINE
8
Botom
10
33.231105
20
62.737637
11
33.456552
21
62.907411
0
LINE
8
Botom
10
33.456552
20
62.907411
11
32.666661
21
63.955821
0
LINE
8
Botom
10
32.666661
20
63.955821
11
4.228961
21
63.950309
0
LINE
8
Botom
10
4.228961
20
63.950309
11
4.228920
21
76.252400
0
LINE
8
Botom
10
4.228920
20
76.252400
11
10.730500
21
76.288200
0
LINE
8
Botom
10
10.730500
20
76.288200
11
12.617300
21
76.431500
0
LINE
8
Botom
10
12.617300
20
76.431500
11
39.550200
21
76.431500
0
LINE
8
Botom
10
39.550200
20
76.431500
11
39.550200
21
74.440000
0
LINE
8
Botom
10
39.550200
20
74.440000
11
38.656100
21
74.440000
0
LINE
8
Botom
10
38.656100
20
74.440000
11
38.656100
21
73.269200
0
LINE
8
Botom
10
38.656100
20
73.269200
11
38.938400
21
73.269200
0
LINE
8
Botom
10
38.938400
20
73.269200
11
38.938400
21
74.157800
0
LINE
8
Botom
10
38.938400
20
74.157800
11
39.832400
21
74.157800
0
LINE
8
Botom
10
39.832400
20
74.157800
11
39.832400
21
76.713700
0
LINE
8
Botom
10
39.832400
20
76.713700
11
12.606800
21
76.713700
0
LINE
8
Botom
10
34.374300
20
76.558800
11
34.374300
21
73.244900
0
LINE
8
Botom
10
34.374300
20
73.244900
11
34.656500
21
73.244900
0
LINE
8
Botom
10
34.656500
20
73.244900
11
34.656500
21
76.558800
0
LINE
8
Botom
10
34.656500
20
76.558800
11
34.374300
21
76.558800
0
LINE
8
Botom
10
10.855100
20
75.823500
11
10.855100
21
75.541300
0
LINE
8
Botom
10
10.855100
20
75.541300
11
33.354600
21
75.541300
0
LINE
8
Botom
10
33.354600
20
75.541300
11
33.354600
21
72.300700
0
LINE
8
Botom
10
33.354600
20
72.300700
11
35.356000
21
72.300700
0
LINE
8
Botom
10
35.356000
20
72.300700
11
35.356000
21
73.254900
0
LINE
8
Botom
10
35.356000
20
73.254900
11
35.073800
21
73.254900
0
LINE
8
Botom
10
35.073800
20
73.254900
11
35.073800
21
72.582900
0
LINE
8
Botom
10
35.073800
20
72.582900
11
33.636800
21
72.582900
0
LINE
8
Botom
10
33.636800
20
72.582900
11
33.636800
21
75.823500
0
LINE
8
Botom
10
33.636800
20
75.823500
11
10.855100
21
75.823500
0
LINE
8
Botom
10
35.214900
20
72.582900
11
35.214900
21
72.300700
0
LINE
8
Botom
10
35.214900
20
72.300700
11
44.242200
21
72.300700
0
LINE
8
Botom
10
44.242200
20
72.300700
11
44.242200
21
64.043500
0
LINE
8
Botom
10
44.242200
20
64.043500
11
33.302200
21
64.003800
0
LINE
8
Botom
10
33.302200
20
64.003800
11
33.303329
21
63.721578
0
LINE
8
Botom
10
33.303329
20
63.721578
11
44.524429
21
63.761817
0
LINE
8
Botom
10
44.524429
20
63.761817
11
44.524400
21
72.582900
0
LINE
8
Botom
10
44.524400
20
72.582900
11
35.214900
21
72.582900
0
LINE
8
Botom
10
39.386500
20
73.251600
11
39.386500
21
72.423600
0
LINE
8
Botom
10
39.386500
20
72.423600
11
39.668700
21
72.423600
0
LINE
8
Botom
10
39.668700
20
72.423600
11
39.668700
21
73.251600
0
LINE
8
Botom
10
39.668700
20
73.251600
11
39.386500
21
73.251600
0
LINE
8
Botom
10
3.946700
20
63.809200
11
3.946700
21
59.270000
0
LINE
8
Botom
10
3.946700
20
59.270000
11
6.966800
21
59.270000
0
LINE
8
Botom
10
6.966800
20
59.270000
11
6.966800
21
57.605900
0
LINE
8
Botom
10
6.966800
20
57.605900
11
14.544400
21
57.605900
0
LINE
8
Botom
10
14.544400
20
57.605900
11
14.544400
21
58.375900
0
LINE
8
Botom
10
14.544400
20
58.375900
11
14.262100
21
58.375900
0
LINE
8
Botom
10
14.262100
20
58.375900
11
14.262100
21
57.888100
0
LINE
8
Botom
10
14.262100
20
57.888100
11
7.249030
21
57.888100
0
LINE
8
Botom
10
7.249030
20
57.888100
11
7.249030
21
59.552200
0
LINE
8
Botom
10
7.249030
20
59.552200
11
4.228920
21
59.552200
0
LINE
8
Botom
10
4.228920
20
59.552200
11
4.228920
21
63.809200
0
LINE
8
Botom
10
4.228920
20
63.809200
11
3.946700
21
63.809200
0
LINE
8
Botom
10
14.403200
20
58.517000
11
14.403200
21
58.234800
0
LINE
8
Botom
10
14.403200
20
58.234800
11
15.092800
21
58.234800
0
LINE
8
Botom
10
15.092800
20
58.234800
11
15.092800
21
58.517000
0
LINE
8
Botom
10
15.092800
20
58.517000
11
14.403200
21
58.517000
0
LINE
8
Botom
10
15.916300
20
59.130000
11
13.475520
21
59.122284
0
LINE
8
Botom
10
13.475520
20
59.122284
11
13.483236
21
58.363812
0
LINE
8
Botom
10
13.483236
20
58.363812
11
13.765458
21
58.366578
0
LINE
8
Botom
10
13.765458
20
58.366578
11
13.761047
21
58.840623
0
LINE
8
Botom
10
13.761047
20
58.840623
11
15.634077
21
58.846685
0
LINE
8
Botom
10
15.634077
20
58.846685
11
15.634100
21
58.364900
0
LINE
8
Botom
10
15.634100
20
58.364900
11
15.916300
21
58.364900
0
LINE
8
Botom
10
15.916300
20
58.364900
11
15.916300
21
59.130000
0
LINE
8
Botom
10
16.663200
20
58.479600
11
16.419012
21
58.338489
0
LINE
8
Botom
10
16.419012
20
58.338489
11
16.806516
21
57.667660
0
LINE
8
Botom
10
16.806516
20
57.667660
11
17.765100
21
57.667600
0
LINE
8
Botom
10
17.765100
20
57.667600
11
18.164179
21
58.242517
0
LINE
8
Botom
10
18.164179
20
58.242517
11
17.932117
21
58.403472
0
LINE
8
Botom
10
17.932117
20
58.403472
11
17.617373
21
57.949822
0
LINE
8
Botom
10
17.617373
20
57.949822
11
16.969100
21
57.949800
0
LINE
8
Botom
10
16.969100
20
57.949800
11
16.663200
21
58.479600
0
LINE
8
Botom
10
50.376300
20
20.295800
11
50.136827
21
20.196607
0
LINE
8
Botom
10
50.136827
20
20.196607
11
50.037634
21
19.957134
0
LINE
8
Botom
10
50.037634
20
19.957134
11
50.136827
21
19.717661
0
LINE
8
Botom
10
50.136827
20
19.717661
11
50.376300
21
19.618468
0
LINE
8
Botom
10
50.376300
20
19.618468
11
50.615773
21
19.717661
0
LINE
8
Botom
10
50.615773
20
19.717661
11
50.714966
21
19.957134
0
LINE
8
Botom
10
50.714966
20
19.957134
11
50.615773
21
20.196607
0
LINE
8
Botom
10
50.615773
20
20.196607
11
50.376300
21
20.295800
0
LINE
8
Botom
10
50.376300
20
20.295800
11
50.376300
21
20.295800
0
LINE
8
Botom
10
35.938700
20
69.835100
11
35.938700
21
69.552900
0
LINE
8
Botom
10
35.938700
20
69.552900
11
36.666300
21
69.552900
0
LINE
8
Botom
10
36.666300
20
69.552900
11
36.666300
21
69.835100
0
LINE
8
Botom
10
36.666300
20
69.835100
11
35.938700
21
69.835100
 0 
ENDSEC
 0 
EOF