<!-- Created with Inkscape (http://www.inkscape.org/) --><svg xmlns:inkscape="http://www.inkscape.org/namespaces/inkscape" xmlns:sodipodi="http://sodipodi.sourceforge.net/DTD/sodipodi-0.dtd" xmlns="http://www.w3.org/2000/svg" xmlns:svg="http://www.w3.org/2000/svg" width="210mm" height="297mm" viewBox="0 0 210 297" version="1.1" id="svg5" sodipodi:docname="PCB.tar" inkscape:version="1.1.1 (1:1.1+202109281949+c3084ef5ed)">
  <sodipodi:namedview id="namedview7" pagecolor="#ffffff" bordercolor="#666666" borderopacity="1.0" inkscape:pageshadow="2" inkscape:pageopacity="0.0" inkscape:pagecheckerboard="0" inkscape:document-units="mm" showgrid="false" inkscape:zoom="1.3273709" inkscape:cx="291.17709" inkscape:cy="247.85838" inkscape:window-width="1846" inkscape:window-height="1016" inkscape:window-x="1354" inkscape:window-y="27" inkscape:window-maximized="1" inkscape:current-layer="layer2">
    <inkscape:grid type="xygrid" id="grid2329"/>
  </sodipodi:namedview>
  <defs id="defs2">
    <marker id="DistanceX" orient="auto" refX="0.0" refY="0.0" style="overflow:visible">
      <path d="M 3,-3 L -3,3 M 0,-5 L  0,5" style="stroke:#000000; stroke-width:0.5" id="path826"/>
    </marker>
    <pattern id="Hatch" patternUnits="userSpaceOnUse" width="8" height="8" x="0" y="0">
      <path d="M8 4 l-4,4" stroke="#000000" stroke-width="0.25" linecap="square" id="path829"/>
      <path d="M6 2 l-4,4" stroke="#000000" stroke-width="0.25" linecap="square" id="path831"/>
      <path d="M4 0 l-4,4" stroke="#000000" stroke-width="0.25" linecap="square" id="path833"/>
    </pattern>
    <symbol id="*MODEL_SPACE"/>
    <symbol id="*PAPER_SPACE"/>
    <marker id="DistanceX-3" orient="auto" refX="0.0" refY="0.0" style="overflow:visible">
      <path d="M 3,-3 L -3,3 M 0,-5 L  0,5" style="stroke:#000000; stroke-width:0.5" id="path1431"/>
    </marker>
    <pattern id="Hatch-6" patternUnits="userSpaceOnUse" width="8" height="8" x="0" y="0">
      <path d="M8 4 l-4,4" stroke="#000000" stroke-width="0.25" linecap="square" id="path1434"/>
      <path d="M6 2 l-4,4" stroke="#000000" stroke-width="0.25" linecap="square" id="path1436"/>
      <path d="M4 0 l-4,4" stroke="#000000" stroke-width="0.25" linecap="square" id="path1438"/>
    </pattern>
    <symbol id="*MODEL_SPACE-7"/>
    <symbol id="*PAPER_SPACE-5"/>
    <marker id="DistanceX-35" orient="auto" refX="0.0" refY="0.0" style="overflow:visible">
      <path d="M 3,-3 L -3,3 M 0,-5 L  0,5" style="stroke:#000000; stroke-width:0.5" id="path1942"/>
    </marker>
    <pattern id="Hatch-62" patternUnits="userSpaceOnUse" width="8" height="8" x="0" y="0">
      <path d="M8 4 l-4,4" stroke="#000000" stroke-width="0.25" linecap="square" id="path1945"/>
      <path d="M6 2 l-4,4" stroke="#000000" stroke-width="0.25" linecap="square" id="path1947"/>
      <path d="M4 0 l-4,4" stroke="#000000" stroke-width="0.25" linecap="square" id="path1949"/>
    </pattern>
    <symbol id="*MODEL_SPACE-9"/>
    <symbol id="*PAPER_SPACE-1"/>
    <marker id="DistanceX-2" orient="auto" refX="0.0" refY="0.0" style="overflow:visible">
      <path d="M 3,-3 L -3,3 M 0,-5 L  0,5" style="stroke:#000000; stroke-width:0.5" id="path2060"/>
    </marker>
    <pattern id="Hatch-7" patternUnits="userSpaceOnUse" width="8" height="8" x="0" y="0">
      <path d="M8 4 l-4,4" stroke="#000000" stroke-width="0.25" linecap="square" id="path2063"/>
      <path d="M6 2 l-4,4" stroke="#000000" stroke-width="0.25" linecap="square" id="path2065"/>
      <path d="M4 0 l-4,4" stroke="#000000" stroke-width="0.25" linecap="square" id="path2067"/>
    </pattern>
    <symbol id="*MODEL_SPACE-0"/>
    <symbol id="*PAPER_SPACE-9"/>
  </defs>
  <g inkscape:groupmode="layer" id="layer4" inkscape:label="Cut" style="display:inline">
    <g inkscape:label="0" id="g1619" transform="matrix(0.26458333,0,0,0.26458333,-68.328116,-141.82804)">
      <path style="fill:none;stroke:#99724c;stroke-width:1.3" d="M 258.898,914.646 V 536.693" id="path1445"/>
      <path style="fill:none;stroke:#99724c;stroke-width:1.3" d="M 863.622,914.646 H 258.898" id="path1447"/>
      <path style="fill:none;stroke:#99724c;stroke-width:1.3" d="M 863.622,536.693 V 914.646" id="path1449"/>
      <path style="fill:none;stroke:#99724c;stroke-width:1.3" d="M 258.898,536.693 H 863.622" id="path1451"/>
      <path d="m 297.07087,566.92913 a 7.93701,7.93701 0 1 0 -15.87402,0 7.93701,7.93701 0 1 0 15.87402,0 z" style="fill:none;stroke:#99724c;stroke-width:1.3" id="path1453"/>
      <path d="m 841.32284,566.92913 a 7.93701,7.93701 0 1 0 -15.87402,0 7.93701,7.93701 0 1 0 15.87402,0 z" style="fill:none;stroke:#99724c;stroke-width:1.3" id="path1455"/>
      <path d="m 841.32284,884.40945 a 7.93701,7.93701 0 1 0 -15.87402,0 7.93701,7.93701 0 1 0 15.87402,0 z" style="fill:none;stroke:#99724c;stroke-width:1.3" id="path1457"/>
      <path d="m 297.07087,884.40945 a 7.93701,7.93701 0 1 0 -15.87402,0 7.93701,7.93701 0 1 0 15.87402,0 z" style="fill:none;stroke:#99724c;stroke-width:1.3" id="path1459"/>
      <path d="m 416.95379,649.24836 a 1.889765,1.889765 0 1 0 -3.77953,0 1.889765,1.889765 0 1 0 3.77953,0 z" style="fill:none;stroke:#99724c;stroke-width:1.3" id="path1461"/>
      <path d="m 426.55379,649.24836 a 1.889765,1.889765 0 1 0 -3.77953,0 1.889765,1.889765 0 1 0 3.77953,0 z" style="fill:none;stroke:#99724c;stroke-width:1.3" id="path1463"/>
      <path d="m 407.35378,649.24836 a 1.889764,1.889764 0 1 0 -3.77952,0 1.889764,1.889764 0 1 0 3.77952,0 z" style="fill:none;stroke:#99724c;stroke-width:1.3" id="path1465"/>
      <path d="m 397.75378,649.24836 a 1.889765,1.889765 0 1 0 -3.77953,0 1.889765,1.889765 0 1 0 3.77953,0 z" style="fill:none;stroke:#99724c;stroke-width:1.3" id="path1467"/>
      <path d="m 763.74462,625.42161 a 1.889765,1.889765 0 1 0 -3.77953,0 1.889765,1.889765 0 1 0 3.77953,0 z" style="fill:none;stroke:#99724c;stroke-width:1.3" id="path1469"/>
      <path d="m 763.74462,615.82164 a 1.889765,1.889765 0 1 0 -3.77953,0 1.889765,1.889765 0 1 0 3.77953,0 z" style="fill:none;stroke:#99724c;stroke-width:1.3" id="path1471"/>
      <path d="m 763.74462,635.02165 a 1.889765,1.889765 0 1 0 -3.77953,0 1.889765,1.889765 0 1 0 3.77953,0 z" style="fill:none;stroke:#99724c;stroke-width:1.3" id="path1473"/>
      <path d="m 763.74462,644.62165 a 1.889765,1.889765 0 1 0 -3.77953,0 1.889765,1.889765 0 1 0 3.77953,0 z" style="fill:none;stroke:#99724c;stroke-width:1.3" id="path1475"/>
      <path d="m 763.74462,606.22167 a 1.889765,1.889765 0 1 0 -3.77953,0 1.889765,1.889765 0 1 0 3.77953,0 z" style="fill:none;stroke:#99724c;stroke-width:1.3" id="path1477"/>
      <path d="m 461.38236,803.31014 a 1.889765,1.889765 0 1 0 -3.77953,0 1.889765,1.889765 0 1 0 3.77953,0 z" style="display:inline;fill:none;stroke:#99724c;stroke-width:1.3" id="path1477-2"/>
      <path d="m 728.4954,694.2233 a 1.889765,1.889765 0 1 0 -3.77953,0 1.889765,1.889765 0 1 0 3.77953,0 z" style="fill:none;stroke:#99724c;stroke-width:1.3" id="path1479"/>
      <path d="m 738.09543,694.2233 a 1.889764,1.889764 0 1 0 -3.77952,0 1.889764,1.889764 0 1 0 3.77952,0 z" style="fill:none;stroke:#99724c;stroke-width:1.3" id="path1481"/>
      <path d="m 757.29544,694.2233 a 1.889765,1.889765 0 1 0 -3.77953,0 1.889765,1.889765 0 1 0 3.77953,0 z" style="fill:none;stroke:#99724c;stroke-width:1.3" id="path1483"/>
      <path d="m 747.69541,694.2233 a 1.889765,1.889765 0 1 0 -3.77953,0 1.889765,1.889765 0 1 0 3.77953,0 z" style="fill:none;stroke:#99724c;stroke-width:1.3" id="path1485"/>
      <path d="m 795.69539,694.2233 a 1.889764,1.889764 0 1 0 -3.77952,0 1.889764,1.889764 0 1 0 3.77952,0 z" style="fill:none;stroke:#99724c;stroke-width:1.3" id="path1487"/>
      <path d="m 786.09542,694.2233 a 1.889765,1.889765 0 1 0 -3.77953,0 1.889765,1.889765 0 1 0 3.77953,0 z" style="fill:none;stroke:#99724c;stroke-width:1.3" id="path1489"/>
      <path d="m 776.49545,694.2233 a 1.889765,1.889765 0 1 0 -3.77953,0 1.889765,1.889765 0 1 0 3.77953,0 z" style="fill:none;stroke:#99724c;stroke-width:1.3" id="path1491"/>
      <path d="m 766.89541,694.2233 a 1.889764,1.889764 0 1 0 -3.77952,0 1.889764,1.889764 0 1 0 3.77952,0 z" style="fill:none;stroke:#99724c;stroke-width:1.3" id="path1493"/>
      <path d="m 678.37814,876.94111 a 1.889765,1.889765 0 1 0 -3.77953,0 1.889765,1.889765 0 1 0 3.77953,0 z" style="fill:none;stroke:#99724c;stroke-width:1.3" id="path1495"/>
      <path d="m 687.97811,876.94111 a 1.889765,1.889765 0 1 0 -3.77953,0 1.889765,1.889765 0 1 0 3.77953,0 z" style="fill:none;stroke:#99724c;stroke-width:1.3" id="path1497"/>
      <path d="m 697.57808,876.94111 a 1.889764,1.889764 0 1 0 -3.77952,0 1.889764,1.889764 0 1 0 3.77952,0 z" style="fill:none;stroke:#99724c;stroke-width:1.3" id="path1499"/>
      <path d="m 707.17812,876.94111 a 1.889765,1.889765 0 1 0 -3.77953,0 1.889765,1.889765 0 1 0 3.77953,0 z" style="fill:none;stroke:#99724c;stroke-width:1.3" id="path1501"/>
      <path d="m 726.37813,876.94111 a 1.889765,1.889765 0 1 0 -3.77953,0 1.889765,1.889765 0 1 0 3.77953,0 z" style="fill:none;stroke:#99724c;stroke-width:1.3" id="path1503"/>
      <path d="m 716.77809,876.94111 a 1.889765,1.889765 0 1 0 -3.77953,0 1.889765,1.889765 0 1 0 3.77953,0 z" style="fill:none;stroke:#99724c;stroke-width:1.3" id="path1505"/>
      <path d="m 793.28579,876.94111 a 1.889765,1.889765 0 1 0 -3.77953,0 1.889765,1.889765 0 1 0 3.77953,0 z" style="fill:none;stroke:#99724c;stroke-width:1.3" id="path1507"/>
      <path d="m 783.68575,876.94111 a 1.889764,1.889764 0 1 0 -3.77952,0 1.889764,1.889764 0 1 0 3.77952,0 z" style="fill:none;stroke:#99724c;stroke-width:1.3" id="path1509"/>
      <path d="m 774.08578,876.94111 a 1.889765,1.889765 0 1 0 -3.77953,0 1.889765,1.889765 0 1 0 3.77953,0 z" style="fill:none;stroke:#99724c;stroke-width:1.3" id="path1511"/>
      <path d="m 764.48581,876.94111 a 1.889765,1.889765 0 1 0 -3.77953,0 1.889765,1.889765 0 1 0 3.77953,0 z" style="fill:none;stroke:#99724c;stroke-width:1.3" id="path1513"/>
      <path d="m 754.88577,876.94111 a 1.889765,1.889765 0 1 0 -3.77953,0 1.889765,1.889765 0 1 0 3.77953,0 z" style="fill:none;stroke:#99724c;stroke-width:1.3" id="path1515"/>
      <path d="m 745.28574,876.94111 a 1.889765,1.889765 0 1 0 -3.77953,0 1.889765,1.889765 0 1 0 3.77953,0 z" style="fill:none;stroke:#99724c;stroke-width:1.3" id="path1517"/>
      <path d="m 379.82515,677.5144 a 1.680005,1.680005 0 1 0 -3.36001,0 1.680005,1.680005 0 1 0 3.36001,0 z" style="fill:none;stroke:#99724c;stroke-width:1.3" id="path1519"/>
      <path d="m 389.42515,677.5144 a 1.68,1.68 0 1 0 -3.36,0 1.68,1.68 0 1 0 3.36,0 z" style="fill:none;stroke:#99724c;stroke-width:1.3" id="path1521"/>
      <path d="m 399.02515,677.5144 a 1.68,1.68 0 1 0 -3.36,0 1.68,1.68 0 1 0 3.36,0 z" style="fill:none;stroke:#99724c;stroke-width:1.3" id="path1523"/>
      <path d="m 408.62513,677.5144 a 1.68,1.68 0 1 0 -3.36,0 1.68,1.68 0 1 0 3.36,0 z" style="fill:none;stroke:#99724c;stroke-width:1.3" id="path1525"/>
      <path d="m 418.22516,677.5144 a 1.68,1.68 0 1 0 -3.36,0 1.68,1.68 0 1 0 3.36,0 z" style="fill:none;stroke:#99724c;stroke-width:1.3" id="path1527"/>
      <path d="m 427.82513,677.5144 a 1.68,1.68 0 1 0 -3.36,0 1.68,1.68 0 1 0 3.36,0 z" style="fill:none;stroke:#99724c;stroke-width:1.3" id="path1529"/>
      <path d="m 437.42517,677.5144 a 1.68,1.68 0 1 0 -3.36,0 1.68,1.68 0 1 0 3.36,0 z" style="fill:none;stroke:#99724c;stroke-width:1.3" id="path1531"/>
      <path d="m 447.02514,677.5144 a 1.68,1.68 0 1 0 -3.36,0 1.68,1.68 0 1 0 3.36,0 z" style="fill:none;stroke:#99724c;stroke-width:1.3" id="path1533"/>
      <g id="g11081">
        <path d="m 379.82515,725.51439 a 1.680005,1.680005 0 1 0 -3.36001,0 1.680005,1.680005 0 1 0 3.36001,0 z" style="fill:none;stroke:#99724c;stroke-width:1.3" id="path1535"/>
        <path d="m 389.42515,725.51439 a 1.68,1.68 0 1 0 -3.36,0 1.68,1.68 0 1 0 3.36,0 z" style="fill:none;stroke:#99724c;stroke-width:1.3" id="path1537"/>
        <path d="m 399.02515,725.51439 a 1.68,1.68 0 1 0 -3.36,0 1.68,1.68 0 1 0 3.36,0 z" style="fill:none;stroke:#99724c;stroke-width:1.3" id="path1539"/>
        <path d="m 408.62513,725.51439 a 1.68,1.68 0 1 0 -3.36,0 1.68,1.68 0 1 0 3.36,0 z" style="fill:none;stroke:#99724c;stroke-width:1.3" id="path1541"/>
        <path d="m 418.22516,725.51439 a 1.68,1.68 0 1 0 -3.36,0 1.68,1.68 0 1 0 3.36,0 z" style="fill:none;stroke:#99724c;stroke-width:1.3" id="path1543"/>
        <path d="m 427.82513,725.51439 a 1.68,1.68 0 1 0 -3.36,0 1.68,1.68 0 1 0 3.36,0 z" style="fill:none;stroke:#99724c;stroke-width:1.3" id="path1545"/>
        <path d="m 437.42517,725.51439 a 1.68,1.68 0 1 0 -3.36,0 1.68,1.68 0 1 0 3.36,0 z" style="fill:none;stroke:#99724c;stroke-width:1.3" id="path1547"/>
        <path d="m 447.02514,725.51439 a 1.68,1.68 0 1 0 -3.36,0 1.68,1.68 0 1 0 3.36,0 z" style="fill:none;stroke:#99724c;stroke-width:1.3" id="path1549"/>
      </g>
      <path d="m 338.27998,817.08885 a 1.68,1.68 0 1 0 -3.36,0 1.68,1.68 0 1 0 3.36,0 z" style="fill:none;stroke:#99724c;stroke-width:1.3" id="path1537-2"/>
      <path d="m 347.87998,817.08885 a 1.68,1.68 0 1 0 -3.36,0 1.68,1.68 0 1 0 3.36,0 z" style="fill:none;stroke:#99724c;stroke-width:1.3" id="path1539-7"/>
      <path d="m 357.47998,817.08885 a 1.68,1.68 0 1 0 -3.36,0 1.68,1.68 0 1 0 3.36,0 z" style="fill:none;stroke:#99724c;stroke-width:1.3" id="path1541-0"/>
      <path d="m 367.07998,817.08885 a 1.68,1.68 0 1 0 -3.36,0 1.68,1.68 0 1 0 3.36,0 z" style="fill:none;stroke:#99724c;stroke-width:1.3" id="path1543-9"/>
      <path d="m 376.67998,817.08885 a 1.68,1.68 0 1 0 -3.36,0 1.68,1.68 0 1 0 3.36,0 z" style="fill:none;stroke:#99724c;stroke-width:1.3" id="path1545-3"/>
      <path d="m 386.27999,817.08885 a 1.68,1.68 0 1 0 -3.36,0 1.68,1.68 0 1 0 3.36,0 z" style="fill:none;stroke:#99724c;stroke-width:1.3" id="path1547-6"/>
      <path d="m 395.87998,817.08885 a 1.68,1.68 0 1 0 -3.36,0 1.68,1.68 0 1 0 3.36,0 z" style="fill:none;stroke:#99724c;stroke-width:1.3" id="path1549-0"/>
      <path d="m 405.47998,817.05196 a 1.680005,1.680005 0 1 0 -3.36001,0 1.680005,1.680005 0 1 0 3.36001,0 z" style="fill:none;stroke:#99724c;stroke-width:1.3" id="path1535-1-2"/>
      <path d="m 415.07998,817.05196 a 1.68,1.68 0 1 0 -3.36,0 1.68,1.68 0 1 0 3.36,0 z" style="fill:none;stroke:#99724c;stroke-width:1.3" id="path1537-2-6"/>
      <path d="m 424.67999,817.05196 a 1.68,1.68 0 1 0 -3.36,0 1.68,1.68 0 1 0 3.36,0 z" style="fill:none;stroke:#99724c;stroke-width:1.3" id="path1539-7-1"/>
      <path d="m 434.27997,817.05196 a 1.68,1.68 0 1 0 -3.36,0 1.68,1.68 0 1 0 3.36,0 z" style="fill:none;stroke:#99724c;stroke-width:1.3" id="path1541-0-8"/>
      <path d="m 443.87999,817.05196 a 1.68,1.68 0 1 0 -3.36,0 1.68,1.68 0 1 0 3.36,0 z" style="fill:none;stroke:#99724c;stroke-width:1.3" id="path1543-9-7"/>
      <path d="m 453.47997,817.05196 a 1.68,1.68 0 1 0 -3.36,0 1.68,1.68 0 1 0 3.36,0 z" style="fill:none;stroke:#99724c;stroke-width:1.3" id="path1545-3-9"/>
      <path d="m 463.07998,817.05196 a 1.68,1.68 0 1 0 -3.36,0 1.68,1.68 0 1 0 3.36,0 z" style="fill:none;stroke:#99724c;stroke-width:1.3" id="path1547-6-2"/>
      <path d="m 472.67997,817.05196 a 1.68,1.68 0 1 0 -3.36,0 1.68,1.68 0 1 0 3.36,0 z" style="fill:none;stroke:#99724c;stroke-width:1.3" id="path1549-0-0"/>
      <path d="m 338.1751,759.48886 a 1.68,1.68 0 1 0 -3.36,0 1.68,1.68 0 1 0 3.36,0 z" style="fill:none;stroke:#99724c;stroke-width:1.3" id="path1537-2-0"/>
      <path d="m 347.7751,759.48886 a 1.68,1.68 0 1 0 -3.36,0 1.68,1.68 0 1 0 3.36,0 z" style="fill:none;stroke:#99724c;stroke-width:1.3" id="path1539-7-3"/>
      <path d="m 357.3751,759.48886 a 1.68,1.68 0 1 0 -3.36,0 1.68,1.68 0 1 0 3.36,0 z" style="fill:none;stroke:#99724c;stroke-width:1.3" id="path1541-0-6"/>
      <path d="m 366.9751,759.48886 a 1.68,1.68 0 1 0 -3.36,0 1.68,1.68 0 1 0 3.36,0 z" style="fill:none;stroke:#99724c;stroke-width:1.3" id="path1543-9-1"/>
      <path d="m 376.5751,759.48886 a 1.68,1.68 0 1 0 -3.36,0 1.68,1.68 0 1 0 3.36,0 z" style="fill:none;stroke:#99724c;stroke-width:1.3" id="path1545-3-0"/>
      <path d="m 386.17511,759.48886 a 1.68,1.68 0 1 0 -3.36,0 1.68,1.68 0 1 0 3.36,0 z" style="fill:none;stroke:#99724c;stroke-width:1.3" id="path1547-6-6"/>
      <path d="m 395.7751,759.48886 a 1.68,1.68 0 1 0 -3.36,0 1.68,1.68 0 1 0 3.36,0 z" style="fill:none;stroke:#99724c;stroke-width:1.3" id="path1549-0-3"/>
      <path d="m 405.3751,759.45197 a 1.680005,1.680005 0 1 0 -3.36001,0 1.680005,1.680005 0 1 0 3.36001,0 z" style="fill:none;stroke:#99724c;stroke-width:1.3" id="path1535-1-2-2"/>
      <path d="m 414.9751,759.45197 a 1.68,1.68 0 1 0 -3.36,0 1.68,1.68 0 1 0 3.36,0 z" style="fill:none;stroke:#99724c;stroke-width:1.3" id="path1537-2-6-0"/>
      <path d="m 424.57511,759.45197 a 1.68,1.68 0 1 0 -3.36,0 1.68,1.68 0 1 0 3.36,0 z" style="fill:none;stroke:#99724c;stroke-width:1.3" id="path1539-7-1-6"/>
      <path d="m 434.17509,759.45197 a 1.68,1.68 0 1 0 -3.36,0 1.68,1.68 0 1 0 3.36,0 z" style="fill:none;stroke:#99724c;stroke-width:1.3" id="path1541-0-8-1"/>
      <path d="m 443.77511,759.45197 a 1.68,1.68 0 1 0 -3.36,0 1.68,1.68 0 1 0 3.36,0 z" style="fill:none;stroke:#99724c;stroke-width:1.3" id="path1543-9-7-5"/>
      <path d="m 453.37509,759.45197 a 1.68,1.68 0 1 0 -3.36,0 1.68,1.68 0 1 0 3.36,0 z" style="fill:none;stroke:#99724c;stroke-width:1.3" id="path1545-3-9-5"/>
      <path d="m 462.9751,759.45197 a 1.68,1.68 0 1 0 -3.36,0 1.68,1.68 0 1 0 3.36,0 z" style="fill:none;stroke:#99724c;stroke-width:1.3" id="path1547-6-2-4"/>
      <path d="m 472.57509,759.45197 a 1.68,1.68 0 1 0 -3.36,0 1.68,1.68 0 1 0 3.36,0 z" style="fill:none;stroke:#99724c;stroke-width:1.3" id="path1549-0-0-7"/>
    </g>
  </g>
</svg>