999
"DXF R12 Output" (www.mydxf.blogspot.com)
 0 
SECTION
 2 
HEADER
 9 
$ACADVER
 1 
AC1009
 9 
$EXTMIN
 10 
 0 
 20 
 0 
 9 
$EXTMAX
 10 
 8.5 
 20 
 11 
 0 
ENDSEC
 0 
SECTION
 2 
ENTITIES
0
LINE
8
Layer 1
10
0.846666
20
84.666700
11
-0.846666
21
82.973300
0
LINE
8
Layer 1
10
0.000000
20
85.231100
11
0.000000
21
82.408900
0
LINE
8
Layer 1
10
2.257780
20
82.691100
11
1.128890
21
81.562210
0
LINE
8
Layer 1
10
1.693330
20
83.255600
11
0.564440
21
82.126710
0
LINE
8
Layer 1
10
1.128890
20
83.820000
11
0.000000
21
82.691110
0
LINE
8
Layer 1
10
0.846666
20
84.666700
11
-0.846666
21
82.973300
0
LINE
8
Layer 1
10
0.000000
20
85.231100
11
0.000000
21
82.408900
0
LINE
8
Layer 1
10
2.257780
20
82.691100
11
1.128890
21
81.562210
0
LINE
8
Layer 1
10
1.693330
20
83.255600
11
0.564440
21
82.126710
0
LINE
8
Layer 1
10
1.128890
20
83.820000
11
0.000000
21
82.691110
0
LINE
8
Layer 1
10
0.846666
20
84.666700
11
-0.846666
21
82.973300
0
LINE
8
Layer 1
10
0.000000
20
85.231100
11
0.000000
21
82.408900
0
LINE
8
Layer 1
10
2.257780
20
82.691100
11
1.128890
21
81.562210
0
LINE
8
Layer 1
10
1.693330
20
83.255600
11
0.564440
21
82.126710
0
LINE
8
Layer 1
10
1.128890
20
83.820000
11
0.000000
21
82.691110
0
LINE
8
Layer 1
10
0.846666
20
84.666700
11
-0.846666
21
82.973300
0
LINE
8
Layer 1
10
0.000000
20
85.231100
11
0.000000
21
82.408900
0
LINE
8
Layer 1
10
2.257780
20
82.691100
11
1.128890
21
81.562210
0
LINE
8
Layer 1
10
1.693330
20
83.255600
11
0.564440
21
82.126710
0
LINE
8
Layer 1
10
1.128890
20
83.820000
11
0.000000
21
82.691110
0
LINE
8
0
10
73.066700
20
-174.313000
11
73.066700
21
-67.646600
0
LINE
8
0
10
243.733000
20
-174.313000
11
73.066700
21
-174.313000
0
LINE
8
0
10
243.733000
20
-67.646600
11
243.733000
21
-174.313000
0
LINE
8
0
10
73.066700
20
-67.646600
11
243.733000
21
-67.646600
0
LINE
8
0
10
83.839900
20
-76.179900
11
83.762361
21
-75.595444
0
LINE
8
0
10
83.762361
20
-75.595444
11
83.539797
21
-75.059900
0
LINE
8
0
10
83.539797
20
-75.059900
11
83.187284
21
-74.599381
0
LINE
8
0
10
83.187284
20
-74.599381
11
82.719900
21
-74.240003
0
LINE
8
0
10
82.719900
20
-74.240003
11
82.174977
21
-74.014926
0
LINE
8
0
10
82.174977
20
-74.014926
11
81.599900
21
-73.939900
0
LINE
8
0
10
81.599900
20
-73.939900
11
81.024823
21
-74.014926
0
LINE
8
0
10
81.024823
20
-74.014926
11
80.479900
21
-74.240003
0
LINE
8
0
10
80.479900
20
-74.240003
11
80.012516
21
-74.599381
0
LINE
8
0
10
80.012516
20
-74.599381
11
79.660003
21
-75.059900
0
LINE
8
0
10
79.660003
20
-75.059900
11
79.437439
21
-75.595444
0
LINE
8
0
10
79.437439
20
-75.595444
11
79.359900
21
-76.179900
0
LINE
8
0
10
79.359900
20
-76.179900
11
79.437439
21
-76.764356
0
LINE
8
0
10
79.437439
20
-76.764356
11
79.660003
21
-77.299900
0
LINE
8
0
10
79.660003
20
-77.299900
11
80.012516
21
-77.760419
0
LINE
8
0
10
80.012516
20
-77.760419
11
80.479900
21
-78.119797
0
LINE
8
0
10
80.479900
20
-78.119797
11
81.024823
21
-78.344874
0
LINE
8
0
10
81.024823
20
-78.344874
11
81.599900
21
-78.419900
0
LINE
8
0
10
81.599900
20
-78.419900
11
82.174977
21
-78.344874
0
LINE
8
0
10
82.174977
20
-78.344874
11
82.719900
21
-78.119797
0
LINE
8
0
10
82.719900
20
-78.119797
11
83.187284
21
-77.760419
0
LINE
8
0
10
83.187284
20
-77.760419
11
83.539797
21
-77.299900
0
LINE
8
0
10
83.539797
20
-77.299900
11
83.762361
21
-76.764356
0
LINE
8
0
10
83.762361
20
-76.764356
11
83.839900
21
-76.179900
0
LINE
8
0
10
83.839900
20
-76.179900
11
83.839900
21
-76.179900
0
LINE
8
0
10
237.440000
20
-76.179900
11
237.362461
21
-75.595444
0
LINE
8
0
10
237.362461
20
-75.595444
11
237.139897
21
-75.059900
0
LINE
8
0
10
237.139897
20
-75.059900
11
236.787384
21
-74.599381
0
LINE
8
0
10
236.787384
20
-74.599381
11
236.320000
21
-74.240003
0
LINE
8
0
10
236.320000
20
-74.240003
11
235.775077
21
-74.014926
0
LINE
8
0
10
235.775077
20
-74.014926
11
235.200000
21
-73.939900
0
LINE
8
0
10
235.200000
20
-73.939900
11
234.624923
21
-74.014926
0
LINE
8
0
10
234.624923
20
-74.014926
11
234.080000
21
-74.240003
0
LINE
8
0
10
234.080000
20
-74.240003
11
233.612616
21
-74.599381
0
LINE
8
0
10
233.612616
20
-74.599381
11
233.260103
21
-75.059900
0
LINE
8
0
10
233.260103
20
-75.059900
11
233.037539
21
-75.595444
0
LINE
8
0
10
233.037539
20
-75.595444
11
232.960000
21
-76.179900
0
LINE
8
0
10
232.960000
20
-76.179900
11
233.037539
21
-76.764356
0
LINE
8
0
10
233.037539
20
-76.764356
11
233.260103
21
-77.299900
0
LINE
8
0
10
233.260103
20
-77.299900
11
233.612616
21
-77.760419
0
LINE
8
0
10
233.612616
20
-77.760419
11
234.080000
21
-78.119797
0
LINE
8
0
10
234.080000
20
-78.119797
11
234.624923
21
-78.344875
0
LINE
8
0
10
234.624923
20
-78.344875
11
235.200000
21
-78.419900
0
LINE
8
0
10
235.200000
20
-78.419900
11
235.775077
21
-78.344875
0
LINE
8
0
10
235.775077
20
-78.344875
11
236.320000
21
-78.119797
0
LINE
8
0
10
236.320000
20
-78.119797
11
236.787384
21
-77.760419
0
LINE
8
0
10
236.787384
20
-77.760419
11
237.139897
21
-77.299900
0
LINE
8
0
10
237.139897
20
-77.299900
11
237.362461
21
-76.764356
0
LINE
8
0
10
237.362461
20
-76.764356
11
237.440000
21
-76.179900
0
LINE
8
0
10
237.440000
20
-76.179900
11
237.440000
21
-76.179900
0
LINE
8
0
10
237.440000
20
-165.780000
11
237.362461
21
-165.195544
0
LINE
8
0
10
237.362461
20
-165.195544
11
237.139897
21
-164.660000
0
LINE
8
0
10
237.139897
20
-164.660000
11
236.787384
21
-164.199481
0
LINE
8
0
10
236.787384
20
-164.199481
11
236.320000
21
-163.840103
0
LINE
8
0
10
236.320000
20
-163.840103
11
235.775077
21
-163.615026
0
LINE
8
0
10
235.775077
20
-163.615026
11
235.200000
21
-163.540000
0
LINE
8
0
10
235.200000
20
-163.540000
11
234.624923
21
-163.615026
0
LINE
8
0
10
234.624923
20
-163.615026
11
234.080000
21
-163.840103
0
LINE
8
0
10
234.080000
20
-163.840103
11
233.612616
21
-164.199481
0
LINE
8
0
10
233.612616
20
-164.199481
11
233.260103
21
-164.660000
0
LINE
8
0
10
233.260103
20
-164.660000
11
233.037539
21
-165.195544
0
LINE
8
0
10
233.037539
20
-165.195544
11
232.960000
21
-165.780000
0
LINE
8
0
10
232.960000
20
-165.780000
11
233.037539
21
-166.364456
0
LINE
8
0
10
233.037539
20
-166.364456
11
233.260103
21
-166.900000
0
LINE
8
0
10
233.260103
20
-166.900000
11
233.612616
21
-167.360519
0
LINE
8
0
10
233.612616
20
-167.360519
11
234.080000
21
-167.719897
0
LINE
8
0
10
234.080000
20
-167.719897
11
234.624923
21
-167.944975
0
LINE
8
0
10
234.624923
20
-167.944975
11
235.200000
21
-168.020000
0
LINE
8
0
10
235.200000
20
-168.020000
11
235.775077
21
-167.944975
0
LINE
8
0
10
235.775077
20
-167.944975
11
236.320000
21
-167.719897
0
LINE
8
0
10
236.320000
20
-167.719897
11
236.787384
21
-167.360519
0
LINE
8
0
10
236.787384
20
-167.360519
11
237.139897
21
-166.900000
0
LINE
8
0
10
237.139897
20
-166.900000
11
237.362461
21
-166.364456
0
LINE
8
0
10
237.362461
20
-166.364456
11
237.440000
21
-165.780000
0
LINE
8
0
10
237.440000
20
-165.780000
11
237.440000
21
-165.780000
0
LINE
8
0
10
83.839900
20
-165.780000
11
83.762361
21
-165.195544
0
LINE
8
0
10
83.762361
20
-165.195544
11
83.539797
21
-164.660000
0
LINE
8
0
10
83.539797
20
-164.660000
11
83.187284
21
-164.199481
0
LINE
8
0
10
83.187284
20
-164.199481
11
82.719900
21
-163.840103
0
LINE
8
0
10
82.719900
20
-163.840103
11
82.174977
21
-163.615026
0
LINE
8
0
10
82.174977
20
-163.615026
11
81.599900
21
-163.540000
0
LINE
8
0
10
81.599900
20
-163.540000
11
81.024823
21
-163.615026
0
LINE
8
0
10
81.024823
20
-163.615026
11
80.479900
21
-163.840103
0
LINE
8
0
10
80.479900
20
-163.840103
11
80.012516
21
-164.199481
0
LINE
8
0
10
80.012516
20
-164.199481
11
79.660003
21
-164.660000
0
LINE
8
0
10
79.660003
20
-164.660000
11
79.437439
21
-165.195544
0
LINE
8
0
10
79.437439
20
-165.195544
11
79.359900
21
-165.780000
0
LINE
8
0
10
79.359900
20
-165.780000
11
79.437439
21
-166.364456
0
LINE
8
0
10
79.437439
20
-166.364456
11
79.660003
21
-166.900000
0
LINE
8
0
10
79.660003
20
-166.900000
11
80.012516
21
-167.360519
0
LINE
8
0
10
80.012516
20
-167.360519
11
80.479900
21
-167.719897
0
LINE
8
0
10
80.479900
20
-167.719897
11
81.024823
21
-167.944974
0
LINE
8
0
10
81.024823
20
-167.944974
11
81.599900
21
-168.020000
0
LINE
8
0
10
81.599900
20
-168.020000
11
82.174977
21
-167.944974
0
LINE
8
0
10
82.174977
20
-167.944974
11
82.719900
21
-167.719897
0
LINE
8
0
10
82.719900
20
-167.719897
11
83.187284
21
-167.360519
0
LINE
8
0
10
83.187284
20
-167.360519
11
83.539797
21
-166.900000
0
LINE
8
0
10
83.539797
20
-166.900000
11
83.762361
21
-166.364456
0
LINE
8
0
10
83.762361
20
-166.364456
11
83.839900
21
-165.780000
0
LINE
8
0
10
83.839900
20
-165.780000
11
83.839900
21
-165.780000
0
LINE
8
0
10
117.674000
20
-99.412200
11
117.407332
21
-98.950320
0
LINE
8
0
10
117.407332
20
-98.950320
11
116.873999
21
-98.950320
0
LINE
8
0
10
116.873999
20
-98.950320
11
116.607332
21
-99.412200
0
LINE
8
0
10
116.607332
20
-99.412200
11
116.874000
21
-99.874080
0
LINE
8
0
10
116.874000
20
-99.874080
11
117.407333
21
-99.874080
0
LINE
8
0
10
117.407333
20
-99.874080
11
117.673999
21
-99.412200
0
LINE
8
0
10
117.673999
20
-99.412200
11
117.674000
21
-99.412200
0
LINE
8
0
10
120.383000
20
-99.412200
11
120.116331
21
-98.950320
0
LINE
8
0
10
120.116331
20
-98.950320
11
119.582998
21
-98.950320
0
LINE
8
0
10
119.582998
20
-98.950320
11
119.316332
21
-99.412200
0
LINE
8
0
10
119.316332
20
-99.412200
11
119.582999
21
-99.874080
0
LINE
8
0
10
119.582999
20
-99.874080
11
120.116332
21
-99.874080
0
LINE
8
0
10
120.116332
20
-99.874080
11
120.382999
21
-99.412200
0
LINE
8
0
10
120.382999
20
-99.412200
11
120.383000
21
-99.412200
0
LINE
8
0
10
114.964000
20
-99.412200
11
114.697853
21
-98.948830
0
LINE
8
0
10
114.697853
20
-98.948830
11
114.163487
21
-98.948830
0
LINE
8
0
10
114.163487
20
-98.948830
11
113.897340
21
-99.412200
0
LINE
8
0
10
113.897340
20
-99.412200
11
114.163487
21
-99.875570
0
LINE
8
0
10
114.163487
20
-99.875570
11
114.697853
21
-99.875570
0
LINE
8
0
10
114.697853
20
-99.875570
11
114.964000
21
-99.412200
0
LINE
8
0
10
114.964000
20
-99.412200
11
114.964000
21
-99.412200
0
LINE
8
0
10
112.255000
20
-99.412200
11
111.988332
21
-98.950320
0
LINE
8
0
10
111.988332
20
-98.950320
11
111.454999
21
-98.950320
0
LINE
8
0
10
111.454999
20
-98.950320
11
111.188332
21
-99.412200
0
LINE
8
0
10
111.188332
20
-99.412200
11
111.454999
21
-99.874080
0
LINE
8
0
10
111.454999
20
-99.874080
11
111.988332
21
-99.874080
0
LINE
8
0
10
111.988332
20
-99.874080
11
112.254999
21
-99.412200
0
LINE
8
0
10
112.254999
20
-99.412200
11
112.255000
21
-99.412200
0
LINE
8
0
10
215.546000
20
-92.687700
11
215.279332
21
-92.225820
0
LINE
8
0
10
215.279332
20
-92.225820
11
214.745999
21
-92.225820
0
LINE
8
0
10
214.745999
20
-92.225820
11
214.479332
21
-92.687700
0
LINE
8
0
10
214.479332
20
-92.687700
11
214.746000
21
-93.149580
0
LINE
8
0
10
214.746000
20
-93.149580
11
215.279333
21
-93.149580
0
LINE
8
0
10
215.279333
20
-93.149580
11
215.545999
21
-92.687700
0
LINE
8
0
10
215.545999
20
-92.687700
11
215.546000
21
-92.687700
0
LINE
8
0
10
215.546000
20
-89.978400
11
215.279332
21
-89.516520
0
LINE
8
0
10
215.279332
20
-89.516520
11
214.745999
21
-89.516520
0
LINE
8
0
10
214.745999
20
-89.516520
11
214.479332
21
-89.978400
0
LINE
8
0
10
214.479332
20
-89.978400
11
214.746000
21
-90.440280
0
LINE
8
0
10
214.746000
20
-90.440280
11
215.279333
21
-90.440280
0
LINE
8
0
10
215.279333
20
-90.440280
11
215.545999
21
-89.978400
0
LINE
8
0
10
215.545999
20
-89.978400
11
215.546000
21
-89.978400
0
LINE
8
0
10
215.546000
20
-95.397100
11
215.279332
21
-94.935220
0
LINE
8
0
10
215.279332
20
-94.935220
11
214.745999
21
-94.935220
0
LINE
8
0
10
214.745999
20
-94.935220
11
214.479332
21
-95.397100
0
LINE
8
0
10
214.479332
20
-95.397100
11
214.746000
21
-95.858980
0
LINE
8
0
10
214.746000
20
-95.858980
11
215.279333
21
-95.858980
0
LINE
8
0
10
215.279333
20
-95.858980
11
215.545999
21
-95.397100
0
LINE
8
0
10
215.545999
20
-95.397100
11
215.546000
21
-95.397100
0
LINE
8
0
10
215.546000
20
-98.106400
11
215.279332
21
-97.644520
0
LINE
8
0
10
215.279332
20
-97.644520
11
214.745999
21
-97.644520
0
LINE
8
0
10
214.745999
20
-97.644520
11
214.479332
21
-98.106400
0
LINE
8
0
10
214.479332
20
-98.106400
11
214.746000
21
-98.568280
0
LINE
8
0
10
214.746000
20
-98.568280
11
215.279333
21
-98.568280
0
LINE
8
0
10
215.279333
20
-98.568280
11
215.545999
21
-98.106400
0
LINE
8
0
10
215.545999
20
-98.106400
11
215.546000
21
-98.106400
0
LINE
8
0
10
215.546000
20
-87.269100
11
215.279332
21
-86.807220
0
LINE
8
0
10
215.279332
20
-86.807220
11
214.745999
21
-86.807220
0
LINE
8
0
10
214.745999
20
-86.807220
11
214.479332
21
-87.269100
0
LINE
8
0
10
214.479332
20
-87.269100
11
214.746000
21
-87.730980
0
LINE
8
0
10
214.746000
20
-87.730980
11
215.279333
21
-87.730980
0
LINE
8
0
10
215.279333
20
-87.730980
11
215.545999
21
-87.269100
0
LINE
8
0
10
215.545999
20
-87.269100
11
215.546000
21
-87.269100
0
LINE
8
0
10
130.212000
20
-142.892000
11
129.945332
21
-142.430120
0
LINE
8
0
10
129.945332
20
-142.430120
11
129.411999
21
-142.430120
0
LINE
8
0
10
129.411999
20
-142.430120
11
129.145332
21
-142.892000
0
LINE
8
0
10
129.145332
20
-142.892000
11
129.412000
21
-143.353880
0
LINE
8
0
10
129.412000
20
-143.353880
11
129.945333
21
-143.353880
0
LINE
8
0
10
129.945333
20
-143.353880
11
130.211999
21
-142.892000
0
LINE
8
0
10
130.211999
20
-142.892000
11
130.212000
21
-142.892000
0
LINE
8
0
10
205.597000
20
-112.105000
11
205.330332
21
-111.643120
0
LINE
8
0
10
205.330332
20
-111.643120
11
204.796999
21
-111.643120
0
LINE
8
0
10
204.796999
20
-111.643120
11
204.530332
21
-112.105000
0
LINE
8
0
10
204.530332
20
-112.105000
11
204.797000
21
-112.566880
0
LINE
8
0
10
204.797000
20
-112.566880
11
205.330333
21
-112.566880
0
LINE
8
0
10
205.330333
20
-112.566880
11
205.596999
21
-112.105000
0
LINE
8
0
10
205.596999
20
-112.105000
11
205.597000
21
-112.105000
0
LINE
8
0
10
208.307000
20
-112.105000
11
208.040853
21
-111.641630
0
LINE
8
0
10
208.040853
20
-111.641630
11
207.506487
21
-111.641630
0
LINE
8
0
10
207.506487
20
-111.641630
11
207.240340
21
-112.105000
0
LINE
8
0
10
207.240340
20
-112.105000
11
207.506487
21
-112.568370
0
LINE
8
0
10
207.506487
20
-112.568370
11
208.040853
21
-112.568370
0
LINE
8
0
10
208.040853
20
-112.568370
11
208.307000
21
-112.105000
0
LINE
8
0
10
208.307000
20
-112.105000
11
208.307000
21
-112.105000
0
LINE
8
0
10
213.725000
20
-112.105000
11
213.458332
21
-111.643120
0
LINE
8
0
10
213.458332
20
-111.643120
11
212.924999
21
-111.643120
0
LINE
8
0
10
212.924999
20
-111.643120
11
212.658332
21
-112.105000
0
LINE
8
0
10
212.658332
20
-112.105000
11
212.925000
21
-112.566880
0
LINE
8
0
10
212.925000
20
-112.566880
11
213.458333
21
-112.566880
0
LINE
8
0
10
213.458333
20
-112.566880
11
213.724999
21
-112.105000
0
LINE
8
0
10
213.724999
20
-112.105000
11
213.725000
21
-112.105000
0
LINE
8
0
10
211.016000
20
-112.105000
11
210.749332
21
-111.643120
0
LINE
8
0
10
210.749332
20
-111.643120
11
210.215998
21
-111.643120
0
LINE
8
0
10
210.215998
20
-111.643120
11
209.949332
21
-112.105000
0
LINE
8
0
10
209.949332
20
-112.105000
11
210.216000
21
-112.566880
0
LINE
8
0
10
210.216000
20
-112.566880
11
210.749333
21
-112.566880
0
LINE
8
0
10
210.749333
20
-112.566880
11
211.015999
21
-112.105000
0
LINE
8
0
10
211.015999
20
-112.105000
11
211.016000
21
-112.105000
0
LINE
8
0
10
224.563000
20
-112.105000
11
224.296853
21
-111.641630
0
LINE
8
0
10
224.296853
20
-111.641630
11
223.762487
21
-111.641630
0
LINE
8
0
10
223.762487
20
-111.641630
11
223.496340
21
-112.105000
0
LINE
8
0
10
223.496340
20
-112.105000
11
223.762487
21
-112.568370
0
LINE
8
0
10
223.762487
20
-112.568370
11
224.296853
21
-112.568370
0
LINE
8
0
10
224.296853
20
-112.568370
11
224.563000
21
-112.105000
0
LINE
8
0
10
224.563000
20
-112.105000
11
224.563000
21
-112.105000
0
LINE
8
0
10
221.853000
20
-112.105000
11
221.586332
21
-111.643120
0
LINE
8
0
10
221.586332
20
-111.643120
11
221.052999
21
-111.643120
0
LINE
8
0
10
221.052999
20
-111.643120
11
220.786332
21
-112.105000
0
LINE
8
0
10
220.786332
20
-112.105000
11
221.053000
21
-112.566880
0
LINE
8
0
10
221.053000
20
-112.566880
11
221.586333
21
-112.566880
0
LINE
8
0
10
221.586333
20
-112.566880
11
221.852999
21
-112.105000
0
LINE
8
0
10
221.852999
20
-112.105000
11
221.853000
21
-112.105000
0
LINE
8
0
10
219.144000
20
-112.105000
11
218.877332
21
-111.643120
0
LINE
8
0
10
218.877332
20
-111.643120
11
218.343999
21
-111.643120
0
LINE
8
0
10
218.343999
20
-111.643120
11
218.077332
21
-112.105000
0
LINE
8
0
10
218.077332
20
-112.105000
11
218.344000
21
-112.566880
0
LINE
8
0
10
218.344000
20
-112.566880
11
218.877333
21
-112.566880
0
LINE
8
0
10
218.877333
20
-112.566880
11
219.143999
21
-112.105000
0
LINE
8
0
10
219.143999
20
-112.105000
11
219.144000
21
-112.105000
0
LINE
8
0
10
216.435000
20
-112.105000
11
216.168853
21
-111.641630
0
LINE
8
0
10
216.168853
20
-111.641630
11
215.634487
21
-111.641630
0
LINE
8
0
10
215.634487
20
-111.641630
11
215.368340
21
-112.105000
0
LINE
8
0
10
215.368340
20
-112.105000
11
215.634487
21
-112.568370
0
LINE
8
0
10
215.634487
20
-112.568370
11
216.168853
21
-112.568370
0
LINE
8
0
10
216.168853
20
-112.568370
11
216.435000
21
-112.105000
0
LINE
8
0
10
216.435000
20
-112.105000
11
216.435000
21
-112.105000
0
LINE
8
0
10
191.453000
20
-163.672000
11
191.186332
21
-163.210120
0
LINE
8
0
10
191.186332
20
-163.210120
11
190.652999
21
-163.210120
0
LINE
8
0
10
190.652999
20
-163.210120
11
190.386332
21
-163.672000
0
LINE
8
0
10
190.386332
20
-163.672000
11
190.653000
21
-164.133880
0
LINE
8
0
10
190.653000
20
-164.133880
11
191.186333
21
-164.133880
0
LINE
8
0
10
191.186333
20
-164.133880
11
191.452999
21
-163.672000
0
LINE
8
0
10
191.452999
20
-163.672000
11
191.453000
21
-163.672000
0
LINE
8
0
10
194.163000
20
-163.672000
11
193.896332
21
-163.210120
0
LINE
8
0
10
193.896332
20
-163.210120
11
193.362999
21
-163.210120
0
LINE
8
0
10
193.362999
20
-163.210120
11
193.096332
21
-163.672000
0
LINE
8
0
10
193.096332
20
-163.672000
11
193.363000
21
-164.133880
0
LINE
8
0
10
193.363000
20
-164.133880
11
193.896333
21
-164.133880
0
LINE
8
0
10
193.896333
20
-164.133880
11
194.162999
21
-163.672000
0
LINE
8
0
10
194.162999
20
-163.672000
11
194.163000
21
-163.672000
0
LINE
8
0
10
196.872000
20
-163.672000
11
196.605853
21
-163.208630
0
LINE
8
0
10
196.605853
20
-163.208630
11
196.071487
21
-163.208630
0
LINE
8
0
10
196.071487
20
-163.208630
11
195.805340
21
-163.672000
0
LINE
8
0
10
195.805340
20
-163.672000
11
196.071487
21
-164.135370
0
LINE
8
0
10
196.071487
20
-164.135370
11
196.605853
21
-164.135370
0
LINE
8
0
10
196.605853
20
-164.135370
11
196.872000
21
-163.672000
0
LINE
8
0
10
196.872000
20
-163.672000
11
196.872000
21
-163.672000
0
LINE
8
0
10
199.581000
20
-163.672000
11
199.314332
21
-163.210120
0
LINE
8
0
10
199.314332
20
-163.210120
11
198.780999
21
-163.210120
0
LINE
8
0
10
198.780999
20
-163.210120
11
198.514332
21
-163.672000
0
LINE
8
0
10
198.514332
20
-163.672000
11
198.780999
21
-164.133880
0
LINE
8
0
10
198.780999
20
-164.133880
11
199.314332
21
-164.133880
0
LINE
8
0
10
199.314332
20
-164.133880
11
199.580999
21
-163.672000
0
LINE
8
0
10
199.580999
20
-163.672000
11
199.581000
21
-163.672000
0
LINE
8
0
10
205.000000
20
-163.672000
11
204.733332
21
-163.210120
0
LINE
8
0
10
204.733332
20
-163.210120
11
204.199999
21
-163.210120
0
LINE
8
0
10
204.199999
20
-163.210120
11
203.933332
21
-163.672000
0
LINE
8
0
10
203.933332
20
-163.672000
11
204.199999
21
-164.133880
0
LINE
8
0
10
204.199999
20
-164.133880
11
204.733332
21
-164.133880
0
LINE
8
0
10
204.733332
20
-164.133880
11
204.999999
21
-163.672000
0
LINE
8
0
10
204.999999
20
-163.672000
11
205.000000
21
-163.672000
0
LINE
8
0
10
202.291000
20
-163.672000
11
202.024332
21
-163.210120
0
LINE
8
0
10
202.024332
20
-163.210120
11
201.490999
21
-163.210120
0
LINE
8
0
10
201.490999
20
-163.210120
11
201.224332
21
-163.672000
0
LINE
8
0
10
201.224332
20
-163.672000
11
201.491000
21
-164.133880
0
LINE
8
0
10
201.491000
20
-164.133880
11
202.024333
21
-164.133880
0
LINE
8
0
10
202.024333
20
-164.133880
11
202.290999
21
-163.672000
0
LINE
8
0
10
202.290999
20
-163.672000
11
202.291000
21
-163.672000
0
LINE
8
0
10
223.883000
20
-163.672000
11
223.616332
21
-163.210120
0
LINE
8
0
10
223.616332
20
-163.210120
11
223.082999
21
-163.210120
0
LINE
8
0
10
223.082999
20
-163.210120
11
222.816332
21
-163.672000
0
LINE
8
0
10
222.816332
20
-163.672000
11
223.083000
21
-164.133880
0
LINE
8
0
10
223.083000
20
-164.133880
11
223.616333
21
-164.133880
0
LINE
8
0
10
223.616333
20
-164.133880
11
223.882999
21
-163.672000
0
LINE
8
0
10
223.882999
20
-163.672000
11
223.883000
21
-163.672000
0
LINE
8
0
10
221.173000
20
-163.672000
11
220.906853
21
-163.208630
0
LINE
8
0
10
220.906853
20
-163.208630
11
220.372487
21
-163.208630
0
LINE
8
0
10
220.372487
20
-163.208630
11
220.106340
21
-163.672000
0
LINE
8
0
10
220.106340
20
-163.672000
11
220.372487
21
-164.135370
0
LINE
8
0
10
220.372487
20
-164.135370
11
220.906853
21
-164.135370
0
LINE
8
0
10
220.906853
20
-164.135370
11
221.173000
21
-163.672000
0
LINE
8
0
10
221.173000
20
-163.672000
11
221.173000
21
-163.672000
0
LINE
8
0
10
218.464000
20
-163.672000
11
218.197331
21
-163.210120
0
LINE
8
0
10
218.197331
20
-163.210120
11
217.663998
21
-163.210120
0
LINE
8
0
10
217.663998
20
-163.210120
11
217.397332
21
-163.672000
0
LINE
8
0
10
217.397332
20
-163.672000
11
217.664000
21
-164.133880
0
LINE
8
0
10
217.664000
20
-164.133880
11
218.197333
21
-164.133880
0
LINE
8
0
10
218.197333
20
-164.133880
11
218.463999
21
-163.672000
0
LINE
8
0
10
218.463999
20
-163.672000
11
218.464000
21
-163.672000
0
LINE
8
0
10
215.755000
20
-163.672000
11
215.488332
21
-163.210120
0
LINE
8
0
10
215.488332
20
-163.210120
11
214.954999
21
-163.210120
0
LINE
8
0
10
214.954999
20
-163.210120
11
214.688332
21
-163.672000
0
LINE
8
0
10
214.688332
20
-163.672000
11
214.955000
21
-164.133880
0
LINE
8
0
10
214.955000
20
-164.133880
11
215.488333
21
-164.133880
0
LINE
8
0
10
215.488333
20
-164.133880
11
215.754999
21
-163.672000
0
LINE
8
0
10
215.754999
20
-163.672000
11
215.755000
21
-163.672000
0
LINE
8
0
10
213.045000
20
-163.672000
11
212.778332
21
-163.210120
0
LINE
8
0
10
212.778332
20
-163.210120
11
212.244999
21
-163.210120
0
LINE
8
0
10
212.244999
20
-163.210120
11
211.978332
21
-163.672000
0
LINE
8
0
10
211.978332
20
-163.672000
11
212.244999
21
-164.133880
0
LINE
8
0
10
212.244999
20
-164.133880
11
212.778333
21
-164.133880
0
LINE
8
0
10
212.778333
20
-164.133880
11
213.044999
21
-163.672000
0
LINE
8
0
10
213.044999
20
-163.672000
11
213.045000
21
-163.672000
0
LINE
8
0
10
210.336000
20
-163.672000
11
210.069332
21
-163.210120
0
LINE
8
0
10
210.069332
20
-163.210120
11
209.535999
21
-163.210120
0
LINE
8
0
10
209.535999
20
-163.210120
11
209.269332
21
-163.672000
0
LINE
8
0
10
209.269332
20
-163.672000
11
209.536000
21
-164.133880
0
LINE
8
0
10
209.536000
20
-164.133880
11
210.069333
21
-164.133880
0
LINE
8
0
10
210.069333
20
-164.133880
11
210.335999
21
-163.672000
0
LINE
8
0
10
210.335999
20
-163.672000
11
210.336000
21
-163.672000
0
LINE
8
0
10
107.195000
20
-107.389000
11
106.957932
21
-106.978388
0
LINE
8
0
10
106.957932
20
-106.978388
11
106.483799
21
-106.978388
0
LINE
8
0
10
106.483799
20
-106.978388
11
106.246731
21
-107.389000
0
LINE
8
0
10
106.246731
20
-107.389000
11
106.483799
21
-107.799612
0
LINE
8
0
10
106.483799
20
-107.799612
11
106.957933
21
-107.799612
0
LINE
8
0
10
106.957933
20
-107.799612
11
107.195000
21
-107.389000
0
LINE
8
0
10
107.195000
20
-107.389000
11
107.195000
21
-107.389000
0
LINE
8
0
10
109.904000
20
-107.389000
11
109.666933
21
-106.978389
0
LINE
8
0
10
109.666933
20
-106.978389
11
109.192800
21
-106.978389
0
LINE
8
0
10
109.192800
20
-106.978389
11
108.955734
21
-107.389000
0
LINE
8
0
10
108.955734
20
-107.389000
11
109.192800
21
-107.799611
0
LINE
8
0
10
109.192800
20
-107.799611
11
109.666933
21
-107.799611
0
LINE
8
0
10
109.666933
20
-107.799611
11
109.904000
21
-107.389000
0
LINE
8
0
10
109.904000
20
-107.389000
11
109.904000
21
-107.389000
0
LINE
8
0
10
112.614000
20
-107.389000
11
112.376933
21
-106.978389
0
LINE
8
0
10
112.376933
20
-106.978389
11
111.902800
21
-106.978389
0
LINE
8
0
10
111.902800
20
-106.978389
11
111.665734
21
-107.389000
0
LINE
8
0
10
111.665734
20
-107.389000
11
111.902800
21
-107.799611
0
LINE
8
0
10
111.902800
20
-107.799611
11
112.376933
21
-107.799611
0
LINE
8
0
10
112.376933
20
-107.799611
11
112.614000
21
-107.389000
0
LINE
8
0
10
112.614000
20
-107.389000
11
112.614000
21
-107.389000
0
LINE
8
0
10
115.323000
20
-107.389000
11
115.085933
21
-106.978389
0
LINE
8
0
10
115.085933
20
-106.978389
11
114.611800
21
-106.978389
0
LINE
8
0
10
114.611800
20
-106.978389
11
114.374734
21
-107.389000
0
LINE
8
0
10
114.374734
20
-107.389000
11
114.611800
21
-107.799611
0
LINE
8
0
10
114.611800
20
-107.799611
11
115.085933
21
-107.799611
0
LINE
8
0
10
115.085933
20
-107.799611
11
115.323000
21
-107.389000
0
LINE
8
0
10
115.323000
20
-107.389000
11
115.323000
21
-107.389000
0
LINE
8
0
10
118.032000
20
-107.389000
11
117.794933
21
-106.978389
0
LINE
8
0
10
117.794933
20
-106.978389
11
117.320800
21
-106.978389
0
LINE
8
0
10
117.320800
20
-106.978389
11
117.083734
21
-107.389000
0
LINE
8
0
10
117.083734
20
-107.389000
11
117.320800
21
-107.799611
0
LINE
8
0
10
117.320800
20
-107.799611
11
117.794933
21
-107.799611
0
LINE
8
0
10
117.794933
20
-107.799611
11
118.032000
21
-107.389000
0
LINE
8
0
10
118.032000
20
-107.389000
11
118.032000
21
-107.389000
0
LINE
8
0
10
120.742000
20
-107.389000
11
120.504933
21
-106.978389
0
LINE
8
0
10
120.504933
20
-106.978389
11
120.030800
21
-106.978389
0
LINE
8
0
10
120.030800
20
-106.978389
11
119.793734
21
-107.389000
0
LINE
8
0
10
119.793734
20
-107.389000
11
120.030800
21
-107.799611
0
LINE
8
0
10
120.030800
20
-107.799611
11
120.504933
21
-107.799611
0
LINE
8
0
10
120.504933
20
-107.799611
11
120.742000
21
-107.389000
0
LINE
8
0
10
120.742000
20
-107.389000
11
120.742000
21
-107.389000
0
LINE
8
0
10
123.451000
20
-107.389000
11
123.213933
21
-106.978389
0
LINE
8
0
10
123.213933
20
-106.978389
11
122.739800
21
-106.978389
0
LINE
8
0
10
122.739800
20
-106.978389
11
122.502734
21
-107.389000
0
LINE
8
0
10
122.502734
20
-107.389000
11
122.739800
21
-107.799611
0
LINE
8
0
10
122.739800
20
-107.799611
11
123.213933
21
-107.799611
0
LINE
8
0
10
123.213933
20
-107.799611
11
123.451000
21
-107.389000
0
LINE
8
0
10
123.451000
20
-107.389000
11
123.451000
21
-107.389000
0
LINE
8
0
10
126.160000
20
-107.389000
11
125.922933
21
-106.978389
0
LINE
8
0
10
125.922933
20
-106.978389
11
125.448800
21
-106.978389
0
LINE
8
0
10
125.448800
20
-106.978389
11
125.211734
21
-107.389000
0
LINE
8
0
10
125.211734
20
-107.389000
11
125.448800
21
-107.799611
0
LINE
8
0
10
125.448800
20
-107.799611
11
125.922933
21
-107.799611
0
LINE
8
0
10
125.922933
20
-107.799611
11
126.160000
21
-107.389000
0
LINE
8
0
10
126.160000
20
-107.389000
11
126.160000
21
-107.389000
0
LINE
8
Layer 1
10
107.195000
20
-120.936000
11
106.957932
21
-120.525388
0
LINE
8
Layer 1
10
106.957932
20
-120.525388
11
106.483799
21
-120.525388
0
LINE
8
Layer 1
10
106.483799
20
-120.525388
11
106.246731
21
-120.936000
0
LINE
8
Layer 1
10
106.246731
20
-120.936000
11
106.483799
21
-121.346612
0
LINE
8
Layer 1
10
106.483799
20
-121.346612
11
106.957933
21
-121.346612
0
LINE
8
Layer 1
10
106.957933
20
-121.346612
11
107.195000
21
-120.936000
0
LINE
8
Layer 1
10
107.195000
20
-120.936000
11
107.195000
21
-120.936000
0
LINE
8
Layer 1
10
109.904000
20
-120.936000
11
109.666933
21
-120.525389
0
LINE
8
Layer 1
10
109.666933
20
-120.525389
11
109.192800
21
-120.525389
0
LINE
8
Layer 1
10
109.192800
20
-120.525389
11
108.955734
21
-120.936000
0
LINE
8
Layer 1
10
108.955734
20
-120.936000
11
109.192800
21
-121.346611
0
LINE
8
Layer 1
10
109.192800
20
-121.346611
11
109.666933
21
-121.346611
0
LINE
8
Layer 1
10
109.666933
20
-121.346611
11
109.904000
21
-120.936000
0
LINE
8
Layer 1
10
109.904000
20
-120.936000
11
109.904000
21
-120.936000
0
LINE
8
Layer 1
10
112.614000
20
-120.936000
11
112.376933
21
-120.525389
0
LINE
8
Layer 1
10
112.376933
20
-120.525389
11
111.902800
21
-120.525389
0
LINE
8
Layer 1
10
111.902800
20
-120.525389
11
111.665734
21
-120.936000
0
LINE
8
Layer 1
10
111.665734
20
-120.936000
11
111.902800
21
-121.346611
0
LINE
8
Layer 1
10
111.902800
20
-121.346611
11
112.376933
21
-121.346611
0
LINE
8
Layer 1
10
112.376933
20
-121.346611
11
112.614000
21
-120.936000
0
LINE
8
Layer 1
10
112.614000
20
-120.936000
11
112.614000
21
-120.936000
0
LINE
8
Layer 1
10
115.323000
20
-120.936000
11
115.085933
21
-120.525389
0
LINE
8
Layer 1
10
115.085933
20
-120.525389
11
114.611800
21
-120.525389
0
LINE
8
Layer 1
10
114.611800
20
-120.525389
11
114.374734
21
-120.936000
0
LINE
8
Layer 1
10
114.374734
20
-120.936000
11
114.611800
21
-121.346611
0
LINE
8
Layer 1
10
114.611800
20
-121.346611
11
115.085933
21
-121.346611
0
LINE
8
Layer 1
10
115.085933
20
-121.346611
11
115.323000
21
-120.936000
0
LINE
8
Layer 1
10
115.323000
20
-120.936000
11
115.323000
21
-120.936000
0
LINE
8
Layer 1
10
118.032000
20
-120.936000
11
117.794933
21
-120.525389
0
LINE
8
Layer 1
10
117.794933
20
-120.525389
11
117.320800
21
-120.525389
0
LINE
8
Layer 1
10
117.320800
20
-120.525389
11
117.083734
21
-120.936000
0
LINE
8
Layer 1
10
117.083734
20
-120.936000
11
117.320800
21
-121.346611
0
LINE
8
Layer 1
10
117.320800
20
-121.346611
11
117.794933
21
-121.346611
0
LINE
8
Layer 1
10
117.794933
20
-121.346611
11
118.032000
21
-120.936000
0
LINE
8
Layer 1
10
118.032000
20
-120.936000
11
118.032000
21
-120.936000
0
LINE
8
Layer 1
10
120.742000
20
-120.936000
11
120.504933
21
-120.525389
0
LINE
8
Layer 1
10
120.504933
20
-120.525389
11
120.030800
21
-120.525389
0
LINE
8
Layer 1
10
120.030800
20
-120.525389
11
119.793734
21
-120.936000
0
LINE
8
Layer 1
10
119.793734
20
-120.936000
11
120.030800
21
-121.346611
0
LINE
8
Layer 1
10
120.030800
20
-121.346611
11
120.504933
21
-121.346611
0
LINE
8
Layer 1
10
120.504933
20
-121.346611
11
120.742000
21
-120.936000
0
LINE
8
Layer 1
10
120.742000
20
-120.936000
11
120.742000
21
-120.936000
0
LINE
8
Layer 1
10
123.451000
20
-120.936000
11
123.213933
21
-120.525389
0
LINE
8
Layer 1
10
123.213933
20
-120.525389
11
122.739800
21
-120.525389
0
LINE
8
Layer 1
10
122.739800
20
-120.525389
11
122.502734
21
-120.936000
0
LINE
8
Layer 1
10
122.502734
20
-120.936000
11
122.739800
21
-121.346611
0
LINE
8
Layer 1
10
122.739800
20
-121.346611
11
123.213933
21
-121.346611
0
LINE
8
Layer 1
10
123.213933
20
-121.346611
11
123.451000
21
-120.936000
0
LINE
8
Layer 1
10
123.451000
20
-120.936000
11
123.451000
21
-120.936000
0
LINE
8
Layer 1
10
126.160000
20
-120.936000
11
125.922933
21
-120.525389
0
LINE
8
Layer 1
10
125.922933
20
-120.525389
11
125.448800
21
-120.525389
0
LINE
8
Layer 1
10
125.448800
20
-120.525389
11
125.211734
21
-120.936000
0
LINE
8
Layer 1
10
125.211734
20
-120.936000
11
125.448800
21
-121.346611
0
LINE
8
Layer 1
10
125.448800
20
-121.346611
11
125.922933
21
-121.346611
0
LINE
8
Layer 1
10
125.922933
20
-121.346611
11
126.160000
21
-120.936000
0
LINE
8
Layer 1
10
126.160000
20
-120.936000
11
126.160000
21
-120.936000
0
LINE
8
0
10
95.470100
20
-146.780000
11
95.233033
21
-146.369389
0
LINE
8
0
10
95.233033
20
-146.369389
11
94.758900
21
-146.369389
0
LINE
8
0
10
94.758900
20
-146.369389
11
94.521834
21
-146.780000
0
LINE
8
0
10
94.521834
20
-146.780000
11
94.758900
21
-147.190611
0
LINE
8
0
10
94.758900
20
-147.190611
11
95.233033
21
-147.190611
0
LINE
8
0
10
95.233033
20
-147.190611
11
95.470100
21
-146.780000
0
LINE
8
0
10
95.470100
20
-146.780000
11
95.470100
21
-146.780000
0
LINE
8
0
10
98.179400
20
-146.780000
11
97.942334
21
-146.369389
0
LINE
8
0
10
97.942334
20
-146.369389
11
97.468200
21
-146.369389
0
LINE
8
0
10
97.468200
20
-146.369389
11
97.231134
21
-146.780000
0
LINE
8
0
10
97.231134
20
-146.780000
11
97.468200
21
-147.190611
0
LINE
8
0
10
97.468200
20
-147.190611
11
97.942334
21
-147.190611
0
LINE
8
0
10
97.942334
20
-147.190611
11
98.179400
21
-146.780000
0
LINE
8
0
10
98.179400
20
-146.780000
11
98.179400
21
-146.780000
0
LINE
8
0
10
100.889000
20
-146.780000
11
100.651933
21
-146.369389
0
LINE
8
0
10
100.651933
20
-146.369389
11
100.177800
21
-146.369389
0
LINE
8
0
10
100.177800
20
-146.369389
11
99.940734
21
-146.780000
0
LINE
8
0
10
99.940734
20
-146.780000
11
100.177800
21
-147.190611
0
LINE
8
0
10
100.177800
20
-147.190611
11
100.651933
21
-147.190611
0
LINE
8
0
10
100.651933
20
-147.190611
11
100.889000
21
-146.780000
0
LINE
8
0
10
100.889000
20
-146.780000
11
100.889000
21
-146.780000
0
LINE
8
0
10
103.598000
20
-146.780000
11
103.360933
21
-146.369389
0
LINE
8
0
10
103.360933
20
-146.369389
11
102.886800
21
-146.369389
0
LINE
8
0
10
102.886800
20
-146.369389
11
102.649734
21
-146.780000
0
LINE
8
0
10
102.649734
20
-146.780000
11
102.886800
21
-147.190611
0
LINE
8
0
10
102.886800
20
-147.190611
11
103.360933
21
-147.190611
0
LINE
8
0
10
103.360933
20
-147.190611
11
103.598000
21
-146.780000
0
LINE
8
0
10
103.598000
20
-146.780000
11
103.598000
21
-146.780000
0
LINE
8
0
10
106.307000
20
-146.780000
11
106.069933
21
-146.369389
0
LINE
8
0
10
106.069933
20
-146.369389
11
105.595800
21
-146.369389
0
LINE
8
0
10
105.595800
20
-146.369389
11
105.358734
21
-146.780000
0
LINE
8
0
10
105.358734
20
-146.780000
11
105.595800
21
-147.190611
0
LINE
8
0
10
105.595800
20
-147.190611
11
106.069933
21
-147.190611
0
LINE
8
0
10
106.069933
20
-147.190611
11
106.307000
21
-146.780000
0
LINE
8
0
10
106.307000
20
-146.780000
11
106.307000
21
-146.780000
0
LINE
8
0
10
109.017000
20
-146.780000
11
108.779933
21
-146.369389
0
LINE
8
0
10
108.779933
20
-146.369389
11
108.305800
21
-146.369389
0
LINE
8
0
10
108.305800
20
-146.369389
11
108.068734
21
-146.780000
0
LINE
8
0
10
108.068734
20
-146.780000
11
108.305800
21
-147.190611
0
LINE
8
0
10
108.305800
20
-147.190611
11
108.779933
21
-147.190611
0
LINE
8
0
10
108.779933
20
-147.190611
11
109.017000
21
-146.780000
0
LINE
8
0
10
109.017000
20
-146.780000
11
109.017000
21
-146.780000
0
LINE
8
0
10
111.726000
20
-146.780000
11
111.488934
21
-146.369389
0
LINE
8
0
10
111.488934
20
-146.369389
11
111.014800
21
-146.369389
0
LINE
8
0
10
111.014800
20
-146.369389
11
110.777734
21
-146.780000
0
LINE
8
0
10
110.777734
20
-146.780000
11
111.014800
21
-147.190611
0
LINE
8
0
10
111.014800
20
-147.190611
11
111.488934
21
-147.190611
0
LINE
8
0
10
111.488934
20
-147.190611
11
111.726000
21
-146.780000
0
LINE
8
0
10
111.726000
20
-146.780000
11
111.726000
21
-146.780000
0
LINE
8
0
10
114.435000
20
-146.770000
11
114.197933
21
-146.359388
0
LINE
8
0
10
114.197933
20
-146.359388
11
113.723799
21
-146.359388
0
LINE
8
0
10
113.723799
20
-146.359388
11
113.486732
21
-146.770000
0
LINE
8
0
10
113.486732
20
-146.770000
11
113.723799
21
-147.180612
0
LINE
8
0
10
113.723799
20
-147.180612
11
114.197933
21
-147.180612
0
LINE
8
0
10
114.197933
20
-147.180612
11
114.435000
21
-146.770000
0
LINE
8
0
10
114.435000
20
-146.770000
11
114.435000
21
-146.770000
0
LINE
8
0
10
117.145000
20
-146.770000
11
116.907933
21
-146.359389
0
LINE
8
0
10
116.907933
20
-146.359389
11
116.433800
21
-146.359389
0
LINE
8
0
10
116.433800
20
-146.359389
11
116.196734
21
-146.770000
0
LINE
8
0
10
116.196734
20
-146.770000
11
116.433800
21
-147.180611
0
LINE
8
0
10
116.433800
20
-147.180611
11
116.907933
21
-147.180611
0
LINE
8
0
10
116.907933
20
-147.180611
11
117.145000
21
-146.770000
0
LINE
8
0
10
117.145000
20
-146.770000
11
117.145000
21
-146.770000
0
LINE
8
0
10
119.854000
20
-146.770000
11
119.616933
21
-146.359389
0
LINE
8
0
10
119.616933
20
-146.359389
11
119.142800
21
-146.359389
0
LINE
8
0
10
119.142800
20
-146.359389
11
118.905734
21
-146.770000
0
LINE
8
0
10
118.905734
20
-146.770000
11
119.142800
21
-147.180611
0
LINE
8
0
10
119.142800
20
-147.180611
11
119.616933
21
-147.180611
0
LINE
8
0
10
119.616933
20
-147.180611
11
119.854000
21
-146.770000
0
LINE
8
0
10
119.854000
20
-146.770000
11
119.854000
21
-146.770000
0
LINE
8
0
10
122.563000
20
-146.770000
11
122.325933
21
-146.359389
0
LINE
8
0
10
122.325933
20
-146.359389
11
121.851800
21
-146.359389
0
LINE
8
0
10
121.851800
20
-146.359389
11
121.614734
21
-146.770000
0
LINE
8
0
10
121.614734
20
-146.770000
11
121.851800
21
-147.180611
0
LINE
8
0
10
121.851800
20
-147.180611
11
122.325933
21
-147.180611
0
LINE
8
0
10
122.325933
20
-147.180611
11
122.563000
21
-146.770000
0
LINE
8
0
10
122.563000
20
-146.770000
11
122.563000
21
-146.770000
0
LINE
8
0
10
125.273000
20
-146.770000
11
125.035933
21
-146.359389
0
LINE
8
0
10
125.035933
20
-146.359389
11
124.561800
21
-146.359389
0
LINE
8
0
10
124.561800
20
-146.359389
11
124.324734
21
-146.770000
0
LINE
8
0
10
124.324734
20
-146.770000
11
124.561800
21
-147.180611
0
LINE
8
0
10
124.561800
20
-147.180611
11
125.035933
21
-147.180611
0
LINE
8
0
10
125.035933
20
-147.180611
11
125.273000
21
-146.770000
0
LINE
8
0
10
125.273000
20
-146.770000
11
125.273000
21
-146.770000
0
LINE
8
0
10
127.982000
20
-146.770000
11
127.744933
21
-146.359389
0
LINE
8
0
10
127.744933
20
-146.359389
11
127.270800
21
-146.359389
0
LINE
8
0
10
127.270800
20
-146.359389
11
127.033734
21
-146.770000
0
LINE
8
0
10
127.033734
20
-146.770000
11
127.270800
21
-147.180611
0
LINE
8
0
10
127.270800
20
-147.180611
11
127.744933
21
-147.180611
0
LINE
8
0
10
127.744933
20
-147.180611
11
127.982000
21
-146.770000
0
LINE
8
0
10
127.982000
20
-146.770000
11
127.982000
21
-146.770000
0
LINE
8
0
10
130.691000
20
-146.770000
11
130.453934
21
-146.359389
0
LINE
8
0
10
130.453934
20
-146.359389
11
129.979800
21
-146.359389
0
LINE
8
0
10
129.979800
20
-146.359389
11
129.742734
21
-146.770000
0
LINE
8
0
10
129.742734
20
-146.770000
11
129.979800
21
-147.180611
0
LINE
8
0
10
129.979800
20
-147.180611
11
130.453933
21
-147.180611
0
LINE
8
0
10
130.453933
20
-147.180611
11
130.691000
21
-146.770000
0
LINE
8
0
10
130.691000
20
-146.770000
11
130.691000
21
-146.770000
0
LINE
8
0
10
133.401000
20
-146.770000
11
133.163934
21
-146.359389
0
LINE
8
0
10
133.163934
20
-146.359389
11
132.689801
21
-146.359389
0
LINE
8
0
10
132.689801
20
-146.359389
11
132.452734
21
-146.770000
0
LINE
8
0
10
132.452734
20
-146.770000
11
132.689801
21
-147.180611
0
LINE
8
0
10
132.689801
20
-147.180611
11
133.163934
21
-147.180611
0
LINE
8
0
10
133.163934
20
-147.180611
11
133.401000
21
-146.770000
0
LINE
8
0
10
133.401000
20
-146.770000
11
133.401000
21
-146.770000
0
LINE
8
0
10
95.440500
20
-130.524000
11
95.203433
21
-130.113389
0
LINE
8
0
10
95.203433
20
-130.113389
11
94.729300
21
-130.113389
0
LINE
8
0
10
94.729300
20
-130.113389
11
94.492234
21
-130.524000
0
LINE
8
0
10
94.492234
20
-130.524000
11
94.729300
21
-130.934611
0
LINE
8
0
10
94.729300
20
-130.934611
11
95.203433
21
-130.934611
0
LINE
8
0
10
95.203433
20
-130.934611
11
95.440500
21
-130.524000
0
LINE
8
0
10
95.440500
20
-130.524000
11
95.440500
21
-130.524000
0
LINE
8
0
10
98.149800
20
-130.524000
11
97.912733
21
-130.113389
0
LINE
8
0
10
97.912733
20
-130.113389
11
97.438600
21
-130.113389
0
LINE
8
0
10
97.438600
20
-130.113389
11
97.201534
21
-130.524000
0
LINE
8
0
10
97.201534
20
-130.524000
11
97.438600
21
-130.934611
0
LINE
8
0
10
97.438600
20
-130.934611
11
97.912733
21
-130.934611
0
LINE
8
0
10
97.912733
20
-130.934611
11
98.149800
21
-130.524000
0
LINE
8
0
10
98.149800
20
-130.524000
11
98.149800
21
-130.524000
0
LINE
8
0
10
100.859000
20
-130.524000
11
100.621933
21
-130.113389
0
LINE
8
0
10
100.621933
20
-130.113389
11
100.147800
21
-130.113389
0
LINE
8
0
10
100.147800
20
-130.113389
11
99.910734
21
-130.524000
0
LINE
8
0
10
99.910734
20
-130.524000
11
100.147800
21
-130.934611
0
LINE
8
0
10
100.147800
20
-130.934611
11
100.621933
21
-130.934611
0
LINE
8
0
10
100.621933
20
-130.934611
11
100.859000
21
-130.524000
0
LINE
8
0
10
100.859000
20
-130.524000
11
100.859000
21
-130.524000
0
LINE
8
0
10
103.568000
20
-130.524000
11
103.330933
21
-130.113389
0
LINE
8
0
10
103.330933
20
-130.113389
11
102.856800
21
-130.113389
0
LINE
8
0
10
102.856800
20
-130.113389
11
102.619734
21
-130.524000
0
LINE
8
0
10
102.619734
20
-130.524000
11
102.856800
21
-130.934611
0
LINE
8
0
10
102.856800
20
-130.934611
11
103.330933
21
-130.934611
0
LINE
8
0
10
103.330933
20
-130.934611
11
103.568000
21
-130.524000
0
LINE
8
0
10
103.568000
20
-130.524000
11
103.568000
21
-130.524000
0
LINE
8
0
10
106.278000
20
-130.524000
11
106.040933
21
-130.113389
0
LINE
8
0
10
106.040933
20
-130.113389
11
105.566800
21
-130.113389
0
LINE
8
0
10
105.566800
20
-130.113389
11
105.329734
21
-130.524000
0
LINE
8
0
10
105.329734
20
-130.524000
11
105.566800
21
-130.934611
0
LINE
8
0
10
105.566800
20
-130.934611
11
106.040933
21
-130.934611
0
LINE
8
0
10
106.040933
20
-130.934611
11
106.278000
21
-130.524000
0
LINE
8
0
10
106.278000
20
-130.524000
11
106.278000
21
-130.524000
0
LINE
8
0
10
108.987000
20
-130.524000
11
108.749933
21
-130.113389
0
LINE
8
0
10
108.749933
20
-130.113389
11
108.275800
21
-130.113389
0
LINE
8
0
10
108.275800
20
-130.113389
11
108.038734
21
-130.524000
0
LINE
8
0
10
108.038734
20
-130.524000
11
108.275800
21
-130.934611
0
LINE
8
0
10
108.275800
20
-130.934611
11
108.749933
21
-130.934611
0
LINE
8
0
10
108.749933
20
-130.934611
11
108.987000
21
-130.524000
0
LINE
8
0
10
108.987000
20
-130.524000
11
108.987000
21
-130.524000
0
LINE
8
0
10
111.696000
20
-130.524000
11
111.458934
21
-130.113389
0
LINE
8
0
10
111.458934
20
-130.113389
11
110.984800
21
-130.113389
0
LINE
8
0
10
110.984800
20
-130.113389
11
110.747734
21
-130.524000
0
LINE
8
0
10
110.747734
20
-130.524000
11
110.984800
21
-130.934611
0
LINE
8
0
10
110.984800
20
-130.934611
11
111.458934
21
-130.934611
0
LINE
8
0
10
111.458934
20
-130.934611
11
111.696000
21
-130.524000
0
LINE
8
0
10
111.696000
20
-130.524000
11
111.696000
21
-130.524000
0
LINE
8
0
10
114.406000
20
-130.514000
11
114.168933
21
-130.103388
0
LINE
8
0
10
114.168933
20
-130.103388
11
113.694799
21
-130.103388
0
LINE
8
0
10
113.694799
20
-130.103388
11
113.457732
21
-130.514000
0
LINE
8
0
10
113.457732
20
-130.514000
11
113.694799
21
-130.924612
0
LINE
8
0
10
113.694799
20
-130.924612
11
114.168933
21
-130.924612
0
LINE
8
0
10
114.168933
20
-130.924612
11
114.406000
21
-130.514000
0
LINE
8
0
10
114.406000
20
-130.514000
11
114.406000
21
-130.514000
0
LINE
8
0
10
117.115000
20
-130.514000
11
116.877933
21
-130.103389
0
LINE
8
0
10
116.877933
20
-130.103389
11
116.403800
21
-130.103389
0
LINE
8
0
10
116.403800
20
-130.103389
11
116.166734
21
-130.514000
0
LINE
8
0
10
116.166734
20
-130.514000
11
116.403800
21
-130.924611
0
LINE
8
0
10
116.403800
20
-130.924611
11
116.877933
21
-130.924611
0
LINE
8
0
10
116.877933
20
-130.924611
11
117.115000
21
-130.514000
0
LINE
8
0
10
117.115000
20
-130.514000
11
117.115000
21
-130.514000
0
LINE
8
0
10
119.824000
20
-130.514000
11
119.586933
21
-130.103389
0
LINE
8
0
10
119.586933
20
-130.103389
11
119.112800
21
-130.103389
0
LINE
8
0
10
119.112800
20
-130.103389
11
118.875734
21
-130.514000
0
LINE
8
0
10
118.875734
20
-130.514000
11
119.112800
21
-130.924611
0
LINE
8
0
10
119.112800
20
-130.924611
11
119.586933
21
-130.924611
0
LINE
8
0
10
119.586933
20
-130.924611
11
119.824000
21
-130.514000
0
LINE
8
0
10
119.824000
20
-130.514000
11
119.824000
21
-130.514000
0
LINE
8
0
10
122.534000
20
-130.514000
11
122.296933
21
-130.103389
0
LINE
8
0
10
122.296933
20
-130.103389
11
121.822800
21
-130.103389
0
LINE
8
0
10
121.822800
20
-130.103389
11
121.585734
21
-130.514000
0
LINE
8
0
10
121.585734
20
-130.514000
11
121.822800
21
-130.924611
0
LINE
8
0
10
121.822800
20
-130.924611
11
122.296933
21
-130.924611
0
LINE
8
0
10
122.296933
20
-130.924611
11
122.534000
21
-130.514000
0
LINE
8
0
10
122.534000
20
-130.514000
11
122.534000
21
-130.514000
0
LINE
8
0
10
125.243000
20
-130.514000
11
125.005933
21
-130.103389
0
LINE
8
0
10
125.005933
20
-130.103389
11
124.531800
21
-130.103389
0
LINE
8
0
10
124.531800
20
-130.103389
11
124.294734
21
-130.514000
0
LINE
8
0
10
124.294734
20
-130.514000
11
124.531800
21
-130.924611
0
LINE
8
0
10
124.531800
20
-130.924611
11
125.005933
21
-130.924611
0
LINE
8
0
10
125.005933
20
-130.924611
11
125.243000
21
-130.514000
0
LINE
8
0
10
125.243000
20
-130.514000
11
125.243000
21
-130.514000
0
LINE
8
0
10
127.952000
20
-130.514000
11
127.714933
21
-130.103389
0
LINE
8
0
10
127.714933
20
-130.103389
11
127.240800
21
-130.103389
0
LINE
8
0
10
127.240800
20
-130.103389
11
127.003734
21
-130.514000
0
LINE
8
0
10
127.003734
20
-130.514000
11
127.240800
21
-130.924611
0
LINE
8
0
10
127.240800
20
-130.924611
11
127.714933
21
-130.924611
0
LINE
8
0
10
127.714933
20
-130.924611
11
127.952000
21
-130.514000
0
LINE
8
0
10
127.952000
20
-130.514000
11
127.952000
21
-130.514000
0
LINE
8
0
10
130.662000
20
-130.514000
11
130.424934
21
-130.103389
0
LINE
8
0
10
130.424934
20
-130.103389
11
129.950800
21
-130.103389
0
LINE
8
0
10
129.950800
20
-130.103389
11
129.713734
21
-130.514000
0
LINE
8
0
10
129.713734
20
-130.514000
11
129.950800
21
-130.924611
0
LINE
8
0
10
129.950800
20
-130.924611
11
130.424933
21
-130.924611
0
LINE
8
0
10
130.424933
20
-130.924611
11
130.662000
21
-130.514000
0
LINE
8
0
10
130.662000
20
-130.514000
11
130.662000
21
-130.514000
0
LINE
8
0
10
133.371000
20
-130.514000
11
133.133934
21
-130.103389
0
LINE
8
0
10
133.133934
20
-130.103389
11
132.659801
21
-130.103389
0
LINE
8
0
10
132.659801
20
-130.103389
11
132.422734
21
-130.514000
0
LINE
8
0
10
132.422734
20
-130.514000
11
132.659801
21
-130.924611
0
LINE
8
0
10
132.659801
20
-130.924611
11
133.133934
21
-130.924611
0
LINE
8
0
10
133.133934
20
-130.924611
11
133.371000
21
-130.514000
0
LINE
8
0
10
133.371000
20
-130.514000
11
133.371000
21
-130.514000
 0 
ENDSEC
 0 
EOF