<!-- Created with Inkscape (http://www.inkscape.org/) --><svg xmlns:inkscape="http://www.inkscape.org/namespaces/inkscape" xmlns:sodipodi="http://sodipodi.sourceforge.net/DTD/sodipodi-0.dtd" xmlns="http://www.w3.org/2000/svg" xmlns:svg="http://www.w3.org/2000/svg" width="210mm" height="297mm" viewBox="0 0 210 297" version="1.1" id="svg5" sodipodi:docname="PCB.tar" inkscape:version="1.1.1 (1:1.1+202109281949+c3084ef5ed)">
  <sodipodi:namedview id="namedview7" pagecolor="#ffffff" bordercolor="#666666" borderopacity="1.0" inkscape:pageshadow="2" inkscape:pageopacity="0.0" inkscape:pagecheckerboard="0" inkscape:document-units="mm" showgrid="false" inkscape:zoom="1.3273709" inkscape:cx="291.17709" inkscape:cy="247.85838" inkscape:window-width="1846" inkscape:window-height="1016" inkscape:window-x="1354" inkscape:window-y="27" inkscape:window-maximized="1" inkscape:current-layer="layer2">
    <inkscape:grid type="xygrid" id="grid2329"/>
  </sodipodi:namedview>
  <defs id="defs2">
    <marker id="DistanceX" orient="auto" refX="0.0" refY="0.0" style="overflow:visible">
      <path d="M 3,-3 L -3,3 M 0,-5 L  0,5" style="stroke:#000000; stroke-width:0.5" id="path826"/>
    </marker>
    <pattern id="Hatch" patternUnits="userSpaceOnUse" width="8" height="8" x="0" y="0">
      <path d="M8 4 l-4,4" stroke="#000000" stroke-width="0.25" linecap="square" id="path829"/>
      <path d="M6 2 l-4,4" stroke="#000000" stroke-width="0.25" linecap="square" id="path831"/>
      <path d="M4 0 l-4,4" stroke="#000000" stroke-width="0.25" linecap="square" id="path833"/>
    </pattern>
    <symbol id="*MODEL_SPACE"/>
    <symbol id="*PAPER_SPACE"/>
    <marker id="DistanceX-3" orient="auto" refX="0.0" refY="0.0" style="overflow:visible">
      <path d="M 3,-3 L -3,3 M 0,-5 L  0,5" style="stroke:#000000; stroke-width:0.5" id="path1431"/>
    </marker>
    <pattern id="Hatch-6" patternUnits="userSpaceOnUse" width="8" height="8" x="0" y="0">
      <path d="M8 4 l-4,4" stroke="#000000" stroke-width="0.25" linecap="square" id="path1434"/>
      <path d="M6 2 l-4,4" stroke="#000000" stroke-width="0.25" linecap="square" id="path1436"/>
      <path d="M4 0 l-4,4" stroke="#000000" stroke-width="0.25" linecap="square" id="path1438"/>
    </pattern>
    <symbol id="*MODEL_SPACE-7"/>
    <symbol id="*PAPER_SPACE-5"/>
    <marker id="DistanceX-35" orient="auto" refX="0.0" refY="0.0" style="overflow:visible">
      <path d="M 3,-3 L -3,3 M 0,-5 L  0,5" style="stroke:#000000; stroke-width:0.5" id="path1942"/>
    </marker>
    <pattern id="Hatch-62" patternUnits="userSpaceOnUse" width="8" height="8" x="0" y="0">
      <path d="M8 4 l-4,4" stroke="#000000" stroke-width="0.25" linecap="square" id="path1945"/>
      <path d="M6 2 l-4,4" stroke="#000000" stroke-width="0.25" linecap="square" id="path1947"/>
      <path d="M4 0 l-4,4" stroke="#000000" stroke-width="0.25" linecap="square" id="path1949"/>
    </pattern>
    <symbol id="*MODEL_SPACE-9"/>
    <symbol id="*PAPER_SPACE-1"/>
    <marker id="DistanceX-2" orient="auto" refX="0.0" refY="0.0" style="overflow:visible">
      <path d="M 3,-3 L -3,3 M 0,-5 L  0,5" style="stroke:#000000; stroke-width:0.5" id="path2060"/>
    </marker>
    <pattern id="Hatch-7" patternUnits="userSpaceOnUse" width="8" height="8" x="0" y="0">
      <path d="M8 4 l-4,4" stroke="#000000" stroke-width="0.25" linecap="square" id="path2063"/>
      <path d="M6 2 l-4,4" stroke="#000000" stroke-width="0.25" linecap="square" id="path2065"/>
      <path d="M4 0 l-4,4" stroke="#000000" stroke-width="0.25" linecap="square" id="path2067"/>
    </pattern>
    <symbol id="*MODEL_SPACE-0"/>
    <symbol id="*PAPER_SPACE-9"/>
  </defs>
  <g inkscape:groupmode="layer" id="layer2" inkscape:label="Footprint" style="display:inline">
    <g inkscape:label="0" id="g2010" transform="matrix(0.26458333,0,0,0.26458333,-66.80409,-136.3352)" style="fill:#0000ff">
      <path style="fill:#0000ff;stroke:#99724c;stroke-width:1.3" d="M 316.84,801.321 V 733.29" id="path1956"/>
      <path style="fill:#0000ff;stroke:#99724c;stroke-width:1.3" d="M 480.116,801.321 H 316.84" id="path1958"/>
      <path style="fill:#0000ff;stroke:#99724c;stroke-width:1.3" d="m 480.116,733.29 v 68.031" id="path1960"/>
      <path style="fill:#0000ff;stroke:#99724c;stroke-width:1.3" d="M 316.84,733.29 H 480.116" id="path1962"/>
      <path d="m 440.02332,709.30919 a 4.8,4.8 0 0 0 4.8,-4.8" style="fill:#0000ff;stroke:#99724c;stroke-width:1.3" id="path1964"/>
      <path style="fill:#0000ff;stroke:#99724c;stroke-width:1.3" d="m 444.823,656.509 v 48" id="path1966"/>
      <path d="m 444.82332,656.5092 a 4.8,4.8 0 0 0 -4.8,-4.8" style="fill:#0000ff;stroke:#99724c;stroke-width:1.3" id="path1968"/>
      <path style="fill:#0000ff;stroke:#99724c;stroke-width:1.3" d="m 372.823,651.709 h 67.2" id="path1970"/>
      <path d="m 372.82332,651.7092 a 4.8,4.8 0 0 0 -4.8,4.8" style="fill:#0000ff;stroke:#99724c;stroke-width:1.3" id="path1972"/>
      <path style="fill:#0000ff;stroke:#99724c;stroke-width:1.3" d="m 368.023,704.509 v -48" id="path1974"/>
      <path d="m 368.02332,704.50919 a 4.8,4.8 0 0 0 4.8,4.8" style="fill:#0000ff;stroke:#99724c;stroke-width:1.3" id="path1976"/>
      <path style="fill:#0000ff;stroke:#99724c;stroke-width:1.3" d="m 440.023,709.309 h -67.2" id="path1978"/>
      <path style="fill:#0000ff;stroke:#99724c;stroke-width:1.3" d="m 382.832,620.533 h 43.131" id="path1980"/>
      <path style="fill:#0000ff;stroke:#99724c;stroke-width:1.3" d="m 382.832,635.953 v -15.42" id="path1982"/>
      <path style="fill:#0000ff;stroke:#99724c;stroke-width:1.3" d="M 425.963,635.953 H 382.832" id="path1984"/>
      <path style="fill:#0000ff;stroke:#99724c;stroke-width:1.3" d="m 425.963,620.533 v 15.42" id="path1986"/>
      <path style="fill:#0000ff;stroke:#99724c;stroke-width:1.3" d="m 748.973,577.506 h 15.27" id="path1988"/>
      <path style="fill:#0000ff;stroke:#99724c;stroke-width:1.3" d="M 748.973,630.084 V 577.506" id="path1990"/>
      <path style="fill:#0000ff;stroke:#99724c;stroke-width:1.3" d="m 764.243,630.084 h -15.27" id="path1992"/>
      <path style="fill:#0000ff;stroke:#99724c;stroke-width:1.3" d="m 764.243,577.506 v 52.578" id="path1994"/>
      <path style="fill:#0000ff;stroke:#99724c;stroke-width:1.3" d="M 805.679,674.728 786.095,655.144" id="path1996"/>
      <path style="fill:#0000ff;stroke:#99724c;stroke-width:1.3" d="M 786.095,655.144 H 503.713" id="path1998"/>
      <path style="fill:#0000ff;stroke:#99724c;stroke-width:1.3" d="M 503.713,655.144 V 873.832" id="path2000"/>
      <path style="fill:#0000ff;stroke:#99724c;stroke-width:1.3" d="M 503.713,873.832 H 796.079" id="path2002"/>
      <path style="fill:#0000ff;stroke:#99724c;stroke-width:1.3" d="M 796.079,873.832 V 851.608" id="path2004"/>
      <path style="fill:#0000ff;stroke:#99724c;stroke-width:1.3" d="m 796.079,851.608 9.6,-9.84" id="path2006"/>
      <path style="fill:#0000ff;stroke:#99724c;stroke-width:1.3" d="M 805.679,841.768 V 674.728" id="path2008"/>
    </g>
    <text xml:space="preserve" style="font-size:3.175px;line-height:1.25;font-family:'CMU Serif';-inkscape-font-specification:'CMU Serif';stroke-width:0.264583" x="63.376823" y="12.240841" id="text23794"><tspan sodipodi:role="line" id="tspan23792" style="font-size:3.175px;stroke-width:0.264583" x="63.376823" y="12.240841">Wash &amp; Cure </tspan><tspan sodipodi:role="line" style="font-size:3.175px;stroke-width:0.264583" x="63.376823" y="16.209591" id="tspan23796">Andr&#233;s Pedraza -DMPA</tspan></text>
  </g>
  </svg>