999
"DXF R12 Output" (www.mydxf.blogspot.com)
 0 
SECTION
 2 
HEADER
 9 
$ACADVER
 1 
AC1009
 9 
$EXTMIN
 10 
 0 
 20 
 0 
 9 
$EXTMAX
 10 
 8.5 
 20 
 11 
 0 
ENDSEC
 0 
SECTION
 2 
ENTITIES
0
LINE
8
Layer 1
10
0.846666
20
84.666700
11
-0.846666
21
82.973300
0
LINE
8
Layer 1
10
0.000000
20
85.231100
11
0.000000
21
82.408900
0
LINE
8
Layer 1
10
2.257780
20
82.691100
11
1.128890
21
81.562210
0
LINE
8
Layer 1
10
1.693330
20
83.255600
11
0.564440
21
82.126710
0
LINE
8
Layer 1
10
1.128890
20
83.820000
11
0.000000
21
82.691110
0
LINE
8
Layer 1
10
0.846666
20
84.666700
11
-0.846666
21
82.973300
0
LINE
8
Layer 1
10
0.000000
20
85.231100
11
0.000000
21
82.408900
0
LINE
8
Layer 1
10
2.257780
20
82.691100
11
1.128890
21
81.562210
0
LINE
8
Layer 1
10
1.693330
20
83.255600
11
0.564440
21
82.126710
0
LINE
8
Layer 1
10
1.128890
20
83.820000
11
0.000000
21
82.691110
0
LINE
8
Layer 1
10
0.846666
20
84.666700
11
-0.846666
21
82.973300
0
LINE
8
Layer 1
10
0.000000
20
85.231100
11
0.000000
21
82.408900
0
LINE
8
Layer 1
10
2.257780
20
82.691100
11
1.128890
21
81.562210
0
LINE
8
Layer 1
10
1.693330
20
83.255600
11
0.564440
21
82.126710
0
LINE
8
Layer 1
10
1.128890
20
83.820000
11
0.000000
21
82.691110
0
LINE
8
Layer 1
10
0.846666
20
84.666700
11
-0.846666
21
82.973300
0
LINE
8
Layer 1
10
0.000000
20
85.231100
11
0.000000
21
82.408900
0
LINE
8
Layer 1
10
2.257780
20
82.691100
11
1.128890
21
81.562210
0
LINE
8
Layer 1
10
1.693330
20
83.255600
11
0.564440
21
82.126710
0
LINE
8
Layer 1
10
1.128890
20
83.820000
11
0.000000
21
82.691110
0
LINE
8
0
10
89.419200
20
-142.330000
11
89.419200
21
-123.131000
0
LINE
8
0
10
135.499000
20
-142.330000
11
89.419200
21
-142.330000
0
LINE
8
0
10
135.499000
20
-123.131000
11
135.499000
21
-142.330000
0
LINE
8
0
10
89.419200
20
-123.131000
11
135.499000
21
-123.131000
0
LINE
8
0
10
124.184000
20
-116.363000
11
124.702410
21
-116.259882
0
LINE
8
0
10
124.702410
20
-116.259882
11
125.141896
21
-115.966226
0
LINE
8
0
10
125.141896
20
-115.966226
11
125.435552
21
-115.526740
0
LINE
8
0
10
125.435552
20
-115.526740
11
125.538670
21
-115.008330
0
LINE
8
0
10
125.539000
20
-101.461000
11
125.539000
21
-115.008000
0
LINE
8
0
10
125.539000
20
-101.461000
11
125.435882
21
-100.942590
0
LINE
8
0
10
125.435882
20
-100.942590
11
125.142226
21
-100.503104
0
LINE
8
0
10
125.142226
20
-100.503104
11
124.702740
21
-100.209448
0
LINE
8
0
10
124.702740
20
-100.209448
11
124.184330
21
-100.106330
0
LINE
8
0
10
105.219000
20
-100.107000
11
124.184000
21
-100.107000
0
LINE
8
0
10
105.219000
20
-100.107000
11
104.700590
21
-100.210118
0
LINE
8
0
10
104.700590
20
-100.210118
11
104.261104
21
-100.503774
0
LINE
8
0
10
104.261104
20
-100.503774
11
103.967448
21
-100.943260
0
LINE
8
0
10
103.967448
20
-100.943260
11
103.864330
21
-101.461670
0
LINE
8
0
10
103.864000
20
-115.008000
11
103.864000
21
-101.461000
0
LINE
8
0
10
103.864000
20
-115.008000
11
103.967118
21
-115.526410
0
LINE
8
0
10
103.967118
20
-115.526410
11
104.260774
21
-115.965896
0
LINE
8
0
10
104.260774
20
-115.965896
11
104.700260
21
-116.259552
0
LINE
8
0
10
104.700260
20
-116.259552
11
105.218670
21
-116.362670
0
LINE
8
0
10
124.184000
20
-116.363000
11
105.219000
21
-116.363000
0
LINE
8
0
10
108.044000
20
-91.308100
11
120.216000
21
-91.308100
0
LINE
8
0
10
108.044000
20
-95.659900
11
108.044000
21
-91.308100
0
LINE
8
0
10
120.216000
20
-95.659900
11
108.044000
21
-95.659900
0
LINE
8
0
10
120.216000
20
-91.308100
11
120.216000
21
-95.659900
0
LINE
8
0
10
211.377000
20
-79.164900
11
215.686000
21
-79.164900
0
LINE
8
0
10
211.377000
20
-94.003600
11
211.377000
21
-79.164900
0
LINE
8
0
10
215.686000
20
-94.003600
11
211.377000
21
-94.003600
0
LINE
8
0
10
215.686000
20
-79.164900
11
215.686000
21
-94.003600
0
LINE
8
0
10
227.380000
20
-106.603000
11
221.853000
21
-101.076000
0
LINE
8
0
10
221.853000
20
-101.076000
11
142.159000
21
-101.076000
0
LINE
8
0
10
142.159000
20
-101.076000
11
142.159000
21
-162.795000
0
LINE
8
0
10
142.159000
20
-162.795000
11
224.671000
21
-162.795000
0
LINE
8
0
10
224.671000
20
-162.795000
11
224.671000
21
-156.523000
0
LINE
8
0
10
224.671000
20
-156.523000
11
227.380330
21
-153.745940
0
LINE
8
0
10
227.380000
20
-153.745000
11
227.380000
21
-106.603000
 0 
ENDSEC
 0 
EOF